<?xml version="1.0" encoding="UTF-8" standalone="no"?>
<!-- Created with Inkscape (http://www.inkscape.org/) -->

<svg
   xmlns:dc="http://purl.org/dc/elements/1.1/"
   xmlns:cc="http://creativecommons.org/ns#"
   xmlns:rdf="http://www.w3.org/1999/02/22-rdf-syntax-ns#"
   xmlns:svg="http://www.w3.org/2000/svg"
   xmlns="http://www.w3.org/2000/svg"
   xmlns:sodipodi="http://sodipodi.sourceforge.net/DTD/sodipodi-0.dtd"
   xmlns:inkscape="http://www.inkscape.org/namespaces/inkscape"
   width="48.719303mm"
   height="16.450377mm"
   viewBox="0 0 48.719303 16.450377"
   version="1.1"
   id="svg6324"
   sodipodi:docname="adapt.svg"
   inkscape:version="0.92.5 (2060ec1f9f, 2020-04-08)">
  <defs
     id="defs6318">
    <clipPath
       clipPathUnits="userSpaceOnUse"
       id="clipPath5849">
      <path
         style="fill:none;stroke:#000000;stroke-width:0.1;stroke-linecap:butt;stroke-linejoin:miter;stroke-miterlimit:4;stroke-dasharray:none;stroke-opacity:1"
         d="m 101.76287,185.04747 -1.30294,-0.0167 -2.372017,4.10927 0.05012,2.52236 -1.503392,1.85419 -2.505649,0.98555 -0.23386,-0.91874 7.065928,-12.72871 1.1526,-1.41987 0.66819,0.3675 -0.0668,3.20723 z"
         id="path5851"
         inkscape:connector-curvature="0" />
    </clipPath>
    <clipPath
       clipPathUnits="userSpaceOnUse"
       id="clipPath5819">
      <path
         style="fill:none;stroke:#000000;stroke-width:0.26458332px;stroke-linecap:butt;stroke-linejoin:miter;stroke-opacity:1"
         d="m 85.125346,161.09344 -3.34087,5.81311 0.334084,2.47225 6.614922,-0.16704 -0.03341,-6.41447 -1.80407,-1.57021 z"
         id="path5821"
         inkscape:connector-curvature="0" />
    </clipPath>
    <clipPath
       clipPathUnits="userSpaceOnUse"
       id="clipPath5831">
      <path
         style="fill:none;stroke:#000000;stroke-width:0.26458332px;stroke-linecap:butt;stroke-linejoin:miter;stroke-opacity:1"
         d="m 85.392612,160.69254 -3.307458,5.91334 -5.278573,-1.26953 2.037927,-8.58604 5.311984,1.50339 z"
         id="path5833"
         inkscape:connector-curvature="0" />
    </clipPath>
  </defs>
  <sodipodi:namedview
     id="base"
     pagecolor="#ffffff"
     bordercolor="#666666"
     borderopacity="1.0"
     inkscape:pageopacity="0.0"
     inkscape:pageshadow="2"
     inkscape:zoom="3.959798"
     inkscape:cx="113.58305"
     inkscape:cy="24.283128"
     inkscape:document-units="mm"
     inkscape:current-layer="layer1"
     showgrid="false"
     inkscape:window-width="956"
     inkscape:window-height="1040"
     inkscape:window-x="960"
     inkscape:window-y="38"
     inkscape:window-maximized="0"
     inkscape:snap-global="false"
     inkscape:snap-bbox="false"
     inkscape:snap-to-guides="true"
     inkscape:snap-page="true"
     inkscape:pagecheckerboard="true"
     fit-margin-top="0"
     fit-margin-left="0"
     fit-margin-right="0"
     fit-margin-bottom="0" />
  <metadata
     id="metadata6321">
    <rdf:RDF>
      <cc:Work
         rdf:about="">
        <dc:format>image/svg+xml</dc:format>
        <dc:type
           rdf:resource="http://purl.org/dc/dcmitype/StillImage" />
        <dc:title></dc:title>
      </cc:Work>
    </rdf:RDF>
  </metadata>
  <g
     inkscape:label="Layer 1"
     inkscape:groupmode="layer"
     id="layer1"
     transform="translate(-0.09551141,0.00991)">
    <g
       id="g6950">
      <path
         inkscape:connector-curvature="0"
         id="path6850"
         d="m 2.1789451,1.2635535 10.3566939,-0.016704 1.887592,3.3909819 -0.06682,3.3241652 -0.451018,0.6013564 0.551244,0.5178345 -0.06682,2.2884955 -0.3842,0.50113 c 0,0 0.417609,0.851922 0.417609,0.751695 0,-0.100226 0,2.3052 0,2.3052 l -0.868621,0.334087 -12.69530315,0.08352 -0.56794771,-0.751696 -0.016704,-2.088043 0.4510173,-0.584652 -0.3841999,-0.651469 0.033409,-2.3553134 0.3340869,-0.4510172 -0.5011304,-0.7182869 0.083522,-3.1571213 1.52009536,-3.090304 z"
         style="fill:#ffffff;stroke:none;stroke-width:0.26458332px;stroke-linecap:butt;stroke-linejoin:miter;stroke-opacity:1" />
      <path
         style="fill:#000000;stroke-width:0.01128889"
         d="M 1.027076,15.55444 C 0.762776,15.50664 0.504847,15.35415 0.341486,15.14915 0.251526,15.03625 0.155545,14.8441 0.121217,14.70816 l -0.02566,-0.1016 V 13.5962 c 0,-0.9216 0.0017,-1.01703 0.01956,-1.08641 0.05191,-0.20183 0.146331,-0.37722 0.280347,-0.52072 l 0.0805,-0.0862 -0.0805,-0.0862 c -0.134016,-0.1435 -0.228441,-0.31889 -0.280347,-0.52072 -0.01784,-0.0694 -0.01956,-0.16481 -0.01956,-1.08641 0,-0.92161 0.0017,-1.01704 0.01956,-1.08642 C 0.167027,8.92129 0.261448,8.74591 0.395464,8.6024 L 0.475964,8.5162 0.395464,8.43 C 0.261448,8.2865 0.167023,8.11111 0.115117,7.90928 0.097017,7.83888 0.095557,7.71486 0.095557,6.24714 c 0,-1.75128 -0.0043,-1.63817 0.07062,-1.86831 0.03653,-0.11226 1.404415,-2.85444 1.486646,-2.98027 0.17215,-0.26342 0.462327,-0.44623 0.77799,-0.49014 0.124074,-0.0173 9.869673,-0.0173 9.993747,0 0.315663,0.0439 0.60584,0.22672 0.777989,0.49014 0.08223,0.12583 1.450112,2.86801 1.486647,2.98027 0.0749,0.23014 0.07062,0.11703 0.07062,1.86831 0,1.46772 -0.0015,1.59176 -0.01956,1.66214 C 14.688346,8.11111 14.593925,8.2865 14.459909,8.43 l -0.0805,0.0862 0.0805,0.0862 c 0.134016,0.14351 0.228442,0.31889 0.280347,0.52072 0.01784,0.0694 0.01956,0.16481 0.01956,1.08642 0,0.9216 -0.0017,1.01703 -0.01956,1.08641 -0.05192,0.2019 -0.14633,0.37722 -0.280473,0.52086 l -0.08063,0.0863 0.07625,0.0808 c 0.132575,0.14053 0.222843,0.30335 0.279394,0.50394 0.02403,0.0852 0.02449,0.10238 0.02813,1.04621 0.0025,0.65589 -2.48e-4,0.98943 -0.0088,1.05398 -0.06436,0.48757 -0.444397,0.8815 -0.932556,0.96663 -0.08635,0.0151 -0.82941,0.0169 -6.403869,0.016 -5.250405,-8.5e-4 -6.320333,-0.004 -6.390673,-0.0163 z m 12.724663,-0.5596 c 0.210768,-0.044 0.39286,-0.22605 0.436814,-0.43681 0.01739,-0.0834 0.01739,-1.84026 0,-1.92365 -0.04412,-0.21156 -0.225254,-0.39269 -0.436814,-0.43681 -0.08524,-0.0178 -12.562848,-0.0178 -12.648089,0 -0.21156,0.0441 -0.392696,0.22525 -0.436814,0.43681 -0.01739,0.0834 -0.01739,1.84026 0,1.92365 0.04288,0.20563 0.215546,0.38356 0.42043,0.43326 0.07945,0.0193 12.572294,0.0228 12.664473,0.004 z m -1.639155,-0.55866 c -0.197618,-0.0362 -0.333361,-0.10349 -0.469623,-0.23292 -0.176481,-0.16764 -0.258273,-0.35989 -0.258273,-0.60706 0,-0.0734 0.0068,-0.15646 0.0156,-0.1911 0.107609,-0.42269 0.504239,-0.7007 0.92396,-0.64764 0.3314,0.0419 0.594032,0.25867 0.70528,0.58213 0.03335,0.097 0.03584,0.11482 0.03584,0.25661 0,0.14152 -0.0025,0.15978 -0.03553,0.25567 -0.04932,0.14338 -0.116492,0.25035 -0.218389,0.34781 -0.11486,0.10986 -0.236923,0.17913 -0.388429,0.22043 -0.04885,0.0133 -0.264483,0.0245 -0.310444,0.0161 z m 0.26511,-0.52353 c 0.216975,-0.10608 0.265769,-0.39409 0.0956,-0.56426 -0.219784,-0.21979 -0.597774,-0.0637 -0.597774,0.24682 0,0.15176 0.08932,0.2792 0.234387,0.33442 0.06584,0.0251 0.19908,0.0166 0.26779,-0.017 z M 1.964838,14.14126 c -0.06664,-0.0235 -0.139488,-0.0981 -0.162892,-0.16683 -0.02766,-0.0812 -0.02766,-0.67526 0,-0.75645 0.03548,-0.10412 0.151657,-0.18622 0.263526,-0.18622 0.11187,0 0.228048,0.0821 0.263526,0.18622 0.02766,0.0812 0.02766,0.67526 0,0.75645 -0.04886,0.14341 -0.215001,0.21952 -0.36416,0.16683 z m 1.411111,0 c -0.06664,-0.0235 -0.139487,-0.0981 -0.162891,-0.16683 -0.02766,-0.0812 -0.02766,-0.67526 0,-0.75645 0.03548,-0.10412 0.151656,-0.18622 0.263525,-0.18622 0.11187,0 0.228048,0.0821 0.263526,0.18622 0.02766,0.0812 0.02766,0.67526 0,0.75645 -0.04886,0.14341 -0.215001,0.21952 -0.36416,0.16683 z m 1.411111,0 c -0.06664,-0.0235 -0.139487,-0.0981 -0.162891,-0.16683 -0.02766,-0.0812 -0.02766,-0.67526 0,-0.75645 0.03548,-0.10412 0.151656,-0.18622 0.263525,-0.18622 0.11187,0 0.228048,0.0821 0.263526,0.18622 0.02766,0.0812 0.02766,0.67526 0,0.75645 -0.04886,0.14341 -0.215,0.21952 -0.36416,0.16683 z m 1.411111,0 c -0.06664,-0.0235 -0.139487,-0.0981 -0.162891,-0.16683 -0.02766,-0.0812 -0.02766,-0.67526 0,-0.75645 0.03548,-0.10412 0.151656,-0.18622 0.263526,-0.18622 0.111869,0 0.228048,0.0821 0.263525,0.18622 0.02766,0.0812 0.02766,0.67526 0,0.75645 -0.04886,0.14341 -0.215,0.21952 -0.36416,0.16683 z m 1.411111,0 c -0.06664,-0.0235 -0.139487,-0.0981 -0.162891,-0.16683 -0.02766,-0.0812 -0.02766,-0.67526 0,-0.75645 0.03548,-0.10412 0.151656,-0.18622 0.263526,-0.18622 0.111869,0 0.228048,0.0821 0.263525,0.18622 0.02766,0.0812 0.02766,0.67526 0,0.75645 -0.04886,0.14341 -0.215,0.21952 -0.36416,0.16683 z m 1.128889,-0.28222 c -0.09959,-0.0352 -0.181588,-0.15387 -0.181588,-0.26284 0,-0.0682 0.03368,-0.14716 0.08437,-0.19785 0.0879,-0.0879 0.04422,-0.0844 1.044519,-0.0844 1.000304,0 0.956622,-0.004 1.04452,0.0844 0.110423,0.11042 0.110423,0.28528 0,0.39571 -0.08803,0.088 -0.04339,0.0845 -1.049353,0.0835 -0.778138,-7.8e-4 -0.899025,-0.003 -0.942468,-0.0185 z m 5.013568,-2.25087 c 0.210768,-0.0439 0.39286,-0.22604 0.436814,-0.43681 0.01739,-0.0834 0.01739,-1.84026 0,-1.92365 C 14.144433,9.03615 13.963299,8.85502 13.751739,8.8109 13.666499,8.7931 1.188891,8.7931 1.10365,8.8109 0.89209,8.855 0.710954,9.03615 0.666836,9.24771 c -0.01739,0.0834 -0.01739,1.84026 0,1.92365 0.04288,0.20563 0.215546,0.38356 0.42043,0.43326 0.07945,0.0193 12.572294,0.0228 12.664473,0.004 z m -1.639155,-0.55866 c -0.197618,-0.0362 -0.333361,-0.10348 -0.469623,-0.23292 -0.176481,-0.16764 -0.258273,-0.35988 -0.258273,-0.60705 0,-0.0734 0.0068,-0.15647 0.0156,-0.19111 0.107609,-0.42268 0.504239,-0.7007 0.92396,-0.64763 0.3314,0.0419 0.594032,0.25867 0.70528,0.58213 0.03335,0.0969 0.03584,0.11482 0.03584,0.25661 0,0.14151 -0.0025,0.15977 -0.03553,0.25567 -0.04932,0.14337 -0.116492,0.25034 -0.218389,0.3478 -0.11486,0.10986 -0.236923,0.17913 -0.388429,0.22044 -0.04885,0.0133 -0.264483,0.0245 -0.310444,0.0161 z m 0.254,-0.53381 c 0.08343,-0.04 0.130763,-0.0886 0.170125,-0.17478 0.05874,-0.12854 0.02083,-0.29014 -0.09119,-0.38875 -0.08977,-0.079 -0.220049,-0.10296 -0.339387,-0.0624 -0.07566,0.0257 -0.174673,0.12474 -0.200402,0.2004 -0.09785,0.28775 0.191353,0.55477 0.460859,0.42551 z M 1.964838,10.7546 C 1.898198,10.7311 1.82535,10.6564 1.801946,10.58776 c -0.02766,-0.0812 -0.02766,-0.67526 0,-0.75645 0.03548,-0.10412 0.151657,-0.18622 0.263526,-0.18622 0.11187,0 0.228048,0.0821 0.263526,0.18622 0.02766,0.0812 0.02766,0.67526 0,0.75645 -0.04886,0.14341 -0.215001,0.21952 -0.36416,0.16684 z m 1.411111,0 c -0.06664,-0.0235 -0.139487,-0.0982 -0.162891,-0.16684 -0.02766,-0.0812 -0.02766,-0.67526 0,-0.75645 0.03548,-0.10412 0.151656,-0.18622 0.263525,-0.18622 0.11187,0 0.228048,0.0821 0.263526,0.18622 0.02766,0.0812 0.02766,0.67526 0,0.75645 -0.04886,0.14341 -0.215001,0.21952 -0.36416,0.16684 z m 1.411111,0 C 4.72042,10.7311 4.647573,10.6564 4.624169,10.58776 c -0.02766,-0.0812 -0.02766,-0.67526 0,-0.75645 0.03548,-0.10412 0.151656,-0.18622 0.263525,-0.18622 0.11187,0 0.228048,0.0821 0.263526,0.18622 0.02766,0.0812 0.02766,0.67526 0,0.75645 -0.04886,0.14341 -0.215,0.21952 -0.36416,0.16684 z m 1.411111,0 C 6.131531,10.7311 6.058684,10.6564 6.03528,10.58776 6.00762,10.50656 6.00762,9.9125 6.03528,9.83131 6.07076,9.72719 6.186936,9.64509 6.298806,9.64509 c 0.111869,0 0.228048,0.0821 0.263525,0.18622 0.02766,0.0812 0.02766,0.67526 0,0.75645 -0.04886,0.14341 -0.215,0.21952 -0.36416,0.16684 z m 1.411111,0 c -0.06664,-0.0235 -0.139487,-0.0982 -0.162891,-0.16684 -0.02766,-0.0812 -0.02766,-0.67526 0,-0.75645 0.03548,-0.10412 0.151656,-0.18622 0.263526,-0.18622 0.111869,0 0.228048,0.0821 0.263525,0.18622 0.02766,0.0812 0.02766,0.67526 0,0.75645 -0.04886,0.14341 -0.215,0.21952 -0.36416,0.16684 z m 1.128889,-0.28222 c -0.09959,-0.0352 -0.181588,-0.15387 -0.181588,-0.26284 0,-0.0682 0.03368,-0.14716 0.08437,-0.19786 0.0879,-0.0879 0.04422,-0.0844 1.044519,-0.0844 1.000304,0 0.956622,-0.004 1.04452,0.0844 0.110423,0.11043 0.110423,0.28529 0,0.39571 -0.08803,0.088 -0.04339,0.0845 -1.049353,0.0835 -0.778138,-7.8e-4 -0.899025,-0.003 -0.942468,-0.0185 z m 5.013568,-2.25087 c 0.210768,-0.044 0.39286,-0.22605 0.436814,-0.43682 0.0086,-0.0414 0.01247,-0.41563 0.01247,-1.21638 V 5.41176 H 7.42769 0.654356 v 1.15655 c 0,0.80075 0.0038,1.17496 0.01247,1.21638 0.04288,0.20563 0.215546,0.38357 0.42043,0.43326 0.07945,0.0193 12.572294,0.0228 12.664473,0.004 z M 12.112584,7.66285 C 11.914966,7.62665 11.779223,7.55936 11.642961,7.42993 11.46648,7.26229 11.384688,7.07004 11.384688,6.82287 c 0,-0.0734 0.0068,-0.15646 0.0156,-0.1911 0.107609,-0.42269 0.504239,-0.7007 0.92396,-0.64764 0.3314,0.0419 0.594032,0.25867 0.70528,0.58213 0.03335,0.097 0.03584,0.11482 0.03584,0.25661 0,0.14151 -0.0025,0.15978 -0.03553,0.25567 -0.04932,0.14338 -0.116492,0.25035 -0.218389,0.34781 -0.11486,0.10985 -0.236923,0.17912 -0.388429,0.22043 -0.04885,0.0133 -0.264483,0.0245 -0.310444,0.0161 z m 0.248355,-0.53033 c 0.07726,-0.0358 0.128749,-0.0842 0.167248,-0.15725 0.0253,-0.048 0.02981,-0.0708 0.03004,-0.1524 3.27e-4,-0.11659 -0.02701,-0.17996 -0.109723,-0.25433 -0.134862,-0.12125 -0.330215,-0.11429 -0.460932,0.0164 -0.07222,0.0722 -0.100733,0.13926 -0.100819,0.23709 -2.14e-4,0.24379 0.256104,0.41161 0.474189,0.31046 z M 1.964838,7.36793 C 1.898198,7.34443 1.82535,7.26973 1.801946,7.2011 c -0.02766,-0.0812 -0.02766,-0.67526 0,-0.75646 0.03548,-0.10412 0.151657,-0.18621 0.263526,-0.18621 0.11187,0 0.228048,0.0821 0.263526,0.18621 0.02766,0.0812 0.02766,0.67527 0,0.75646 -0.04886,0.1434 -0.215001,0.21951 -0.36416,0.16683 z m 1.411111,0 C 3.309309,7.34443 3.236462,7.26973 3.213058,7.2011 c -0.02766,-0.0812 -0.02766,-0.67526 0,-0.75646 0.03548,-0.10412 0.151656,-0.18621 0.263525,-0.18621 0.11187,0 0.228048,0.0821 0.263526,0.18621 0.02766,0.0812 0.02766,0.67527 0,0.75646 -0.04886,0.1434 -0.215001,0.21951 -0.36416,0.16683 z m 1.411111,0 C 4.72042,7.34443 4.647573,7.26973 4.624169,7.2011 c -0.02766,-0.0812 -0.02766,-0.67526 0,-0.75646 0.03548,-0.10412 0.151656,-0.18621 0.263525,-0.18621 0.11187,0 0.228048,0.0821 0.263526,0.18621 0.02766,0.0812 0.02766,0.67527 0,0.75646 -0.04886,0.1434 -0.215,0.21951 -0.36416,0.16683 z m 1.411111,0 C 6.131531,7.34443 6.058684,7.26973 6.03528,7.2011 6.00762,7.1199 6.00762,6.52584 6.03528,6.44464 6.07076,6.34052 6.186936,6.25843 6.298806,6.25843 c 0.111869,0 0.228048,0.0821 0.263525,0.18621 0.02766,0.0812 0.02766,0.67527 0,0.75646 -0.04886,0.1434 -0.215,0.21951 -0.36416,0.16683 z m 1.411111,0 C 7.542642,7.34443 7.469795,7.26973 7.446391,7.2011 c -0.02766,-0.0812 -0.02766,-0.67526 0,-0.75646 0.03548,-0.10412 0.151656,-0.18621 0.263526,-0.18621 0.111869,0 0.228048,0.0821 0.263525,0.18621 0.02766,0.0812 0.02766,0.67527 0,0.75646 -0.04886,0.1434 -0.215,0.21951 -0.36416,0.16683 z M 8.738171,7.08571 C 8.638581,7.05051 8.556583,6.93184 8.556583,6.82287 c 0,-0.0682 0.03368,-0.14716 0.08437,-0.19785 0.0879,-0.0879 0.04422,-0.0844 1.044519,-0.0844 1.000304,0 0.956622,-0.004 1.04452,0.0844 0.110423,0.11042 0.110423,0.28528 0,0.3957 -0.08803,0.088 -0.04339,0.0845 -1.049353,0.0835 -0.778138,-7.8e-4 -0.899025,-0.003 -0.942468,-0.0185 z m 5.459123,-2.32024 c -0.0039,-0.045 -0.01465,-0.11232 -0.02393,-0.14958 -0.01082,-0.0434 -0.272798,-0.58033 -0.728673,-1.49345 -0.707285,-1.4167 -0.712232,-1.42616 -0.782166,-1.49578 -0.07653,-0.0762 -0.156714,-0.12176 -0.26162,-0.14872 -0.05992,-0.0154 -0.604123,-0.0173 -4.973206,-0.0173 -4.367368,0 -4.91331,0.002 -4.973207,0.0173 -0.105665,0.0271 -0.182999,0.0705 -0.259306,0.14528 -0.07045,0.0691 -0.07097,0.0701 -0.78338,1.49704 -0.45661,0.91459 -0.718958,1.45227 -0.729774,1.49565 -0.0093,0.0373 -0.02006,0.10457 -0.02393,0.14958 l -0.007,0.0818 h 6.776647 6.776646 z M 2.529282,2.57015 C 2.429692,2.53495 2.347694,2.41629 2.347694,2.30731 c 0,-0.11186 0.0821,-0.22804 0.186218,-0.26352 0.05064,-0.0172 0.341209,-0.0187 3.764894,-0.0187 4.162202,0 3.773899,-0.008 3.866741,0.0844 0.110423,0.11042 0.110423,0.28528 0,0.39571 -0.09287,0.0929 0.296351,0.0845 -3.871575,0.0835 -3.334478,-8e-4 -3.719958,-0.003 -3.76469,-0.0185 z m 8.466667,0 c -0.09958,-0.0352 -0.181588,-0.15386 -0.181588,-0.26284 0,-0.0682 0.03368,-0.14716 0.08437,-0.19785 0.08526,-0.0853 0.07721,-0.0844 0.762297,-0.0844 0.685092,0 0.677035,-8.9e-4 0.762297,0.0844 0.110423,0.11042 0.110423,0.28528 0,0.39571 -0.08547,0.0855 -0.07642,0.0845 -0.76713,0.0835 -0.522471,-7.7e-4 -0.617591,-0.003 -0.660246,-0.0185 z"
         id="path5756"
         inkscape:connector-curvature="0" />
    </g>
    <g
       id="g6954">
      <path
         inkscape:connector-curvature="0"
         id="path6856"
         d="m 32.598043,3.2728032 0.09449,10.2289808 0.708705,0.968564 2.315104,1.110305 3.189174,0.519717 3.614396,-0.09449 2.787576,-0.47247 1.700895,-0.826823 0.921313,-0.732329 0.496097,-0.755952 -0.04724,-10.134491 -0.87407,-1.1575522 -2.385975,-1.08668147 -2.59859,-0.4960937 -3.023806,0.07087 -2.433222,0.1181176 -2.763951,0.87406987 -1.299292,1.110305 z"
         style="fill:#ffffff;stroke:none;stroke-width:0.26458332px;stroke-linecap:butt;stroke-linejoin:miter;stroke-opacity:1" />
      <path
         style="fill:#000000;stroke-width:0.03926405"
         d="m 39.940821,16.42313 c -0.08635,-0.006 -0.439749,-0.0311 -0.785274,-0.0539 C 37.309633,16.24738 35.624165,15.85177 34.351778,15.2417 33.508657,14.83745 32.775892,14.20086 32.532303,13.66104 32.356345,13.27109 32.362854,13.48164 32.362854,8.1837 V 3.1579 l 0.113825,-0.27485 c 0.147142,-0.3553 0.270601,-0.53019 0.599489,-0.8492 1.308743,-1.26948 4.154847,-2.04376 7.512516,-2.04376 4.26589,0 7.65093,1.26458 8.16942,3.05192 0.0477,0.16445 0.0564,0.96297 0.0564,5.18096 0,5.60448 0.0216,5.191 -0.29577,5.66626 -0.67512,1.011 -2.25085,1.7958 -4.4748,2.22872 -1.13894,0.2217 -3.211233,0.37584 -4.103103,0.3052 z m 1.459383,-0.6433 c 2.37871,-0.10804 4.07903,-0.50614 5.55048,-1.29957 0.45393,-0.24476 0.9678,-0.74053 1.13405,-1.09409 0.0989,-0.21032 0.10192,-0.24039 0.1145,-1.15123 0.008,-0.5144 0.003,-0.96193 -0.01,-0.99449 -0.0176,-0.046 -0.0688,-0.0203 -0.22891,0.11509 -0.3917,0.33115 -0.86015,0.61712 -1.01093,0.61712 -0.1123,0 -0.27502,-0.17127 -0.27502,-0.28948 0,-0.17242 0.045,-0.22416 0.38582,-0.44405 0.45887,-0.29603 0.67756,-0.48781 0.87145,-0.7642 0.24555,-0.35005 0.27302,-0.50363 0.27356,-1.52887 2.8e-4,-0.48769 -0.0116,-0.89881 -0.0264,-0.91358 -0.0148,-0.0148 -0.0811,0.0247 -0.14724,0.0879 -0.38424,0.36612 -1.28648,0.87304 -2.02468,1.13757 -1.55058,0.55565 -3.3316,0.82858 -5.41343,0.8296 -3.034323,10e-4 -5.679261,-0.63613 -7.138884,-1.72097 -0.168665,-0.12536 -0.330757,-0.25734 -0.360196,-0.29329 -0.02943,-0.036 -0.06917,-0.0556 -0.08839,-0.0438 -0.05972,0.037 -0.04167,1.77417 0.02094,2.00935 0.225256,0.84614 1.573308,1.66702 3.523943,2.14586 0.668517,0.16412 1.996482,0.37704 2.351447,0.37704 0.33617,0 0.52174,0.36184 0.282383,0.55063 -0.09999,0.0788 -0.135553,0.0831 -0.480981,0.0583 -0.644487,-0.0463 -1.648411,-0.2134 -2.375484,-0.3953 -1.278294,-0.31982 -2.4031,-0.83002 -3.05905,-1.38757 -0.127627,-0.10848 -0.246887,-0.18805 -0.265027,-0.17684 -0.01815,0.0112 -0.03276,0.41248 -0.03254,0.8917 6.23e-4,1.1511 0.04049,1.30446 0.455741,1.75298 0.954648,1.03114 3.418087,1.79455 6.199058,1.92106 0.388712,0.0177 0.745063,0.0348 0.79189,0.038 0.04683,0.003 0.488542,-0.0125 0.98161,-0.0348 z m -0.971979,-2.56178 c -0.121967,-0.0936 -0.153661,-0.22077 -0.153661,-0.61636 0,-0.36917 0.0064,-0.40377 0.09634,-0.49339 0.06079,-0.0608 0.141234,-0.0963 0.217737,-0.0963 0.07647,0 0.15698,0.0357 0.217738,0.0963 0.08957,0.0896 0.09634,0.12422 0.09634,0.49339 0,0.49869 -0.0783,0.66419 -0.31411,0.66419 -0.05402,0 -0.126198,-0.0215 -0.160459,-0.0478 z m 1.537529,-0.10386 c -0.0965,-0.0966 -0.13745,-0.36987 -0.10794,-0.7219 0.0281,-0.33572 0.10558,-0.43736 0.32861,-0.43104 0.24478,0.006 0.28693,0.0983 0.28693,0.62155 0,0.43326 -0.002,0.44636 -0.10343,0.52571 -0.12969,0.10203 -0.30534,0.1045 -0.40414,0.005 z m 1.65806,-0.18013 c -0.0648,-0.0273 -0.12932,-0.0795 -0.14335,-0.11602 -0.0141,-0.0365 -0.0256,-0.25631 -0.0256,-0.48833 0,-0.39018 0.006,-0.42825 0.0909,-0.50722 0.0962,-0.0904 0.25962,-0.11069 0.37875,-0.0469 0.10622,0.0568 0.15861,0.25034 0.15855,0.58583 -1.2e-4,0.48687 -0.16737,0.69542 -0.45931,0.57267 z m 1.57305,-0.33979 c -0.13249,-0.0641 -0.17135,-0.2043 -0.17135,-0.61812 0,-0.33054 0.0116,-0.40024 0.0814,-0.48895 0.10931,-0.13895 0.31537,-0.14219 0.45047,-0.008 0.0906,0.0906 0.0963,0.12174 0.0952,0.52025 -10e-4,0.44048 -0.0222,0.50872 -0.18267,0.59414 -0.10192,0.0543 -0.16039,0.0542 -0.27295,-2.3e-4 z m -2.95909,-3.19303 c 0.7059,-0.0592 0.92304,-0.0882 1.66872,-0.22346 1.00079,-0.18151 2.05803,-0.51716 2.78301,-0.88354 0.62945,-0.31809 1.2044,-0.8214 1.38937,-1.21624 0.10644,-0.22712 0.10752,-0.23817 0.12034,-1.18615 0.008,-0.59019 -0.002,-0.97163 -0.0256,-0.99534 -0.0251,-0.0251 -0.0637,-0.0132 -0.1111,0.0341 -0.3736,0.37352 -1.16143,0.82478 -1.9573,1.12113 -1.60761,0.59859 -3.30877,0.8631 -5.536225,0.86081 -1.561064,-0.001 -2.61772,-0.10612 -3.86752,-0.38252 -1.506171,-0.3331 -2.903339,-0.94988 -3.538936,-1.56227 -0.0784,-0.0756 -0.153522,-0.12646 -0.166872,-0.11311 -0.01332,0.0133 -0.02406,0.42329 -0.02384,0.91098 4.83e-4,0.90914 0.02674,1.12022 0.174905,1.40693 0.121118,0.23435 0.458749,0.55902 0.860187,0.82716 1.071556,0.71573 2.824065,1.21709 4.893322,1.3999 0.797958,0.0705 2.504929,0.0713 3.337449,10e-4 z M 42.394834,6.223 c 2.49669,-0.24091 4.4381,-0.91183 5.33188,-1.84261 0.59735,-0.62209 0.60373,-1.22375 0.0194,-1.83632 C 46.816604,1.56954 44.658784,0.85361 42.073844,0.6621 40.418583,0.53946 38.497323,0.6465 37.037532,0.94269 34.640661,1.429 32.997574,2.44973 32.997574,3.45241 c 0,0.55689 0.519742,1.14989 1.446229,1.65007 0.508691,0.27462 1.642078,0.66668 2.355843,0.81492 0.854173,0.17741 1.426976,0.26071 2.218418,0.32261 0.291545,0.0228 0.609574,0.048 0.706752,0.0562 0.366093,0.0304 2.084958,-0.0166 2.669968,-0.0731 z M 36.640848,2.17811 c -0.160577,-0.16058 -0.116005,-0.40489 0.08861,-0.48588 0.306827,-0.12144 1.337108,-0.29333 2.288434,-0.38178 0.968943,-0.0901 2.839502,-0.0701 2.995252,0.032 0.18156,0.11903 0.19236,0.41231 0.0186,0.5053 -0.0626,0.0335 -0.40335,0.0445 -1.206902,0.039 -1.479772,-0.0107 -2.309961,0.0598 -3.475899,0.29332 -0.58166,0.1165 -0.589726,0.11648 -0.708126,-0.002 z m 7.057676,-0.0212 c -0.59064,-0.12351 -0.67547,-0.17326 -0.67547,-0.39612 0,-0.22151 0.1461,-0.32467 0.41095,-0.29018 0.27356,0.0357 0.88157,0.16823 1.01387,0.22114 0.20471,0.0818 0.24916,0.32579 0.0886,0.48633 -0.11914,0.11914 -0.17358,0.11777 -0.83798,-0.0212 z"
         id="path5766"
         inkscape:connector-curvature="0" />
    </g>
    <g
       id="g6994">
      <path
         inkscape:connector-curvature="0"
         id="path6975"
         d="m 23.222677,10.635707 0.03341,2.990077 0.175396,0.100226 5.487378,0.0084 0.1921,-0.158691 -0.0084,-2.42213 V 7.9630113 l -1.511744,-1.4449259 -2.196621,0.016703 z"
         style="fill:#ffffff;stroke:none;stroke-width:0.26458332px;stroke-linecap:butt;stroke-linejoin:miter;stroke-opacity:1" />
      <path
         d="m 88.158684,169.0352 c 0.0783,-0.034 0.16405,-0.10258 0.19067,-0.15232 0.0537,-0.10043 0.0712,-5.39991 0.0186,-5.66268 -0.043,-0.21479 -1.36742,-1.53925 -1.58221,-1.58221 -0.26104,-0.0522 -4.21641,-0.0351 -4.31689,0.0187 -0.21695,0.11611 -0.21757,0.12662 -0.21757,3.67529 0,3.69604 -0.009,3.57856 0.28856,3.70295 0.22652,0.0946 5.4013,0.0949 5.61883,2.7e-4 z m -5.61257,-0.22942 c -0.0628,-0.0628 -0.0705,-0.43763 -0.0705,-3.45091 0,-1.85923 0.0123,-3.41235 0.0272,-3.45138 0.0243,-0.0632 0.24613,-0.071 2.04135,-0.071 h 2.01411 v 0.58468 c 0,0.96638 0.0641,1.03044 1.03044,1.03044 h 0.58469 v 2.68815 c 0,2.10853 -0.0121,2.69302 -0.0561,2.71077 -0.0308,0.0124 -1.28112,0.0242 -2.7784,0.0262 -2.4181,0.003 -2.7302,-0.004 -2.79283,-0.067 z m 5.28335,-0.31833 c 0.048,-0.048 0.0344,-0.36578 -0.0169,-0.39752 -0.075,-0.0463 -0.17749,0.069 -0.17749,0.19963 0,0.16152 0.11437,0.27794 0.19441,0.19789 z m -0.67297,0 c 0.048,-0.048 0.0344,-0.36578 -0.0169,-0.39752 -0.075,-0.0463 -0.17749,0.069 -0.17749,0.19963 0,0.16152 0.11437,0.27794 0.19441,0.19789 z m -0.67297,0 c 0.048,-0.048 0.0344,-0.36578 -0.0169,-0.39752 -0.075,-0.0463 -0.17749,0.069 -0.17749,0.19963 0,0.16152 0.11437,0.27794 0.19441,0.19789 z m -0.67297,0 c 0.048,-0.048 0.0344,-0.36578 -0.0169,-0.39752 -0.075,-0.0463 -0.17749,0.069 -0.17749,0.19963 0,0.16152 0.11437,0.27794 0.19441,0.19789 z m -0.67297,0 c 0.048,-0.048 0.0344,-0.36578 -0.0169,-0.39752 -0.075,-0.0463 -0.17749,0.069 -0.17749,0.19963 0,0.16152 0.11437,0.27794 0.19441,0.19789 z m -0.67297,0 c 0.048,-0.048 0.0344,-0.36578 -0.0169,-0.39752 -0.075,-0.0463 -0.17749,0.069 -0.17749,0.19963 0,0.16152 0.11437,0.27794 0.19441,0.19789 z m -0.67297,0 c 0.048,-0.048 0.0344,-0.36578 -0.0169,-0.39752 -0.075,-0.0463 -0.17749,0.069 -0.17749,0.19963 0,0.16152 0.11437,0.27794 0.19441,0.19789 z m -0.67297,0 c 0.048,-0.048 0.0344,-0.36578 -0.0169,-0.39752 -0.075,-0.0463 -0.17749,0.069 -0.17749,0.19963 0,0.16152 0.11437,0.27794 0.19441,0.19789 z m 3.73445,-5.33462 c -0.0565,-0.0565 -0.0704,-0.17934 -0.0698,-0.61689 3.7e-4,-0.30051 0.0161,-0.57068 0.035,-0.60037 0.0229,-0.036 0.24696,0.15751 0.67232,0.58057 0.44121,0.43881 0.62071,0.64554 0.58189,0.67018 -0.0309,0.0196 -0.30199,0.0359 -0.60251,0.0363 -0.43755,5.5e-4 -0.56043,-0.0134 -0.61689,-0.0698 z m -1.16705,4.4849 c -0.10119,-0.1012 -0.18457,-0.14011 -0.30024,-0.14011 -0.19318,0 -0.43647,-0.15478 -0.58147,-0.36994 -0.0992,-0.14728 -0.10618,-0.20547 -0.10618,-0.89097 0,-0.68368 0.007,-0.74386 0.10507,-0.88779 0.23972,-0.35221 0.59146,-0.46008 0.91229,-0.27976 0.33036,0.18567 0.38365,0.34743 0.38365,1.16455 0,0.72495 -0.0317,0.88231 -0.20707,1.02786 -0.10601,0.088 -0.0898,0.18534 0.0391,0.23433 0.14767,0.0561 0.18907,0.1302 0.11959,0.21392 -0.0876,0.10554 -0.2116,0.081 -0.36472,-0.0721 z m -0.004,-0.55682 0.13651,-0.13651 v -0.70769 -0.70769 l -0.13651,-0.13651 c -0.0932,-0.0932 -0.18327,-0.13651 -0.2838,-0.13651 -0.10052,0 -0.19062,0.0433 -0.28379,0.13651 l -0.13651,0.13651 v 0.70769 0.70769 l 0.13651,0.13651 c 0.0932,0.0932 0.18327,0.13651 0.28379,0.13651 0.10053,0 0.19063,-0.0433 0.2838,-0.13651 z m -2.37138,0.3252 c -0.25778,-0.15718 -0.38826,-0.56615 -0.22409,-0.7024 0.1028,-0.0853 0.21015,0.0213 0.21015,0.20864 0,0.20971 0.12225,0.30507 0.39108,0.30507 0.27086,0 0.44953,-0.14849 0.44953,-0.3736 0,-0.18906 -0.14795,-0.3333 -0.52422,-0.51108 -0.56215,-0.26561 -0.72373,-0.59546 -0.49075,-1.00183 0.33401,-0.5826 1.29145,-0.40908 1.29448,0.2346 3.8e-4,0.0803 -0.0308,0.17222 -0.0694,0.20419 -0.1028,0.0853 -0.21015,-0.0213 -0.21015,-0.20863 0,-0.20974 -0.12224,-0.30507 -0.39119,-0.30507 -0.17833,0 -0.24223,0.0236 -0.3349,0.12357 -0.24598,0.26541 -0.11178,0.51472 0.40969,0.76111 0.55283,0.2612 0.73751,0.63491 0.50345,1.01879 -0.19929,0.32686 -0.68739,0.44562 -1.01372,0.24664 z m 3.12434,0.0355 c -0.0406,-0.0406 -0.056,-0.37441 -0.056,-1.20849 0,-0.96744 0.0112,-1.16179 0.0701,-1.2106 0.0559,-0.0464 0.0842,-0.0464 0.1401,0 0.0585,0.0486 0.0701,0.23382 0.0701,1.12654 v 1.06839 h 0.50799 c 0.39457,0 0.52097,0.0156 0.56612,0.0701 0.0464,0.0559 0.0464,0.0842 0,0.1401 -0.0754,0.0908 -1.20926,0.10303 -1.29827,0.014 z"
         style="fill:#000000;stroke-width:0.04486468"
         id="path5839"
         inkscape:connector-curvature="0"
         clip-path="url(#clipPath5819)"
         transform="translate(-59.188777,-155.20696)" />
      <g
         id="g6969">
        <path
           style="fill:#ffffff;stroke:none;stroke-width:0.26458332px;stroke-linecap:butt;stroke-linejoin:miter;stroke-opacity:1"
           d="m 24.758457,6.0579332 h -0.74414 v 1.0984934 z"
           id="path6962"
           inkscape:connector-curvature="0" />
        <path
           style="fill:#ffffff;stroke:none;stroke-width:0.26458332px;stroke-linecap:butt;stroke-linejoin:miter;stroke-opacity:1"
           d="m 21.14406,6.8611325 h 1.937128 l 0.05906,0.1535528 0.02363,1.9961868 -0.118118,0.1653646 -1.759952,-0.035435 -0.141741,-0.094494 z"
           id="path6960"
           inkscape:connector-curvature="0" />
        <path
           style="fill:#ffffff;stroke:none;stroke-width:0.26458332px;stroke-linecap:butt;stroke-linejoin:miter;stroke-opacity:1"
           d="m 18.273804,6.069745 1.81901,-0.035435 0.188988,0.1653646 V 8.219485 l -0.236235,0.1181174 -1.677269,0.023625 -0.212612,-0.2480468 0.04725,-1.9016927 z"
           id="path6958"
           inkscape:connector-curvature="0" />
        <path
           style="fill:#ffffff;stroke:none;stroke-width:0.26458332px;stroke-linecap:butt;stroke-linejoin:miter;stroke-opacity:1"
           d="m 20.907825,2.1246185 1.228423,-0.035435 1.228422,0.07087 0.04725,0.9567521 -0.04725,0.9803759 -1.192987,0.07087 -1.252046,-0.035435 -0.09449,-0.9449404 0.02362,-0.8386347 z"
           id="path6956"
           inkscape:connector-curvature="0" />
        <path
           transform="translate(-59.856951,-156.30944)"
           clip-path="url(#clipPath5831)"
           inkscape:connector-curvature="0"
           id="path5841"
           d="m 81.090541,165.53254 c -0.254054,-0.0936 -0.265196,-0.15129 -0.25241,-1.30699 0.01394,-1.26 -0.02261,-1.18504 0.593334,-1.2169 l 0.425626,-0.022 0.01209,-0.668 0.01209,-0.66799 h -1.337128 -1.337128 v 0.28472 0.28472 l 0.361373,6.4e-4 c 0.427346,7.6e-4 0.561671,0.0567 0.632669,0.26331 0.07111,0.20696 0.07111,1.80547 0,2.01328 -0.08502,0.24849 -0.208915,0.28337 -1.059747,0.29831 -0.846406,0.0149 -1.043209,-0.0249 -1.167137,-0.23602 -0.06423,-0.1094 -0.07529,-0.26567 -0.07804,-1.10209 -0.002,-0.62268 0.01262,-0.97462 0.0406,-0.97462 0.02409,0 0.0438,-0.0271 0.0438,-0.0603 0,-0.1283 0.146109,-0.18064 0.565206,-0.20247 l 0.420358,-0.0219 0.02558,-0.29779 c 0.04036,-0.46982 -0.04571,-0.44328 1.519965,-0.46876 l 1.345447,-0.0219 0.01259,-0.40517 0.01259,-0.40518 -0.450623,-0.003 c -0.507139,-0.004 -0.731472,-0.0643 -0.812664,-0.21935 -0.04069,-0.0777 -0.05233,-0.34704 -0.0438,-1.01328 0.01028,-0.80289 0.02062,-0.91644 0.08977,-0.98556 0.07047,-0.0705 0.193079,-0.0792 1.248381,-0.0895 1.298333,-0.0126 1.344721,-0.004 1.436999,0.25231 0.07498,0.20865 0.07515,1.54276 2.19e-4,1.75211 -0.08034,0.22448 -0.22984,0.28173 -0.781672,0.29934 l -0.470877,0.015 v 0.41225 0.41226 l 1.281234,6.4e-4 c 0.929393,4.7e-4 1.310298,0.0155 1.387071,0.0547 0.125062,0.0639 0.214707,0.28745 0.219351,0.54689 l 0.0033,0.18617 0.361374,6.4e-4 c 0.653418,0.001 0.683229,0.0566 0.683229,1.26964 0,0.95432 -0.03231,1.12102 -0.237697,1.22648 -0.182587,0.0937 -1.544357,0.11723 -1.79247,0.0309 -0.278457,-0.0969 -0.287274,-0.13901 -0.274311,-1.31065 0.01394,-1.26001 -0.02261,-1.18505 0.593334,-1.2169 l 0.425625,-0.022 0.014,-0.17104 c 0.0077,-0.0941 0.0024,-0.21727 -0.01179,-0.27377 l -0.02578,-0.10273 h -1.313251 -1.313252 v 0.67894 0.67895 l 0.361374,6.4e-4 c 0.427346,7.6e-4 0.561671,0.0567 0.632669,0.26332 0.0711,0.20695 0.0711,1.80546 0,2.01327 -0.08595,0.25119 -0.206411,0.28396 -1.081648,0.29424 -0.537416,0.006 -0.812377,-0.008 -0.91986,-0.0475 z m 1.770886,-0.22748 c 0.05828,-0.0583 0.06883,-0.21224 0.06883,-1.00388 0,-0.51428 -0.01196,-0.96623 -0.02659,-1.00434 -0.02307,-0.0601 -0.147651,-0.0693 -0.941762,-0.0693 h -0.915173 v 1.04762 c 0,0.79711 0.01309,1.0529 0.05475,1.06971 0.03012,0.0121 0.422932,0.0237 0.872929,0.0255 0.688559,0.003 0.829079,-0.007 0.887007,-0.0654 z m -1.440685,-0.29685 c -0.165765,-0.12121 -0.03355,-0.15995 0.545856,-0.15995 0.579401,0 0.71162,0.0387 0.545856,0.15995 -0.05575,0.0408 -0.22484,0.0591 -0.545856,0.0591 -0.321016,0 -0.490108,-0.0183 -0.545856,-0.0591 z m -1.450303,-0.4916 c 0.05828,-0.0583 0.06883,-0.21224 0.06883,-1.00388 0,-0.51428 -0.01197,-0.96623 -0.02659,-1.00434 -0.02307,-0.0601 -0.14765,-0.0693 -0.941761,-0.0693 h -0.915174 v 1.04762 c 0,0.79711 0.01309,1.0529 0.05475,1.06971 0.03011,0.0122 0.422932,0.0237 0.872928,0.0256 0.688559,0.003 0.829079,-0.007 0.887008,-0.0654 z m -1.440686,-0.29685 c -0.165764,-0.12121 -0.03354,-0.15995 0.545856,-0.15995 0.579401,0 0.711621,0.0387 0.545856,0.15995 -0.05575,0.0408 -0.22484,0.0591 -0.545856,0.0591 -0.321016,0 -0.490107,-0.0183 -0.545856,-0.0591 z m 7.222663,0.29685 c 0.05828,-0.0583 0.06883,-0.21224 0.06883,-1.00388 0,-0.51428 -0.01196,-0.96623 -0.02659,-1.00434 -0.02307,-0.0601 -0.14765,-0.0693 -0.941761,-0.0693 h -0.915174 v 1.04762 c 0,0.79711 0.01309,1.0529 0.05475,1.06971 0.03011,0.0122 0.422932,0.0237 0.872928,0.0256 0.688559,0.003 0.82908,-0.007 0.887008,-0.0654 z m -1.440686,-0.29685 c -0.165764,-0.12121 -0.03355,-0.15995 0.545856,-0.15995 0.579402,0 0.711621,0.0387 0.545856,0.15995 -0.05575,0.0408 -0.22484,0.0591 -0.545856,0.0591 -0.321015,0 -0.490107,-0.0183 -0.545856,-0.0591 z m -1.187485,-3.90823 c 0.05757,-0.0576 0.06883,-0.20029 0.06883,-0.87247 0,-0.442 -0.01196,-0.83482 -0.02659,-0.87293 -0.02333,-0.0608 -0.170813,-0.0693 -1.204579,-0.0693 h -1.17799 v 0.91621 c 0,0.69199 0.0134,0.92162 0.05475,0.93831 0.03011,0.0122 0.5412,0.0237 1.135746,0.0256 0.927427,0.003 1.09077,-0.006 1.149825,-0.0654 z m -1.884855,-0.34312 c -0.03886,-0.10126 4.45e-4,-0.34653 0.05859,-0.36561 0.09111,-0.0299 0.165301,0.19002 0.107156,0.31764 -0.05522,0.12118 -0.129408,0.14265 -0.165741,0.048 z m 0.657043,0 c -0.03886,-0.10126 4.46e-4,-0.34653 0.05859,-0.36561 0.09111,-0.0299 0.165301,0.19002 0.107155,0.31764 -0.05521,0.12118 -0.129407,0.14265 -0.16574,0.048 z m 0.657042,0 c -0.03886,-0.10126 4.47e-4,-0.34653 0.05859,-0.36561 0.09111,-0.0299 0.165301,0.19002 0.107155,0.31764 -0.05521,0.12118 -0.129407,0.14265 -0.165741,0.048 z"
           style="fill:#000000;stroke-width:0.04380286;stroke:none" />
      </g>
      <path
         transform="translate(-74.92427,-178.52622)"
         clip-path="url(#clipPath5849)"
         style="fill:#ffffff;stroke:#000000;stroke-width:0.40000001;stroke-linecap:round;stroke-linejoin:round;stroke-miterlimit:4;stroke-dasharray:none;stroke-opacity:1"
         d="m 102.24508,180.01954 -7.791872,13.93553 2.498813,-1.39064 5.278569,-9.48807 z"
         id="path5837"
         inkscape:connector-curvature="0"
         sodipodi:nodetypes="cc" />
      <path
         style="fill:none;stroke:#000000;stroke-width:0.30000001;stroke-linecap:round;stroke-linejoin:round;stroke-miterlimit:4;stroke-dasharray:none;stroke-opacity:1"
         d="m 25.98447,5.48566 -3.432045,6.16801"
         id="path5845"
         inkscape:connector-curvature="0"
         sodipodi:nodetypes="cc" />
    </g>
  </g>
</svg>
