<?xml version="1.0" encoding="UTF-8" standalone="no"?>
<!-- Created with Inkscape (http://www.inkscape.org/) -->

<svg
   xmlns:dc="http://purl.org/dc/elements/1.1/"
   xmlns:cc="http://creativecommons.org/ns#"
   xmlns:rdf="http://www.w3.org/1999/02/22-rdf-syntax-ns#"
   xmlns:svg="http://www.w3.org/2000/svg"
   xmlns="http://www.w3.org/2000/svg"
   xmlns:sodipodi="http://sodipodi.sourceforge.net/DTD/sodipodi-0.dtd"
   xmlns:inkscape="http://www.inkscape.org/namespaces/inkscape"
   width="48.719311mm"
   height="16.450377mm"
   viewBox="0 0 48.719311 16.450377"
   version="1.1"
   id="svg6324"
   sodipodi:docname="async.svg"
   inkscape:version="0.92.5 (2060ec1f9f, 2020-04-08)">
  <defs
     id="defs6318">
    <clipPath
       clipPathUnits="userSpaceOnUse"
       id="clipPath5849">
      <path
         style="fill:none;stroke:#000000;stroke-width:0.1;stroke-linecap:butt;stroke-linejoin:miter;stroke-miterlimit:4;stroke-dasharray:none;stroke-opacity:1"
         d="m 101.76287,185.04747 -1.30294,-0.0167 -2.372017,4.10927 0.05012,2.52236 -1.503392,1.85419 -2.505649,0.98555 -0.23386,-0.91874 7.065928,-12.72871 1.1526,-1.41987 0.66819,0.3675 -0.0668,3.20723 z"
         id="path5851"
         inkscape:connector-curvature="0" />
    </clipPath>
    <clipPath
       clipPathUnits="userSpaceOnUse"
       id="clipPath5819">
      <path
         style="fill:none;stroke:#000000;stroke-width:0.26458332px;stroke-linecap:butt;stroke-linejoin:miter;stroke-opacity:1"
         d="m 85.125346,161.09344 -3.34087,5.81311 0.334084,2.47225 6.614922,-0.16704 -0.03341,-6.41447 -1.80407,-1.57021 z"
         id="path5821"
         inkscape:connector-curvature="0" />
    </clipPath>
    <clipPath
       clipPathUnits="userSpaceOnUse"
       id="clipPath5831">
      <path
         style="fill:none;stroke:#000000;stroke-width:0.26458332px;stroke-linecap:butt;stroke-linejoin:miter;stroke-opacity:1"
         d="m 85.392612,160.69254 -3.307458,5.91334 -5.278573,-1.26953 2.037927,-8.58604 5.311984,1.50339 z"
         id="path5833"
         inkscape:connector-curvature="0" />
    </clipPath>
    <clipPath
       clipPathUnits="userSpaceOnUse"
       id="clipPath5686">
      <path
         inkscape:connector-curvature="0"
         id="path5688"
         d="m 81.737353,161.6609 -3.118305,5.45704 -3.614396,-1.22843 0.165365,-3.09468 2.244233,-1.29929 0.307104,-2.64583 3.449034,0.37797 -0.07087,2.66946 z"
         style="fill:none;stroke:#000000;stroke-width:0.26458332px;stroke-linecap:butt;stroke-linejoin:miter;stroke-opacity:1"
         sodipodi:nodetypes="ccccccccc" />
    </clipPath>
    <clipPath
       clipPathUnits="userSpaceOnUse"
       id="clipPath5937">
      <rect
         style="fill:none;fill-opacity:0.97254902;stroke:#000000;stroke-width:0.1;stroke-linecap:round;stroke-linejoin:round;stroke-miterlimit:4;stroke-dasharray:none;stroke-dashoffset:0;paint-order:fill markers stroke"
         id="rect5939"
         width="16.111235"
         height="11.622767"
         x="52.160713"
         y="210.63245" />
    </clipPath>
    <clipPath
       clipPathUnits="userSpaceOnUse"
       id="clipPath5933">
      <rect
         style="fill:none;fill-opacity:0.97254902;stroke:#000000;stroke-width:0.1;stroke-linecap:round;stroke-linejoin:round;stroke-miterlimit:4;stroke-dasharray:none;stroke-dashoffset:0;paint-order:fill markers stroke"
         id="rect5935"
         width="16.111235"
         height="11.622767"
         x="52.160713"
         y="210.63245" />
    </clipPath>
    <clipPath
       clipPathUnits="userSpaceOnUse"
       id="clipPath5929">
      <rect
         style="fill:none;fill-opacity:0.97254902;stroke:#000000;stroke-width:0.1;stroke-linecap:round;stroke-linejoin:round;stroke-miterlimit:4;stroke-dasharray:none;stroke-dashoffset:0;paint-order:fill markers stroke"
         id="rect5931"
         width="16.111235"
         height="11.622767"
         x="52.160713"
         y="210.63245" />
    </clipPath>
    <clipPath
       clipPathUnits="userSpaceOnUse"
       id="clipPath5925">
      <rect
         style="fill:none;fill-opacity:0.97254902;stroke:#000000;stroke-width:0.1;stroke-linecap:round;stroke-linejoin:round;stroke-miterlimit:4;stroke-dasharray:none;stroke-dashoffset:0;paint-order:fill markers stroke"
         id="rect5927"
         width="16.111235"
         height="11.622767"
         x="52.160713"
         y="210.63245" />
    </clipPath>
    <clipPath
       clipPathUnits="userSpaceOnUse"
       id="clipPath5921">
      <rect
         style="fill:none;fill-opacity:0.97254902;stroke:#000000;stroke-width:0.1;stroke-linecap:round;stroke-linejoin:round;stroke-miterlimit:4;stroke-dasharray:none;stroke-dashoffset:0;paint-order:fill markers stroke"
         id="rect5923"
         width="16.111235"
         height="11.622767"
         x="52.160713"
         y="210.63245" />
    </clipPath>
    <clipPath
       clipPathUnits="userSpaceOnUse"
       id="clipPath5917">
      <rect
         style="fill:none;fill-opacity:0.97254902;stroke:#000000;stroke-width:0.1;stroke-linecap:round;stroke-linejoin:round;stroke-miterlimit:4;stroke-dasharray:none;stroke-dashoffset:0;paint-order:fill markers stroke"
         id="rect5919"
         width="16.111235"
         height="11.622767"
         x="52.160713"
         y="210.63245" />
    </clipPath>
    <clipPath
       clipPathUnits="userSpaceOnUse"
       id="clipPath5913">
      <rect
         style="fill:none;fill-opacity:0.97254902;stroke:#000000;stroke-width:0.1;stroke-linecap:round;stroke-linejoin:round;stroke-miterlimit:4;stroke-dasharray:none;stroke-dashoffset:0;paint-order:fill markers stroke"
         id="rect5915"
         width="16.111235"
         height="11.622767"
         x="52.160713"
         y="210.63245" />
    </clipPath>
    <clipPath
       clipPathUnits="userSpaceOnUse"
       id="clipPath5909">
      <rect
         style="fill:none;fill-opacity:0.97254902;stroke:#000000;stroke-width:0.1;stroke-linecap:round;stroke-linejoin:round;stroke-miterlimit:4;stroke-dasharray:none;stroke-dashoffset:0;paint-order:fill markers stroke"
         id="rect5911"
         width="16.111235"
         height="11.622767"
         x="52.160713"
         y="210.63245" />
    </clipPath>
    <clipPath
       clipPathUnits="userSpaceOnUse"
       id="clipPath5905">
      <rect
         style="fill:none;fill-opacity:0.97254902;stroke:#000000;stroke-width:0.1;stroke-linecap:round;stroke-linejoin:round;stroke-miterlimit:4;stroke-dasharray:none;stroke-dashoffset:0;paint-order:fill markers stroke"
         id="rect5907"
         width="16.111235"
         height="11.622767"
         x="52.160713"
         y="210.63245" />
    </clipPath>
    <clipPath
       clipPathUnits="userSpaceOnUse"
       id="clipPath5901">
      <rect
         style="fill:none;fill-opacity:0.97254902;stroke:#000000;stroke-width:0.1;stroke-linecap:round;stroke-linejoin:round;stroke-miterlimit:4;stroke-dasharray:none;stroke-dashoffset:0;paint-order:fill markers stroke"
         id="rect5903"
         width="16.111235"
         height="11.622767"
         x="52.160713"
         y="210.63245" />
    </clipPath>
  </defs>
  <sodipodi:namedview
     id="base"
     pagecolor="#ffffff"
     bordercolor="#666666"
     borderopacity="1.0"
     inkscape:pageopacity="0.0"
     inkscape:pageshadow="2"
     inkscape:zoom="3.959798"
     inkscape:cx="90.427249"
     inkscape:cy="35.367221"
     inkscape:document-units="mm"
     inkscape:current-layer="layer1"
     showgrid="false"
     inkscape:window-width="1229"
     inkscape:window-height="1040"
     inkscape:window-x="687"
     inkscape:window-y="38"
     inkscape:window-maximized="0"
     inkscape:snap-global="false"
     inkscape:snap-bbox="false"
     inkscape:snap-to-guides="true"
     inkscape:snap-page="true"
     fit-margin-top="0"
     fit-margin-left="0"
     fit-margin-right="0"
     fit-margin-bottom="0"
     inkscape:pagecheckerboard="true" />
  <metadata
     id="metadata6321">
    <rdf:RDF>
      <cc:Work
         rdf:about="">
        <dc:format>image/svg+xml</dc:format>
        <dc:type
           rdf:resource="http://purl.org/dc/dcmitype/StillImage" />
        <dc:title></dc:title>
      </cc:Work>
    </rdf:RDF>
  </metadata>
  <g
     inkscape:label="Layer 1"
     inkscape:groupmode="layer"
     id="layer1"
     transform="translate(0.03812959,0.07673)">
    <path
       style="fill:#ffffff;stroke:none;stroke-width:0.26458332px;stroke-linecap:butt;stroke-linejoin:miter;stroke-opacity:1"
       d="m 32.58594,3.2153507 0.09449,10.2289803 0.708707,0.968564 2.315102,1.110305 3.189176,0.519717 3.614396,-0.09449 2.787574,-0.47247 1.700895,-0.826823 0.921316,-0.732329 L 48.41369,13.160853 48.366446,3.0263626 47.492377,1.8688104 45.106401,0.78212892 42.507814,0.28603518 39.484005,0.35690573 37.050783,0.47502327 34.286832,1.3490932 32.98754,2.4593982 Z"
       id="path6856"
       inkscape:connector-curvature="0" />
    <g
       id="g6862">
      <path
         inkscape:connector-curvature="0"
         id="path6850"
         d="m 2.166844,1.2061011 10.356694,-0.016704 1.887591,3.3909819 -0.06682,3.3241651 -0.451018,0.6013564 0.551244,0.5178345 -0.06682,2.288495 -0.3842,0.50113 c 0,0 0.417609,0.851922 0.417609,0.751695 0,-0.100226 0,2.3052 0,2.3052 L 13.542503,15.204342 0.84720071,15.287864 0.27925296,14.536168 0.26254862,12.448125 0.71356594,11.863473 0.32936599,11.212004 0.36277469,8.8566912 0.6968616,8.405674 0.19573124,7.6873871 0.27925296,4.5302659 1.7993484,1.4399619 Z"
         style="fill:#ffffff;stroke:none;stroke-width:0.26458332px;stroke-linecap:butt;stroke-linejoin:miter;stroke-opacity:1" />
      <path
         style="fill:#000000;stroke-width:0.01128889"
         d="m 0.893435,15.48758 c -0.2643,-0.0478 -0.522229,-0.20029 -0.68559,-0.40529 -0.08996,-0.1129 -0.185941,-0.30505 -0.220269,-0.44099 l -0.02566,-0.1016 v -1.01036 c 0,-0.9216 0.0017,-1.01703 0.01956,-1.08641 0.05191,-0.20183 0.146331,-0.37722 0.280347,-0.52072 l 0.0805,-0.0862 -0.0805,-0.0862 c -0.134016,-0.1435 -0.228441,-0.31889 -0.280347,-0.52072 -0.01784,-0.0694 -0.01956,-0.16481 -0.01956,-1.08641 0,-0.92161 0.0017,-1.01704 0.01956,-1.08642 0.05191,-0.20183 0.146331,-0.37721 0.280347,-0.52072 l 0.0805,-0.0862 -0.0805,-0.0862 C 0.127807,8.21964 0.033382,8.04425 -0.018524,7.84242 c -0.0181,-0.0704 -0.01956,-0.19442 -0.01956,-1.66214 0,-1.75128 -0.0043,-1.63817 0.07062,-1.86831 0.03653,-0.11226 1.404415,-2.85444 1.486646,-2.98027 0.17215,-0.26342 0.462327,-0.44623 0.77799,-0.49014 0.124074,-0.0173 9.869673,-0.0173 9.993747,0 0.315663,0.0439 0.60584,0.22672 0.777989,0.49014 0.08223,0.12583 1.450112,2.86801 1.486647,2.98027 0.0749,0.23014 0.07062,0.11703 0.07062,1.86831 0,1.46772 -0.0015,1.59176 -0.01956,1.66214 -0.05191,0.20183 -0.146331,0.37722 -0.280347,0.52072 l -0.0805,0.0862 0.0805,0.0862 c 0.134016,0.14351 0.228442,0.31889 0.280347,0.52072 0.01784,0.0694 0.01956,0.16481 0.01956,1.08642 0,0.9216 -0.0017,1.01703 -0.01956,1.08641 -0.05192,0.2019 -0.14633,0.37722 -0.280473,0.52086 l -0.08063,0.0863 0.07625,0.0808 c 0.132575,0.14053 0.222843,0.30335 0.279394,0.50394 0.02403,0.0852 0.02449,0.10238 0.02813,1.04621 0.0025,0.65589 -2.48e-4,0.98943 -0.0088,1.05398 -0.06436,0.48757 -0.444397,0.8815 -0.932556,0.96663 -0.08635,0.0151 -0.82941,0.0169 -6.403869,0.016 -5.250405,-8.5e-4 -6.320333,-0.004 -6.390673,-0.0163 z m 12.724663,-0.5596 c 0.210768,-0.044 0.39286,-0.22605 0.436814,-0.43681 0.01739,-0.0834 0.01739,-1.84026 0,-1.92365 -0.04412,-0.21156 -0.225254,-0.39269 -0.436814,-0.43681 -0.08524,-0.0178 -12.562848,-0.0178 -12.648089,0 -0.21156,0.0441 -0.392696,0.22525 -0.436814,0.43681 -0.01739,0.0834 -0.01739,1.84026 0,1.92365 0.04288,0.20563 0.215547,0.38356 0.420431,0.43326 0.07945,0.0193 12.572294,0.0228 12.664473,0.004 z m -1.639155,-0.55866 c -0.197618,-0.0362 -0.333361,-0.10349 -0.469623,-0.23292 -0.176481,-0.16764 -0.258273,-0.35989 -0.258273,-0.60706 0,-0.0734 0.0068,-0.15646 0.0156,-0.1911 0.107609,-0.42269 0.504239,-0.7007 0.92396,-0.64764 0.3314,0.0419 0.594032,0.25867 0.70528,0.58213 0.03335,0.097 0.03584,0.11482 0.03584,0.25661 0,0.14152 -0.0025,0.15978 -0.03553,0.25567 -0.04932,0.14338 -0.116492,0.25035 -0.218389,0.34781 -0.11486,0.10986 -0.236923,0.17913 -0.388429,0.22043 -0.04885,0.0133 -0.264483,0.0245 -0.310444,0.0161 z m 0.26511,-0.52353 c 0.216975,-0.10608 0.265769,-0.39409 0.0956,-0.56426 -0.219784,-0.21979 -0.597774,-0.0637 -0.597774,0.24682 0,0.15176 0.08932,0.2792 0.234387,0.33442 0.06584,0.0251 0.19908,0.0166 0.26779,-0.017 z M 1.831197,14.0744 c -0.06664,-0.0235 -0.139488,-0.0981 -0.162892,-0.16683 -0.02766,-0.0812 -0.02766,-0.67526 0,-0.75645 0.03548,-0.10412 0.151657,-0.18622 0.263526,-0.18622 0.11187,0 0.228048,0.0821 0.263526,0.18622 0.02766,0.0812 0.02766,0.67526 0,0.75645 -0.04886,0.14341 -0.215001,0.21952 -0.36416,0.16683 z m 1.411111,0 c -0.06664,-0.0235 -0.139487,-0.0981 -0.162891,-0.16683 -0.02766,-0.0812 -0.02766,-0.67526 0,-0.75645 0.03548,-0.10412 0.151656,-0.18622 0.263525,-0.18622 0.11187,0 0.228048,0.0821 0.263526,0.18622 0.02766,0.0812 0.02766,0.67526 0,0.75645 -0.04886,0.14341 -0.215001,0.21952 -0.36416,0.16683 z m 1.411111,0 c -0.06664,-0.0235 -0.139487,-0.0981 -0.162891,-0.16683 -0.02766,-0.0812 -0.02766,-0.67526 0,-0.75645 0.03548,-0.10412 0.151656,-0.18622 0.263525,-0.18622 0.11187,0 0.228048,0.0821 0.263526,0.18622 0.02766,0.0812 0.02766,0.67526 0,0.75645 -0.04886,0.14341 -0.215,0.21952 -0.36416,0.16683 z m 1.411111,0 C 5.99789,14.0509 5.925043,13.9763 5.901639,13.90757 c -0.02766,-0.0812 -0.02766,-0.67526 0,-0.75645 0.03548,-0.10412 0.151656,-0.18622 0.263526,-0.18622 0.111869,0 0.228048,0.0821 0.263525,0.18622 0.02766,0.0812 0.02766,0.67526 0,0.75645 -0.04886,0.14341 -0.215,0.21952 -0.36416,0.16683 z m 1.411111,0 C 7.409001,14.0509 7.336154,13.9763 7.31275,13.90757 c -0.02766,-0.0812 -0.02766,-0.67526 0,-0.75645 0.03548,-0.10412 0.151656,-0.18622 0.263526,-0.18622 0.111869,0 0.228048,0.0821 0.263525,0.18622 0.02766,0.0812 0.02766,0.67526 0,0.75645 -0.04886,0.14341 -0.215,0.21952 -0.36416,0.16683 z M 8.60453,13.79218 c -0.09959,-0.0352 -0.181588,-0.15387 -0.181588,-0.26284 0,-0.0682 0.03368,-0.14716 0.08437,-0.19785 0.0879,-0.0879 0.04422,-0.0844 1.044519,-0.0844 1.000304,0 0.956622,-0.004 1.04452,0.0844 0.110423,0.11042 0.110423,0.28528 0,0.39571 -0.08803,0.088 -0.04339,0.0845 -1.049353,0.0835 C 8.76886,13.80992 8.647973,13.8077 8.60453,13.7922 Z m 5.013568,-2.25087 c 0.210768,-0.0439 0.39286,-0.22604 0.436814,-0.43681 0.01739,-0.0834 0.01739,-1.84026 0,-1.92365 -0.04412,-0.21156 -0.225254,-0.39269 -0.436814,-0.43681 -0.08524,-0.0178 -12.562848,-0.0178 -12.648089,0 -0.21156,0.0441 -0.392696,0.22525 -0.436814,0.43681 -0.01739,0.0834 -0.01739,1.84026 0,1.92365 0.04288,0.20563 0.215546,0.38356 0.42043,0.43326 0.07945,0.0193 12.572294,0.0228 12.664473,0.004 z m -1.639155,-0.55866 c -0.197618,-0.0362 -0.333361,-0.10348 -0.469623,-0.23292 -0.176481,-0.16764 -0.258273,-0.35988 -0.258273,-0.60705 0,-0.0734 0.0068,-0.15647 0.0156,-0.19111 0.107609,-0.42268 0.504239,-0.7007 0.92396,-0.64763 0.3314,0.0419 0.594032,0.25867 0.70528,0.58213 0.03335,0.0969 0.03584,0.11482 0.03584,0.25661 0,0.14151 -0.0025,0.15977 -0.03553,0.25567 -0.04932,0.14337 -0.116492,0.25034 -0.218389,0.3478 -0.11486,0.10986 -0.236923,0.17913 -0.388429,0.22044 -0.04885,0.0133 -0.264483,0.0245 -0.310444,0.0161 z m 0.254,-0.53381 c 0.08343,-0.04 0.130763,-0.0886 0.170125,-0.17478 0.05874,-0.12854 0.02083,-0.29014 -0.09119,-0.38875 -0.08977,-0.079 -0.220049,-0.10296 -0.339387,-0.0624 -0.07566,0.0257 -0.174673,0.12474 -0.200402,0.2004 -0.09785,0.28775 0.191353,0.55477 0.460859,0.42551 z m -10.401746,0.2389 c -0.06664,-0.0235 -0.139488,-0.0982 -0.162892,-0.16684 -0.02766,-0.0812 -0.02766,-0.67526 0,-0.75645 0.03548,-0.10412 0.151657,-0.18622 0.263526,-0.18622 0.11187,0 0.228048,0.0821 0.263526,0.18622 0.02766,0.0812 0.02766,0.67526 0,0.75645 -0.04886,0.14341 -0.215001,0.21952 -0.36416,0.16684 z m 1.411111,0 c -0.06664,-0.0235 -0.139487,-0.0982 -0.162891,-0.16684 -0.02766,-0.0812 -0.02766,-0.67526 0,-0.75645 0.03548,-0.10412 0.151656,-0.18622 0.263525,-0.18622 0.11187,0 0.228048,0.0821 0.263526,0.18622 0.02766,0.0812 0.02766,0.67526 0,0.75645 -0.04886,0.14341 -0.215001,0.21952 -0.36416,0.16684 z m 1.411111,0 c -0.06664,-0.0235 -0.139487,-0.0982 -0.162891,-0.16684 -0.02766,-0.0812 -0.02766,-0.67526 0,-0.75645 0.03548,-0.10412 0.151656,-0.18622 0.263525,-0.18622 0.11187,0 0.228048,0.0821 0.263526,0.18622 0.02766,0.0812 0.02766,0.67526 0,0.75645 -0.04886,0.14341 -0.215,0.21952 -0.36416,0.16684 z m 1.411111,0 c -0.06664,-0.0235 -0.139487,-0.0982 -0.162891,-0.16684 -0.02766,-0.0812 -0.02766,-0.67526 0,-0.75645 0.03548,-0.10412 0.151656,-0.18622 0.263526,-0.18622 0.111869,0 0.228048,0.0821 0.263525,0.18622 0.02766,0.0812 0.02766,0.67526 0,0.75645 -0.04886,0.14341 -0.215,0.21952 -0.36416,0.16684 z m 1.411111,0 C 7.409001,10.66424 7.336154,10.58954 7.31275,10.5209 7.28509,10.4397 7.28509,9.84564 7.31275,9.76445 7.34823,9.66033 7.464406,9.57823 7.576276,9.57823 c 0.111869,0 0.228048,0.0821 0.263525,0.18622 0.02766,0.0812 0.02766,0.67526 0,0.75645 -0.04886,0.14341 -0.215,0.21952 -0.36416,0.16684 z M 8.60453,10.40552 c -0.09959,-0.0352 -0.181588,-0.15387 -0.181588,-0.26284 0,-0.0682 0.03368,-0.14716 0.08437,-0.19786 0.0879,-0.0879 0.04422,-0.0844 1.044519,-0.0844 1.000304,0 0.956622,-0.004 1.04452,0.0844 0.110423,0.11043 0.110423,0.28529 0,0.39571 -0.08803,0.088 -0.04339,0.0845 -1.049353,0.0835 -0.778138,-7.8e-4 -0.899025,-0.003 -0.942468,-0.0185 z m 5.013568,-2.25087 c 0.210768,-0.044 0.39286,-0.22605 0.436814,-0.43682 0.0086,-0.0414 0.01247,-0.41563 0.01247,-1.21638 V 5.3449 H 7.294049 0.520715 v 1.15655 c 0,0.80075 0.0038,1.17496 0.01247,1.21638 0.04288,0.20563 0.215546,0.38357 0.42043,0.43326 0.07945,0.0193 12.572294,0.0228 12.664473,0.004 z M 11.978943,7.59599 C 11.781325,7.55979 11.645582,7.4925 11.50932,7.36307 11.332839,7.19543 11.251047,7.00318 11.251047,6.75601 c 0,-0.0734 0.0068,-0.15646 0.0156,-0.1911 0.107609,-0.42269 0.504239,-0.7007 0.92396,-0.64764 0.3314,0.0419 0.594032,0.25867 0.70528,0.58213 0.03335,0.097 0.03584,0.11482 0.03584,0.25661 0,0.14151 -0.0025,0.15978 -0.03553,0.25567 -0.04932,0.14338 -0.116492,0.25035 -0.218389,0.34781 -0.11486,0.10985 -0.236923,0.17912 -0.388429,0.22043 -0.04885,0.0133 -0.264483,0.0245 -0.310444,0.0161 z m 0.248355,-0.53033 c 0.07726,-0.0358 0.128749,-0.0842 0.167248,-0.15725 0.0253,-0.048 0.02981,-0.0708 0.03004,-0.1524 3.27e-4,-0.11659 -0.02701,-0.17996 -0.109723,-0.25433 -0.134862,-0.12125 -0.330215,-0.11429 -0.460932,0.0164 -0.07222,0.0722 -0.100733,0.13926 -0.100819,0.23709 -2.14e-4,0.24379 0.256104,0.41161 0.474189,0.31046 z M 1.831197,7.30107 C 1.764557,7.27757 1.691709,7.20287 1.668305,7.13424 c -0.02766,-0.0812 -0.02766,-0.67526 0,-0.75646 0.03548,-0.10412 0.151657,-0.18621 0.263526,-0.18621 0.11187,0 0.228048,0.0821 0.263526,0.18621 0.02766,0.0812 0.02766,0.67527 0,0.75646 -0.04886,0.1434 -0.215001,0.21951 -0.36416,0.16683 z m 1.411111,0 C 3.175668,7.27757 3.102821,7.20287 3.079417,7.13424 c -0.02766,-0.0812 -0.02766,-0.67526 0,-0.75646 0.03548,-0.10412 0.151656,-0.18621 0.263525,-0.18621 0.11187,0 0.228048,0.0821 0.263526,0.18621 0.02766,0.0812 0.02766,0.67527 0,0.75646 -0.04886,0.1434 -0.215001,0.21951 -0.36416,0.16683 z m 1.411111,0 C 4.586779,7.27757 4.513932,7.20287 4.490528,7.13424 c -0.02766,-0.0812 -0.02766,-0.67526 0,-0.75646 0.03548,-0.10412 0.151656,-0.18621 0.263525,-0.18621 0.11187,0 0.228048,0.0821 0.263526,0.18621 0.02766,0.0812 0.02766,0.67527 0,0.75646 -0.04886,0.1434 -0.215,0.21951 -0.36416,0.16683 z m 1.411111,0 C 5.99789,7.27757 5.925043,7.20287 5.901639,7.13424 c -0.02766,-0.0812 -0.02766,-0.67526 0,-0.75646 0.03548,-0.10412 0.151656,-0.18621 0.263526,-0.18621 0.111869,0 0.228048,0.0821 0.263525,0.18621 0.02766,0.0812 0.02766,0.67527 0,0.75646 -0.04886,0.1434 -0.215,0.21951 -0.36416,0.16683 z m 1.411111,0 C 7.409001,7.27757 7.336154,7.20287 7.31275,7.13424 7.28509,7.05304 7.28509,6.45898 7.31275,6.37778 7.34823,6.27366 7.464406,6.19157 7.576276,6.19157 c 0.111869,0 0.228048,0.0821 0.263525,0.18621 0.02766,0.0812 0.02766,0.67527 0,0.75646 -0.04886,0.1434 -0.215,0.21951 -0.36416,0.16683 z M 8.60453,7.01885 C 8.50494,6.98365 8.422942,6.86498 8.422942,6.75601 c 0,-0.0682 0.03368,-0.14716 0.08437,-0.19785 0.0879,-0.0879 0.04422,-0.0844 1.044519,-0.0844 1.000304,0 0.956622,-0.004 1.04452,0.0844 0.110423,0.11042 0.110423,0.28528 0,0.3957 -0.08803,0.088 -0.04339,0.0845 -1.049353,0.0835 C 8.76886,7.03658 8.647973,7.03436 8.60453,7.01886 Z m 5.459123,-2.32024 c -0.0039,-0.045 -0.01465,-0.11232 -0.02393,-0.14958 C 14.028903,4.50563 13.766925,3.9687 13.31105,3.05558 12.603765,1.63888 12.598818,1.62942 12.528884,1.5598 12.452354,1.4836 12.37217,1.43804 12.267264,1.41108 c -0.05992,-0.0154 -0.604123,-0.0173 -4.973206,-0.0173 -4.367368,0 -4.91331,0.002 -4.973207,0.0173 -0.105665,0.0271 -0.182999,0.0705 -0.259306,0.14528 -0.07045,0.0691 -0.07097,0.0701 -0.78338,1.49704 -0.45661,0.91459 -0.718958,1.45227 -0.729774,1.49565 -0.0093,0.0373 -0.02006,0.10457 -0.02393,0.14958 l -0.007,0.0818 h 6.776647 6.776646 z M 2.395641,2.50329 C 2.296051,2.46809 2.214053,2.34943 2.214053,2.24045 c 0,-0.11186 0.0821,-0.22804 0.186218,-0.26352 0.05064,-0.0172 0.341209,-0.0187 3.764894,-0.0187 4.162202,0 3.773899,-0.008 3.866741,0.0844 0.110423,0.11042 0.110423,0.28528 0,0.39571 -0.09287,0.0929 0.296351,0.0845 -3.871575,0.0835 -3.334478,-8e-4 -3.719958,-0.003 -3.76469,-0.0185 z m 8.466667,0 C 10.762728,2.46809 10.68072,2.34943 10.68072,2.24045 c 0,-0.0682 0.03368,-0.14716 0.08437,-0.19785 0.08526,-0.0853 0.07721,-0.0844 0.762297,-0.0844 0.685092,0 0.677035,-8.9e-4 0.762297,0.0844 0.110423,0.11042 0.110423,0.28528 0,0.39571 -0.08547,0.0855 -0.07642,0.0845 -0.76713,0.0835 -0.522471,-7.7e-4 -0.617591,-0.003 -0.660246,-0.0185 z"
         id="path5719"
         inkscape:connector-curvature="0" />
    </g>
    <path
       inkscape:connector-curvature="0"
       id="path5721"
       d="m 39.807187,16.35631 c -0.08635,-0.006 -0.439749,-0.0311 -0.785274,-0.0539 -1.845914,-0.12185 -3.531382,-0.51746 -4.803769,-1.12753 -0.843121,-0.40425 -1.575886,-1.04084 -1.819475,-1.58066 -0.175958,-0.38995 -0.169449,-0.1794 -0.169449,-5.47734 v -5.0258 l 0.113825,-0.27485 c 0.147142,-0.3553 0.270601,-0.53019 0.59949,-0.8492 1.308743,-1.26948 4.154847,-2.04376 7.512516,-2.04376 4.265891,0 7.650932,1.26458 8.169422,3.05192 0.0477,0.16445 0.0564,0.96297 0.0564,5.18096 0,5.60448 0.0216,5.191 -0.29577,5.66626 -0.67512,1.011 -2.25085,1.7958 -4.4748,2.22872 -1.13894,0.2217 -3.211235,0.37584 -4.103105,0.3052 z m 1.459385,-0.6433 c 2.37871,-0.10804 4.07903,-0.50614 5.55048,-1.29957 0.45393,-0.24476 0.9678,-0.74053 1.13405,-1.09409 0.0989,-0.21032 0.10192,-0.24039 0.1145,-1.15123 0.008,-0.5144 0.003,-0.96193 -0.01,-0.99449 -0.0176,-0.046 -0.0688,-0.0203 -0.22891,0.11509 -0.3917,0.33115 -0.86015,0.61712 -1.01093,0.61712 -0.1123,0 -0.27502,-0.17127 -0.27502,-0.28948 0,-0.17242 0.045,-0.22416 0.38582,-0.44405 0.45887,-0.29603 0.67756,-0.48781 0.87145,-0.7642 0.24555,-0.35005 0.27302,-0.50363 0.27356,-1.52887 2.8e-4,-0.48769 -0.0116,-0.89881 -0.0264,-0.91358 -0.0148,-0.0148 -0.0811,0.0247 -0.14724,0.0879 -0.38424,0.36612 -1.28648,0.87304 -2.02468,1.13757 -1.55058,0.55565 -3.3316,0.82858 -5.413432,0.8296 C 37.425497,10.02173 34.780559,9.3846 33.320936,8.29976 33.152271,8.1744 32.990179,8.04242 32.96074,8.00647 c -0.02943,-0.036 -0.06917,-0.0556 -0.08839,-0.0438 -0.05972,0.037 -0.04167,1.77417 0.02094,2.00935 0.225256,0.84614 1.573308,1.66702 3.523943,2.14586 0.668517,0.16412 1.996482,0.37704 2.351447,0.37704 0.33617,0 0.52174,0.36184 0.282383,0.55063 -0.09999,0.0788 -0.135553,0.0831 -0.480981,0.0583 -0.644487,-0.0463 -1.648411,-0.2134 -2.375484,-0.3953 -1.278294,-0.31982 -2.4031,-0.83002 -3.05905,-1.38757 -0.127627,-0.10848 -0.246887,-0.18805 -0.265027,-0.17684 -0.01815,0.0112 -0.03276,0.41248 -0.03254,0.8917 6.23e-4,1.1511 0.04049,1.30446 0.455741,1.75298 0.954648,1.03114 3.418087,1.79455 6.199058,1.92106 0.388712,0.0177 0.745063,0.0348 0.79189,0.038 0.04683,0.003 0.488542,-0.0125 0.981612,-0.0348 z m -0.971981,-2.56178 c -0.121967,-0.0936 -0.153661,-0.22077 -0.153661,-0.61636 0,-0.36917 0.0064,-0.40377 0.09634,-0.49339 0.06079,-0.0608 0.141234,-0.0963 0.217737,-0.0963 0.07647,0 0.15698,0.0357 0.217738,0.0963 0.08957,0.0896 0.09634,0.12422 0.09634,0.49339 0,0.49869 -0.0783,0.66419 -0.31411,0.66419 -0.05402,0 -0.126198,-0.0215 -0.160459,-0.0478 z m 1.537531,-0.10386 c -0.0965,-0.0966 -0.13745,-0.36987 -0.10794,-0.7219 0.0281,-0.33572 0.10558,-0.43736 0.32861,-0.43104 0.24478,0.006 0.28693,0.0983 0.28693,0.62155 0,0.43326 -0.002,0.44636 -0.10343,0.52571 -0.12969,0.10203 -0.30534,0.1045 -0.40414,0.005 z m 1.65806,-0.18013 c -0.0648,-0.0273 -0.12932,-0.0795 -0.14335,-0.11602 -0.0141,-0.0365 -0.0256,-0.25631 -0.0256,-0.48833 0,-0.39018 0.006,-0.42825 0.0909,-0.50722 0.0962,-0.0904 0.25962,-0.11069 0.37875,-0.0469 0.106219,0.0568 0.158609,0.25034 0.15855,0.58583 -1.2e-4,0.48687 -0.16737,0.69542 -0.45931,0.57267 z m 1.57305,-0.33979 c -0.13249,-0.0641 -0.17135,-0.2043 -0.17135,-0.61812 0,-0.33054 0.0116,-0.40024 0.0814,-0.48895 0.10931,-0.13895 0.31537,-0.14219 0.45047,-0.008 0.0906,0.0906 0.0963,0.12174 0.0952,0.52025 -10e-4,0.44048 -0.0222,0.50872 -0.18267,0.59414 -0.10192,0.0543 -0.16039,0.0542 -0.27295,-2.3e-4 z m -2.95909,-3.19303 c 0.7059,-0.0592 0.92304,-0.0882 1.66872,-0.22346 1.00079,-0.18151 2.05803,-0.51716 2.78301,-0.88354 0.62945,-0.31809 1.2044,-0.8214 1.38937,-1.21624 0.10644,-0.22712 0.10752,-0.23817 0.12034,-1.18615 0.008,-0.59019 -0.002,-0.97163 -0.0256,-0.99534 -0.0251,-0.0251 -0.0637,-0.0132 -0.1111,0.0341 -0.3736,0.37352 -1.16143,0.82478 -1.9573,1.12113 -1.60761,0.59859 -3.30877,0.8631 -5.536227,0.86081 -1.561064,-10e-4 -2.61772,-0.10612 -3.86752,-0.38252 -1.506171,-0.3331 -2.903339,-0.94988 -3.538936,-1.56227 -0.0784,-0.0756 -0.153522,-0.12646 -0.166872,-0.11311 -0.01332,0.0133 -0.02406,0.42329 -0.02384,0.91098 4.83e-4,0.90914 0.02674,1.12022 0.174905,1.40693 0.121118,0.23435 0.458749,0.55902 0.860187,0.82716 1.071556,0.71573 2.824065,1.21709 4.893322,1.3999 0.797958,0.0705 2.504931,0.0713 3.337451,10e-4 z m 0.15706,-3.17824 c 2.49669,-0.24091 4.4381,-0.91183 5.33188,-1.84261 0.59735,-0.62209 0.60373,-1.22375 0.0194,-1.83632 -0.92951,-0.97453 -3.08733,-1.69046 -5.67227,-1.88197 -1.655263,-0.12264 -3.576523,-0.0156 -5.036314,0.28059 -2.396871,0.48631 -4.039958,1.50704 -4.039958,2.50972 0,0.55689 0.519742,1.14989 1.446229,1.65007 0.508691,0.27462 1.642078,0.66668 2.355843,0.81492 0.854173,0.17741 1.426976,0.26071 2.218418,0.32261 0.291545,0.0228 0.609574,0.048 0.706752,0.0562 0.366093,0.0304 2.08496,-0.0166 2.66997,-0.0731 z M 36.507214,2.11129 c -0.160577,-0.16058 -0.116005,-0.40489 0.08861,-0.48588 0.306827,-0.12144 1.337108,-0.29333 2.288434,-0.38178 0.968943,-0.0901 2.839504,-0.0701 2.995254,0.032 0.181561,0.11903 0.19236,0.41231 0.0186,0.5053 -0.0626,0.0335 -0.403351,0.0445 -1.206904,0.039 -1.479772,-0.0107 -2.309961,0.0598 -3.475899,0.29332 -0.58166,0.1165 -0.589726,0.11648 -0.708126,-0.002 z m 7.057678,-0.0212 c -0.59064,-0.12351 -0.67547,-0.17326 -0.67547,-0.39612 0,-0.22151 0.1461,-0.32467 0.41095,-0.29018 0.27356,0.0357 0.88157,0.16823 1.01387,0.22114 0.20471,0.0818 0.24916,0.32579 0.0886,0.48633 -0.11914,0.11914 -0.17358,0.11777 -0.83798,-0.0212 z"
       style="fill:#000000;stroke-width:0.03926405" />
    <path
       sodipodi:nodetypes="cc"
       inkscape:connector-curvature="0"
       id="path5735"
       d="M 30.866876,5.05002 H 15.475421"
       style="fill:none;stroke:#000000;stroke-width:0.3882181;stroke-linecap:butt;stroke-linejoin:miter;stroke-miterlimit:4;stroke-dasharray:0.38821807, 0.38821807;stroke-dashoffset:0;stroke-opacity:1" />
    <rect
       style="fill:#ffffff;fill-opacity:0.97254902;stroke:#000000;stroke-width:0.3882181;stroke-miterlimit:4;stroke-dasharray:none"
       id="rect5739"
       width="3.2935188"
       height="1.5063324"
       x="53.438484"
       y="211.90732"
       ry="0.41424322"
       clip-path="url(#clipPath5937)"
       transform="translate(-36.573298,-207.61047)" />
    <rect
       ry="0.41424322"
       y="211.90732"
       x="58.966385"
       height="1.5063355"
       width="3.9077294"
       id="rect5855"
       style="fill:#ffffff;fill-opacity:0.97254902;stroke:#000000;stroke-width:0.3882181;stroke-miterlimit:4;stroke-dasharray:none"
       clip-path="url(#clipPath5933)"
       transform="translate(-36.573298,-207.61047)" />
    <rect
       style="fill:#ffffff;fill-opacity:0.97254902;stroke:#000000;stroke-width:0.3882181;stroke-miterlimit:4;stroke-dasharray:none"
       id="rect5857"
       width="2.2068372"
       height="1.5063324"
       x="65.344734"
       y="211.90732"
       ry="0.41424322"
       clip-path="url(#clipPath5929)"
       transform="translate(-36.573298,-207.61047)" />
    <path
       style="fill:none;stroke:#000000;stroke-width:0.3882181;stroke-linecap:butt;stroke-linejoin:miter;stroke-miterlimit:4;stroke-dasharray:0.38821807, 0.38821807;stroke-dashoffset:0;stroke-opacity:1"
       d="M 30.866876,8.26282 H 15.475421"
       id="path5865"
       inkscape:connector-curvature="0"
       sodipodi:nodetypes="cc" />
    <rect
       ry="0.41424322"
       y="215.12012"
       x="51.926579"
       height="1.5063324"
       width="2.5375664"
       id="rect5867"
       style="fill:#ffffff;fill-opacity:0.97254902;stroke:#000000;stroke-width:0.3882181;stroke-miterlimit:4;stroke-dasharray:none"
       clip-path="url(#clipPath5925)"
       transform="translate(-36.573298,-207.61047)" />
    <rect
       style="fill:#ffffff;fill-opacity:0.97254902;stroke:#000000;stroke-width:0.3882181;stroke-miterlimit:4;stroke-dasharray:none"
       id="rect5869"
       width="3.9077294"
       height="1.5063355"
       x="56.887516"
       y="215.12012"
       ry="0.41424322"
       clip-path="url(#clipPath5921)"
       transform="translate(-36.573298,-207.61047)" />
    <rect
       ry="0.41424322"
       y="215.12012"
       x="62.935135"
       height="1.5063355"
       width="3.9077294"
       id="rect5871"
       style="fill:#ffffff;fill-opacity:0.97254902;stroke:#000000;stroke-width:0.3882181;stroke-miterlimit:4;stroke-dasharray:none"
       clip-path="url(#clipPath5917)"
       transform="translate(-36.573298,-207.61047)" />
    <path
       sodipodi:nodetypes="cc"
       inkscape:connector-curvature="0"
       id="path5875"
       d="M 30.866876,11.47562 H 15.475421"
       style="fill:none;stroke:#000000;stroke-width:0.3882181;stroke-linecap:butt;stroke-linejoin:miter;stroke-miterlimit:4;stroke-dasharray:0.38821807, 0.38821807;stroke-dashoffset:0;stroke-opacity:1" />
    <rect
       style="fill:#ffffff;fill-opacity:0.97254902;stroke:#000000;stroke-width:0.3882181;stroke-miterlimit:4;stroke-dasharray:none"
       id="rect5877"
       width="2.8210485"
       height="1.5063324"
       x="53.296741"
       y="218.33292"
       ry="0.41424322"
       clip-path="url(#clipPath5913)"
       transform="translate(-36.573298,-207.61047)" />
    <rect
       ry="0.41424322"
       y="218.33292"
       x="58.541161"
       height="1.5063324"
       width="2.1123433"
       id="rect5879"
       style="fill:#ffffff;fill-opacity:0.97254902;stroke:#000000;stroke-width:0.3882181;stroke-miterlimit:4;stroke-dasharray:none"
       clip-path="url(#clipPath5909)"
       transform="translate(-37.107837,-207.61047)" />
    <rect
       style="fill:#ffffff;fill-opacity:0.97254902;stroke:#000000;stroke-width:0.3882181;stroke-miterlimit:4;stroke-dasharray:none"
       id="rect5881"
       width="3.0100379"
       height="1.5063324"
       x="61.848454"
       y="218.33292"
       ry="0.41424322"
       clip-path="url(#clipPath5905)"
       transform="translate(-36.573298,-207.61047)" />
    <rect
       ry="0.41424322"
       y="218.33292"
       x="66.762146"
       height="1.5063324"
       width="4.2384591"
       id="rect5893"
       style="fill:#ffffff;fill-opacity:0.97254902;stroke:#000000;stroke-width:0.3882181;stroke-miterlimit:4;stroke-dasharray:none"
       clip-path="url(#clipPath5901)"
       transform="translate(-36.573298,-207.61047)" />
  </g>
</svg>
