<?xml version="1.0" encoding="UTF-8" standalone="no"?>
<!-- Created with Inkscape (http://www.inkscape.org/) -->

<svg
   xmlns:dc="http://purl.org/dc/elements/1.1/"
   xmlns:cc="http://creativecommons.org/ns#"
   xmlns:rdf="http://www.w3.org/1999/02/22-rdf-syntax-ns#"
   xmlns:svg="http://www.w3.org/2000/svg"
   xmlns="http://www.w3.org/2000/svg"
   xmlns:sodipodi="http://sodipodi.sourceforge.net/DTD/sodipodi-0.dtd"
   xmlns:inkscape="http://www.inkscape.org/namespaces/inkscape"
   width="48.719303mm"
   height="16.450377mm"
   viewBox="0 0 48.719303 16.450377"
   version="1.1"
   id="svg6324"
   sodipodi:docname="handshake.svg"
   inkscape:version="0.92.5 (2060ec1f9f, 2020-04-08)">
  <defs
     id="defs6318">
    <clipPath
       clipPathUnits="userSpaceOnUse"
       id="clipPath5849">
      <path
         style="fill:none;stroke:#000000;stroke-width:0.1;stroke-linecap:butt;stroke-linejoin:miter;stroke-miterlimit:4;stroke-dasharray:none;stroke-opacity:1"
         d="m 101.76287,185.04747 -1.30294,-0.0167 -2.372017,4.10927 0.05012,2.52236 -1.503392,1.85419 -2.505649,0.98555 -0.23386,-0.91874 7.065928,-12.72871 1.1526,-1.41987 0.66819,0.3675 -0.0668,3.20723 z"
         id="path5851"
         inkscape:connector-curvature="0" />
    </clipPath>
    <clipPath
       clipPathUnits="userSpaceOnUse"
       id="clipPath5819">
      <path
         style="fill:none;stroke:#000000;stroke-width:0.26458332px;stroke-linecap:butt;stroke-linejoin:miter;stroke-opacity:1"
         d="m 85.125346,161.09344 -3.34087,5.81311 0.334084,2.47225 6.614922,-0.16704 -0.03341,-6.41447 -1.80407,-1.57021 z"
         id="path5821"
         inkscape:connector-curvature="0" />
    </clipPath>
    <clipPath
       clipPathUnits="userSpaceOnUse"
       id="clipPath5831">
      <path
         style="fill:none;stroke:#000000;stroke-width:0.26458332px;stroke-linecap:butt;stroke-linejoin:miter;stroke-opacity:1"
         d="m 85.392612,160.69254 -3.307458,5.91334 -5.278573,-1.26953 2.037927,-8.58604 5.311984,1.50339 z"
         id="path5833"
         inkscape:connector-curvature="0" />
    </clipPath>
  </defs>
  <sodipodi:namedview
     id="base"
     pagecolor="#ffffff"
     bordercolor="#666666"
     borderopacity="1.0"
     inkscape:pageopacity="0.0"
     inkscape:pageshadow="2"
     inkscape:zoom="3.959798"
     inkscape:cx="103.45372"
     inkscape:cy="50.755047"
     inkscape:document-units="mm"
     inkscape:current-layer="layer1"
     showgrid="false"
     inkscape:window-width="1115"
     inkscape:window-height="1040"
     inkscape:window-x="801"
     inkscape:window-y="38"
     inkscape:window-maximized="0"
     inkscape:snap-global="false"
     inkscape:snap-bbox="false"
     inkscape:snap-to-guides="true"
     inkscape:snap-page="true"
     fit-margin-top="0"
     fit-margin-left="0"
     fit-margin-right="0"
     fit-margin-bottom="0"
     inkscape:pagecheckerboard="true" />
  <metadata
     id="metadata6321">
    <rdf:RDF>
      <cc:Work
         rdf:about="">
        <dc:format>image/svg+xml</dc:format>
        <dc:type
           rdf:resource="http://purl.org/dc/dcmitype/StillImage" />
        <dc:title></dc:title>
      </cc:Work>
    </rdf:RDF>
  </metadata>
  <g
     inkscape:label="Layer 1"
     inkscape:groupmode="layer"
     id="layer1"
     transform="translate(-2.1171044,-1.8967)">
    <g
       id="g7142">
      <path
         inkscape:connector-curvature="0"
         id="path7139"
         d="m 25.905981,7.0077909 0.897693,-0.8504465 0.94494,-0.4488466 1.133928,-0.1181177 0.897694,0.2126118 0.826823,0.5433406 0.614212,0.7559524 0.4016,0.9921875 0.07087,0.9449406 -0.330729,1.063058 -0.425223,0.614211 -0.637833,0.566964 0.141739,0.33073 -0.07087,0.448846 -0.188986,0.33073 -0.283483,0.118117 h -0.330729 -0.14174 l -0.02363,0.4016 -0.140595,0.321878 -0.300677,0.250565 -0.517836,0.0167 v 0.417609 l -0.200452,0.400904 -0.451018,0.167044 -0.601356,-0.08352 -1.336348,1.369756 -0.434313,0.03341 -0.484425,-0.250565 -0.133635,-0.668174 -0.601357,-0.150339 -0.317382,-0.350791 -0.116931,-0.517835 -0.534539,-0.116931 -0.3842,-0.367495 0.0167,-0.501131 -0.601356,-0.08352 -0.434313,-0.417609 0.100226,-0.651469 -1.302939,-1.302939 -0.417608,-1.0857827 -0.03341,-1.0857825 0.317383,-1.0857823 0.684878,-0.8185129 0.7684,-0.5512435 1.252825,-0.2672696 0.952148,0.1002263 z"
         style="fill:#ffffff;stroke:none;stroke-width:0.26458332px;stroke-linecap:butt;stroke-linejoin:miter;stroke-opacity:1" />
    </g>
    <g
       id="g7134">
      <path
         inkscape:connector-curvature="0"
         id="path6850"
         d="m 4.2780235,3.1994443 10.3566935,-0.0167 1.887592,3.3909822 -0.06682,3.3241657 -0.451018,0.6013548 0.551244,0.517835 -0.06682,2.288496 -0.384201,0.501129 c 0,0 0.41761,0.851922 0.41761,0.751695 0,-0.100226 0,2.3052 0,2.3052 l -0.868621,0.334087 -12.6953035,0.08352 -0.567947,-0.751696 -0.0167,-2.088043 0.451017,-0.584653 -0.3842,-0.651469 0.03341,-2.355313 0.334087,-0.451017 -0.501131,-0.7182868 0.08352,-3.157121 1.520096,-3.0903039 z"
         style="fill:#ffffff;stroke:none;stroke-width:0.26458332px;stroke-linecap:butt;stroke-linejoin:miter;stroke-opacity:1" />
    </g>
    <g
       id="g7137">
      <path
         inkscape:connector-curvature="0"
         id="path6856"
         d="m 34.69712,5.2086942 0.09449,10.2289798 0.708705,0.968565 2.315104,1.110305 3.189174,0.519717 3.614396,-0.09449 2.787576,-0.472469 1.700895,-0.826824 0.921313,-0.732328 0.496097,-0.755953 -0.04724,-10.1344907 -0.874072,-1.157553 -2.385973,-1.086681 -2.598592,-0.496094 -3.023806,0.07087 -2.433223,0.118118 -2.763948,0.87407 -1.299292,1.110305 z"
         style="fill:#ffffff;stroke:none;stroke-width:0.26458332px;stroke-linecap:butt;stroke-linejoin:miter;stroke-opacity:1" />
    </g>
    <g
       transform="translate(-34.316743,-147.59204)"
       id="g6040">
      <path
         inkscape:connector-curvature="0"
         id="path6009"
         d="m 59.628052,163.58197 c -0.208888,-0.0457 -0.409393,-0.18892 -0.531166,-0.37928 -0.09011,-0.14086 -0.17122,-0.43338 -0.146442,-0.52814 0.01121,-0.0429 -6.12e-4,-0.05 -0.08267,-0.05 -0.235456,0 -0.586267,-0.16608 -0.717019,-0.33945 -0.109317,-0.14495 -0.171658,-0.30999 -0.183516,-0.48583 l -0.0113,-0.16764 -0.176203,-0.0168 c -0.09691,-0.009 -0.21102,-0.0353 -0.253574,-0.0579 -0.04255,-0.0226 -0.09023,-0.0412 -0.105958,-0.0413 -0.04506,-2.6e-4 -0.279837,-0.23536 -0.338726,-0.3392 -0.05423,-0.0956 -0.10521,-0.29717 -0.116472,-0.46045 l -0.0062,-0.0903 -0.198223,-0.018 c -0.324645,-0.0294 -0.55178,-0.18516 -0.693049,-0.47514 -0.08168,-0.16767 -0.0827,-0.17432 -0.06939,-0.45508 l 0.01351,-0.28493 -0.506446,-0.50559 c -0.439725,-0.43897 -0.622982,-0.65307 -0.741325,-0.86608 -0.33635,-0.60542 -0.461607,-1.07481 -0.461103,-1.72794 8.36e-4,-1.08507 0.444248,-1.97406 1.322029,-2.65051 0.522104,-0.40235 1.389785,-0.6716 2.025495,-0.62854 0.940903,0.0637 1.564935,0.35083 2.30005,1.05814 0.141786,0.13642 0.265579,0.24512 0.275097,0.24156 0.0095,-0.004 0.14608,-0.12687 0.303473,-0.274 0.281775,-0.2634 0.520806,-0.45628 0.69815,-0.56334 0.15389,-0.0929 0.449671,-0.23918 0.483915,-0.23931 0.01792,-7e-5 0.05274,-0.011 0.07737,-0.0244 0.183816,-0.0995 0.719805,-0.19373 1.102178,-0.19373 1.410758,0 2.634377,0.88275 3.090574,2.2296 0.09283,0.27406 0.171875,0.75444 0.171875,1.0445 0,0.28952 -0.07944,0.76952 -0.172871,1.0445 -0.166443,0.48988 -0.422173,0.89338 -0.847697,1.33754 l -0.299878,0.313 0.03178,0.13248 c 0.04375,0.18237 0.01873,0.51827 -0.04996,0.67064 -0.132463,0.29386 -0.419787,0.50013 -0.738047,0.52985 -0.164439,0.0154 -0.16707,0.0168 -0.16707,0.092 0,0.12185 -0.07492,0.37769 -0.140538,0.47988 -0.06554,0.10208 -0.220945,0.25462 -0.323934,0.31799 -0.07897,0.0486 -0.301302,0.0983 -0.439451,0.0983 h -0.101891 v 0.13955 c 0,0.22509 -0.08687,0.41446 -0.276133,0.60191 -0.08951,0.0887 -0.177146,0.16126 -0.194756,0.16135 -0.01761,8e-5 -0.06184,0.0157 -0.0983,0.0348 -0.146335,0.0764 -0.379656,0.0718 -0.663693,-0.0131 -0.0905,-0.027 -0.114799,-0.027 -0.131527,3e-5 -0.02117,0.0342 -0.833936,0.85609 -1.085654,1.09777 -0.07802,0.0749 -0.198608,0.16126 -0.267984,0.19191 -0.137956,0.0609 -0.414049,0.09 -0.5573,0.0586 z m 0.356088,-0.36843 c 0.109917,-0.0272 0.175641,-0.0846 0.715898,-0.62541 0.539069,-0.5396 0.598155,-0.60732 0.62989,-0.72198 0.12046,-0.43524 -0.310011,-0.81463 -0.708023,-0.62401 -0.120697,0.0578 -1.200971,1.1303 -1.266883,1.25776 -0.05658,0.10942 -0.05906,0.32151 -0.0051,0.43508 0.05727,0.12053 0.173898,0.22772 0.294561,0.27074 0.124181,0.0443 0.186595,0.0457 0.339653,0.008 z m -0.899824,-1.0225 c 0.09346,-0.0592 1.168442,-1.13619 1.226022,-1.22833 0.06257,-0.10012 0.06714,-0.33265 0.0089,-0.45406 -0.109524,-0.22844 -0.349446,-0.34114 -0.604651,-0.28402 -0.13756,0.0308 -0.156528,0.047 -0.743187,0.63361 -0.580021,0.58002 -0.603077,0.60694 -0.630845,0.73642 -0.06768,0.31557 0.092,0.57739 0.397708,0.65213 0.08364,0.0204 0.274183,-0.0102 0.346023,-0.0557 z m 3.238769,-0.33558 c 0.18415,-0.14485 0.256079,-0.36582 0.194003,-0.59597 -0.02717,-0.10074 -0.125443,-0.20934 -0.83218,-0.91966 -0.440754,-0.44299 -0.812172,-0.82474 -0.825373,-0.84833 -0.02958,-0.0529 -0.0071,-0.15087 0.04701,-0.20498 0.104705,-0.10471 0.138804,-0.0783 0.977196,0.75687 0.440243,0.43855 0.844315,0.82154 0.897938,0.85108 0.220437,0.12143 0.523799,0.0412 0.673445,-0.17812 0.0906,-0.13278 0.10639,-0.34526 0.0365,-0.49104 -0.024,-0.05 -0.390897,-0.43974 -0.815328,-0.86597 -0.424431,-0.42623 -0.79121,-0.80475 -0.815064,-0.84115 -0.02676,-0.0408 -0.03735,-0.0902 -0.02765,-0.12881 0.01539,-0.0613 0.130173,-0.14917 0.194889,-0.14917 0.01796,0 0.404956,0.3699 0.859989,0.822 0.455033,0.45209 0.854315,0.83595 0.887292,0.85301 0.07354,0.038 0.353738,0.0415 0.446445,0.005 0.113391,-0.044 0.240955,-0.19767 0.287963,-0.34679 0.0558,-0.17702 0.05456,-0.2638 -0.0056,-0.39236 -0.06638,-0.14184 -2.305028,-2.37042 -2.512941,-2.50164 -0.08304,-0.0524 -0.233908,-0.12505 -0.335271,-0.16144 -0.160632,-0.0577 -0.225694,-0.0662 -0.506674,-0.0662 -0.28001,0 -0.346102,0.009 -0.502907,0.0652 -0.09929,0.0359 -0.217322,0.0871 -0.262289,0.11381 -0.452745,0.2692 -0.642405,0.38411 -0.65326,0.39579 -0.0071,0.008 -0.05351,0.0341 -0.10316,0.0589 -0.44319,0.22104 -1.00801,0.20692 -1.444151,-0.0361 -0.316694,-0.17645 -0.420783,-0.3708 -0.32341,-0.60384 0.04431,-0.10606 0.0477,-0.10968 0.298115,-0.31927 0.106059,-0.0888 0.24506,-0.20599 0.30889,-0.2605 0.06383,-0.0545 0.319153,-0.26921 0.567383,-0.47711 0.561719,-0.47045 0.876864,-0.75602 0.876864,-0.79455 0,-0.0402 -0.4371,-0.46573 -0.646324,-0.6293 -0.461959,-0.36114 -1.106263,-0.57367 -1.739182,-0.57367 -0.80922,0 -1.451502,0.27545 -2.056841,0.88208 -0.152484,0.15281 -0.277244,0.28876 -0.277244,0.3021 0,0.0133 -0.01476,0.0396 -0.03281,0.0583 -0.04607,0.0478 -0.204054,0.30008 -0.255575,0.40804 -0.156432,0.32778 -0.215974,0.53085 -0.270346,0.922 -0.04159,0.29918 -0.04151,0.33328 0.0014,0.64327 0.06888,0.49768 0.20081,0.86189 0.449652,1.24133 0.179573,0.27382 0.390489,0.5005 1.1544,1.24072 0.0063,0.006 0.258743,-0.23435 0.560904,-0.53443 0.647945,-0.64347 0.71065,-0.68371 1.065318,-0.68371 0.187742,0 0.234435,0.01 0.377669,0.0805 0.311563,0.15338 0.461388,0.38541 0.494276,0.76545 0.0049,0.0567 0.0101,0.11312 0.01154,0.1253 0.0014,0.0122 0.03072,0.0151 0.06507,0.006 0.07954,-0.02 0.361387,0.0507 0.479138,0.12005 0.134965,0.0795 0.300018,0.26135 0.362639,0.39944 0.03054,0.0674 0.06153,0.19926 0.06888,0.29313 l 0.01335,0.17068 0.173674,0.0161 c 0.09552,0.009 0.22549,0.0391 0.288822,0.0671 0.142874,0.0632 0.339373,0.2335 0.396493,0.34362 0.06667,0.12854 0.139967,0.38245 0.140185,0.48561 l 2.06e-4,0.0933 0.17662,0.0126 c 0.231305,0.0165 0.429646,0.11029 0.56948,0.26915 0.142949,0.1624 0.206385,0.31563 0.225812,0.54545 0.01545,0.18272 0.01979,0.19303 0.09596,0.22747 0.127578,0.0577 0.424586,0.0363 0.518185,-0.0373 z m -6.217971,-3.50603 c -0.01561,-0.0104 -0.04207,-0.045 -0.05881,-0.0767 -0.04178,-0.0794 0.0044,-0.1606 0.200799,-0.35356 0.132981,-0.13063 0.170155,-0.15345 0.249985,-0.15345 0.108911,0 0.165101,0.0586 0.165101,0.1723 0,0.0577 -0.04001,0.11534 -0.175754,0.25298 -0.150082,0.15217 -0.188696,0.17815 -0.264349,0.17781 -0.04873,-2.1e-4 -0.101364,-0.009 -0.116971,-0.0193 z m -0.675112,-0.79412 c -0.07783,-0.0545 -0.07805,-0.19642 -4.23e-4,-0.26875 0.08398,-0.0782 0.439872,-0.25353 0.484696,-0.23873 0.136327,0.045 0.173714,0.2129 0.06926,0.31103 -0.03283,0.0308 -0.06706,0.0561 -0.07608,0.0561 -0.009,0 -0.0837,0.0406 -0.165973,0.0902 -0.165701,0.0999 -0.226495,0.10971 -0.311482,0.0502 z m -0.308773,-1.02937 c -0.04342,-0.0317 -0.05803,-0.0683 -0.05803,-0.14539 0,-0.092 0.009,-0.1067 0.08382,-0.13737 0.0461,-0.0189 0.182465,-0.0416 0.303034,-0.0505 0.193002,-0.0142 0.226155,-0.0102 0.277244,0.0334 0.07438,0.0635 0.07879,0.20788 0.0083,0.27169 -0.074,0.067 -0.532463,0.088 -0.614354,0.0282 z m 2.99212,4.65781 c 0.04584,-0.0285 0.334593,-0.30492 0.641666,-0.61433 0.614386,-0.61908 0.637305,-0.65403 0.605516,-0.92328 -0.01744,-0.14768 -0.06666,-0.22406 -0.220445,-0.34208 -0.09846,-0.0756 -0.126422,-0.0838 -0.283873,-0.0838 -0.152704,0 -0.187934,0.01 -0.28029,0.0765 -0.147367,0.10675 -1.107557,1.07595 -1.182042,1.19313 -0.158945,0.25005 -0.0072,0.65249 0.279088,0.74003 0.122219,0.0374 0.343123,0.0142 0.44038,-0.0462 z m -1.051104,-0.96061 c 0.137252,-0.0686 1.198767,-1.12942 1.274084,-1.27332 0.165253,-0.31571 -0.106922,-0.73428 -0.478105,-0.73525 -0.178568,-4.7e-4 -0.273012,0.0714 -0.856709,0.65185 -0.594977,0.59169 -0.674598,0.69585 -0.674598,0.88252 0,0.11347 0.08001,0.29381 0.165415,0.37283 0.169005,0.15639 0.383396,0.19452 0.569913,0.10137 z m 7.817509,-1.83463 c 0.336482,-0.34517 0.486167,-0.54929 0.630206,-0.85937 0.14617,-0.31467 0.142859,-0.30586 0.207593,-0.55264 0.04888,-0.18636 0.05753,-0.28687 0.0577,-0.67054 1.54e-4,-0.38074 -0.0088,-0.48764 -0.05733,-0.68344 -0.03164,-0.12766 -0.07436,-0.26868 -0.09494,-0.31338 -0.02058,-0.0447 -0.03741,-0.0882 -0.03741,-0.0966 0,-0.0484 -0.182445,-0.39473 -0.306588,-0.58191 -0.155573,-0.23456 -0.463263,-0.55901 -0.649067,-0.68442 -0.06305,-0.0426 -0.129099,-0.091 -0.146779,-0.10767 -0.05716,-0.0539 -0.478845,-0.25485 -0.651293,-0.31039 -0.376376,-0.12122 -0.541419,-0.14691 -0.941339,-0.14656 -0.477545,4.2e-4 -0.722156,0.05 -1.14766,0.23263 -0.332392,0.14266 -0.610659,0.33888 -0.966849,0.68176 -0.479646,0.46171 -0.702609,0.66966 -0.954515,0.89022 -0.127661,0.11177 -0.237913,0.20949 -0.245006,0.21714 -0.0071,0.008 -0.186978,0.15853 -0.399746,0.33528 -0.212769,0.17675 -0.392655,0.32743 -0.399747,0.33485 -0.0071,0.007 -0.117345,0.0998 -0.245006,0.20536 -0.311004,0.25708 -0.351384,0.29826 -0.334809,0.34146 0.0078,0.0203 0.0979,0.0826 0.200264,0.13852 l 0.186125,0.10168 0.348166,-2e-4 c 0.32222,-1.8e-4 0.357777,-0.005 0.477118,-0.066 0.154797,-0.079 0.25328,-0.13506 0.270796,-0.15405 0.0071,-0.008 0.152161,-0.0955 0.322376,-0.19511 0.506723,-0.29659 0.705503,-0.35853 1.14766,-0.35765 0.410361,8.2e-4 0.636043,0.0616 0.991176,0.26702 0.216168,0.12503 0.200097,0.11009 1.368619,1.27234 0.581567,0.57845 1.064158,1.05177 1.072425,1.05182 0.0083,5e-5 0.142306,-0.13048 0.297866,-0.29005 z"
         style="fill:#000000;stroke-width:0.02579011" />
      <g
         id="g6013">
        <path
           style="fill:#000000;stroke-width:0.01128889"
           d="m 37.365412,165.05309 c -0.2643,-0.0478 -0.522229,-0.20029 -0.68559,-0.40529 -0.08996,-0.1129 -0.185941,-0.30505 -0.220269,-0.44099 l -0.02566,-0.1016 v -1.01036 c 0,-0.9216 0.0017,-1.01703 0.01956,-1.08641 0.05191,-0.20183 0.146331,-0.37722 0.280347,-0.52072 l 0.0805,-0.0862 -0.0805,-0.0862 c -0.134016,-0.1435 -0.228441,-0.31889 -0.280347,-0.52072 -0.01784,-0.0694 -0.01956,-0.16481 -0.01956,-1.08641 0,-0.92161 0.0017,-1.01704 0.01956,-1.08642 0.05191,-0.20183 0.146331,-0.37721 0.280347,-0.52072 l 0.0805,-0.0862 -0.0805,-0.0862 c -0.134016,-0.1435 -0.228441,-0.31889 -0.280347,-0.52072 -0.0181,-0.0704 -0.01956,-0.19442 -0.01956,-1.66214 0,-1.75128 -0.0043,-1.63817 0.07062,-1.86831 0.03653,-0.11226 1.404415,-2.85444 1.486646,-2.98027 0.17215,-0.26342 0.462327,-0.44623 0.77799,-0.49014 0.124074,-0.0173 9.869673,-0.0173 9.993747,0 0.315663,0.0439 0.60584,0.22672 0.777989,0.49014 0.08223,0.12583 1.450112,2.86801 1.486647,2.98027 0.0749,0.23014 0.07062,0.11703 0.07062,1.86831 0,1.46772 -0.0015,1.59176 -0.01956,1.66214 -0.05191,0.20183 -0.146331,0.37722 -0.280347,0.52072 l -0.0805,0.0862 0.0805,0.0862 c 0.134016,0.14351 0.228442,0.31889 0.280347,0.52072 0.01784,0.0694 0.01956,0.16481 0.01956,1.08642 0,0.9216 -0.0017,1.01703 -0.01956,1.08641 -0.05192,0.2019 -0.14633,0.37722 -0.280473,0.52086 l -0.08063,0.0863 0.07625,0.0808 c 0.132575,0.14053 0.222843,0.30335 0.279394,0.50394 0.02403,0.0852 0.02449,0.10238 0.02813,1.04621 0.0025,0.65589 -2.48e-4,0.98943 -0.0088,1.05398 -0.06436,0.48757 -0.444397,0.8815 -0.932556,0.96663 -0.08635,0.0151 -0.82941,0.0169 -6.403869,0.016 -5.250405,-8.5e-4 -6.320333,-0.004 -6.390673,-0.0163 z m 12.724663,-0.5596 c 0.210768,-0.044 0.39286,-0.22605 0.436814,-0.43681 0.01739,-0.0834 0.01739,-1.84026 0,-1.92365 -0.04412,-0.21156 -0.225254,-0.39269 -0.436814,-0.43681 -0.08524,-0.0178 -12.562848,-0.0178 -12.648089,0 -0.21156,0.0441 -0.392696,0.22525 -0.436814,0.43681 -0.01739,0.0834 -0.01739,1.84026 0,1.92365 0.04288,0.20563 0.215546,0.38356 0.42043,0.43326 0.07945,0.0193 12.572294,0.0228 12.664473,0.004 z m -1.639155,-0.55866 c -0.197618,-0.0362 -0.333361,-0.10349 -0.469623,-0.23292 -0.176481,-0.16764 -0.258273,-0.35989 -0.258273,-0.60706 0,-0.0734 0.0068,-0.15646 0.0156,-0.1911 0.107609,-0.42269 0.504239,-0.7007 0.92396,-0.64764 0.3314,0.0419 0.594032,0.25867 0.70528,0.58213 0.03335,0.097 0.03584,0.11482 0.03584,0.25661 0,0.14152 -0.0025,0.15978 -0.03553,0.25567 -0.04932,0.14338 -0.116492,0.25035 -0.218389,0.34781 -0.11486,0.10986 -0.236923,0.17913 -0.388429,0.22043 -0.04885,0.0133 -0.264483,0.0245 -0.310444,0.0161 z m 0.26511,-0.52353 c 0.216975,-0.10608 0.265769,-0.39409 0.0956,-0.56426 -0.219784,-0.21979 -0.597774,-0.0637 -0.597774,0.24682 0,0.15176 0.08932,0.2792 0.234387,0.33442 0.06584,0.0251 0.19908,0.0166 0.26779,-0.017 z m -10.412856,0.22861 c -0.06664,-0.0235 -0.139488,-0.0981 -0.162892,-0.16683 -0.02766,-0.0812 -0.02766,-0.67526 0,-0.75645 0.03548,-0.10412 0.151657,-0.18622 0.263526,-0.18622 0.11187,0 0.228048,0.0821 0.263526,0.18622 0.02766,0.0812 0.02766,0.67526 0,0.75645 -0.04886,0.14341 -0.215001,0.21952 -0.36416,0.16683 z m 1.411111,0 c -0.06664,-0.0235 -0.139487,-0.0981 -0.162891,-0.16683 -0.02766,-0.0812 -0.02766,-0.67526 0,-0.75645 0.03548,-0.10412 0.151656,-0.18622 0.263525,-0.18622 0.11187,0 0.228048,0.0821 0.263526,0.18622 0.02766,0.0812 0.02766,0.67526 0,0.75645 -0.04886,0.14341 -0.215001,0.21952 -0.36416,0.16683 z m 1.411111,0 c -0.06664,-0.0235 -0.139487,-0.0981 -0.162891,-0.16683 -0.02766,-0.0812 -0.02766,-0.67526 0,-0.75645 0.03548,-0.10412 0.151656,-0.18622 0.263525,-0.18622 0.11187,0 0.228048,0.0821 0.263526,0.18622 0.02766,0.0812 0.02766,0.67526 0,0.75645 -0.04886,0.14341 -0.215,0.21952 -0.36416,0.16683 z m 1.411111,0 c -0.06664,-0.0235 -0.139487,-0.0981 -0.162891,-0.16683 -0.02766,-0.0812 -0.02766,-0.67526 0,-0.75645 0.03548,-0.10412 0.151656,-0.18622 0.263526,-0.18622 0.111869,0 0.228048,0.0821 0.263525,0.18622 0.02766,0.0812 0.02766,0.67526 0,0.75645 -0.04886,0.14341 -0.215,0.21952 -0.36416,0.16683 z m 1.411111,0 c -0.06664,-0.0235 -0.139487,-0.0981 -0.162891,-0.16683 -0.02766,-0.0812 -0.02766,-0.67526 0,-0.75645 0.03548,-0.10412 0.151656,-0.18622 0.263526,-0.18622 0.111869,0 0.228048,0.0821 0.263525,0.18622 0.02766,0.0812 0.02766,0.67526 0,0.75645 -0.04886,0.14341 -0.215,0.21952 -0.36416,0.16683 z m 1.128889,-0.28222 c -0.09959,-0.0352 -0.181588,-0.15387 -0.181588,-0.26284 0,-0.0682 0.03368,-0.14716 0.08437,-0.19785 0.0879,-0.0879 0.04422,-0.0844 1.044519,-0.0844 1.000304,0 0.956622,-0.004 1.04452,0.0844 0.110423,0.11042 0.110423,0.28528 0,0.39571 -0.08803,0.088 -0.04339,0.0845 -1.049353,0.0835 -0.778138,-7.8e-4 -0.899025,-0.003 -0.942468,-0.0185 z m 5.013568,-2.25087 c 0.210768,-0.0439 0.39286,-0.22604 0.436814,-0.43681 0.01739,-0.0834 0.01739,-1.84026 0,-1.92365 -0.04412,-0.21156 -0.225254,-0.39269 -0.436814,-0.43681 -0.08524,-0.0178 -12.562848,-0.0178 -12.648089,0 -0.21156,0.0441 -0.392696,0.22525 -0.436814,0.43681 -0.01739,0.0834 -0.01739,1.84026 0,1.92365 0.04288,0.20563 0.215546,0.38356 0.42043,0.43326 0.07945,0.0193 12.572294,0.0228 12.664473,0.004 z m -1.639155,-0.55866 c -0.197618,-0.0362 -0.333361,-0.10348 -0.469623,-0.23292 -0.176481,-0.16764 -0.258273,-0.35988 -0.258273,-0.60705 0,-0.0734 0.0068,-0.15647 0.0156,-0.19111 0.107609,-0.42268 0.504239,-0.7007 0.92396,-0.64763 0.3314,0.0419 0.594032,0.25867 0.70528,0.58213 0.03335,0.0969 0.03584,0.11482 0.03584,0.25661 0,0.14151 -0.0025,0.15977 -0.03553,0.25567 -0.04932,0.14337 -0.116492,0.25034 -0.218389,0.3478 -0.11486,0.10986 -0.236923,0.17913 -0.388429,0.22044 -0.04885,0.0133 -0.264483,0.0245 -0.310444,0.0161 z m 0.254,-0.53381 c 0.08343,-0.04 0.130763,-0.0886 0.170125,-0.17478 0.05874,-0.12854 0.02083,-0.29014 -0.09119,-0.38875 -0.08977,-0.079 -0.220049,-0.10296 -0.339387,-0.0624 -0.07566,0.0257 -0.174673,0.12474 -0.200402,0.2004 -0.09785,0.28775 0.191353,0.55477 0.460859,0.42551 z m -10.401746,0.2389 c -0.06664,-0.0235 -0.139488,-0.0982 -0.162892,-0.16684 -0.02766,-0.0812 -0.02766,-0.67526 0,-0.75645 0.03548,-0.10412 0.151657,-0.18622 0.263526,-0.18622 0.11187,0 0.228048,0.0821 0.263526,0.18622 0.02766,0.0812 0.02766,0.67526 0,0.75645 -0.04886,0.14341 -0.215001,0.21952 -0.36416,0.16684 z m 1.411111,0 c -0.06664,-0.0235 -0.139487,-0.0982 -0.162891,-0.16684 -0.02766,-0.0812 -0.02766,-0.67526 0,-0.75645 0.03548,-0.10412 0.151656,-0.18622 0.263525,-0.18622 0.11187,0 0.228048,0.0821 0.263526,0.18622 0.02766,0.0812 0.02766,0.67526 0,0.75645 -0.04886,0.14341 -0.215001,0.21952 -0.36416,0.16684 z m 1.411111,0 c -0.06664,-0.0235 -0.139487,-0.0982 -0.162891,-0.16684 -0.02766,-0.0812 -0.02766,-0.67526 0,-0.75645 0.03548,-0.10412 0.151656,-0.18622 0.263525,-0.18622 0.11187,0 0.228048,0.0821 0.263526,0.18622 0.02766,0.0812 0.02766,0.67526 0,0.75645 -0.04886,0.14341 -0.215,0.21952 -0.36416,0.16684 z m 1.411111,0 c -0.06664,-0.0235 -0.139487,-0.0982 -0.162891,-0.16684 -0.02766,-0.0812 -0.02766,-0.67526 0,-0.75645 0.03548,-0.10412 0.151656,-0.18622 0.263526,-0.18622 0.111869,0 0.228048,0.0821 0.263525,0.18622 0.02766,0.0812 0.02766,0.67526 0,0.75645 -0.04886,0.14341 -0.215,0.21952 -0.36416,0.16684 z m 1.411111,0 c -0.06664,-0.0235 -0.139487,-0.0982 -0.162891,-0.16684 -0.02766,-0.0812 -0.02766,-0.67526 0,-0.75645 0.03548,-0.10412 0.151656,-0.18622 0.263526,-0.18622 0.111869,0 0.228048,0.0821 0.263525,0.18622 0.02766,0.0812 0.02766,0.67526 0,0.75645 -0.04886,0.14341 -0.215,0.21952 -0.36416,0.16684 z m 1.128889,-0.28222 c -0.09959,-0.0352 -0.181588,-0.15387 -0.181588,-0.26284 0,-0.0682 0.03368,-0.14716 0.08437,-0.19786 0.0879,-0.0879 0.04422,-0.0844 1.044519,-0.0844 1.000304,0 0.956622,-0.004 1.04452,0.0844 0.110423,0.11043 0.110423,0.28529 0,0.39571 -0.08803,0.088 -0.04339,0.0845 -1.049353,0.0835 -0.778138,-7.8e-4 -0.899025,-0.003 -0.942468,-0.0185 z m 5.013568,-2.25087 c 0.210768,-0.044 0.39286,-0.22605 0.436814,-0.43682 0.0086,-0.0414 0.01247,-0.41563 0.01247,-1.21638 v -1.15655 h -6.773333 -6.773334 v 1.15655 c 0,0.80075 0.0038,1.17496 0.01247,1.21638 0.04288,0.20563 0.215546,0.38357 0.42043,0.43326 0.07945,0.0193 12.572294,0.0228 12.664473,0.004 z M 48.45092,157.1615 c -0.197618,-0.0362 -0.333361,-0.10349 -0.469623,-0.23292 -0.176481,-0.16764 -0.258273,-0.35989 -0.258273,-0.60706 0,-0.0734 0.0068,-0.15646 0.0156,-0.1911 0.107609,-0.42269 0.504239,-0.7007 0.92396,-0.64764 0.3314,0.0419 0.594032,0.25867 0.70528,0.58213 0.03335,0.097 0.03584,0.11482 0.03584,0.25661 0,0.14151 -0.0025,0.15978 -0.03553,0.25567 -0.04932,0.14338 -0.116492,0.25035 -0.218389,0.34781 -0.11486,0.10985 -0.236923,0.17912 -0.388429,0.22043 -0.04885,0.0133 -0.264483,0.0245 -0.310444,0.0161 z m 0.248355,-0.53033 c 0.07726,-0.0358 0.128749,-0.0842 0.167248,-0.15725 0.0253,-0.048 0.02981,-0.0708 0.03004,-0.1524 3.27e-4,-0.11659 -0.02701,-0.17996 -0.109723,-0.25433 -0.134862,-0.12125 -0.330215,-0.11429 -0.460932,0.0164 -0.07222,0.0722 -0.100733,0.13926 -0.100819,0.23709 -2.14e-4,0.24379 0.256104,0.41161 0.474189,0.31046 z m -10.396101,0.23541 c -0.06664,-0.0235 -0.139488,-0.0982 -0.162892,-0.16683 -0.02766,-0.0812 -0.02766,-0.67526 0,-0.75646 0.03548,-0.10412 0.151657,-0.18621 0.263526,-0.18621 0.11187,0 0.228048,0.0821 0.263526,0.18621 0.02766,0.0812 0.02766,0.67527 0,0.75646 -0.04886,0.1434 -0.215001,0.21951 -0.36416,0.16683 z m 1.411111,0 c -0.06664,-0.0235 -0.139487,-0.0982 -0.162891,-0.16683 -0.02766,-0.0812 -0.02766,-0.67526 0,-0.75646 0.03548,-0.10412 0.151656,-0.18621 0.263525,-0.18621 0.11187,0 0.228048,0.0821 0.263526,0.18621 0.02766,0.0812 0.02766,0.67527 0,0.75646 -0.04886,0.1434 -0.215001,0.21951 -0.36416,0.16683 z m 1.411111,0 c -0.06664,-0.0235 -0.139487,-0.0982 -0.162891,-0.16683 -0.02766,-0.0812 -0.02766,-0.67526 0,-0.75646 0.03548,-0.10412 0.151656,-0.18621 0.263525,-0.18621 0.11187,0 0.228048,0.0821 0.263526,0.18621 0.02766,0.0812 0.02766,0.67527 0,0.75646 -0.04886,0.1434 -0.215,0.21951 -0.36416,0.16683 z m 1.411111,0 c -0.06664,-0.0235 -0.139487,-0.0982 -0.162891,-0.16683 -0.02766,-0.0812 -0.02766,-0.67526 0,-0.75646 0.03548,-0.10412 0.151656,-0.18621 0.263526,-0.18621 0.111869,0 0.228048,0.0821 0.263525,0.18621 0.02766,0.0812 0.02766,0.67527 0,0.75646 -0.04886,0.1434 -0.215,0.21951 -0.36416,0.16683 z m 1.411111,0 c -0.06664,-0.0235 -0.139487,-0.0982 -0.162891,-0.16683 -0.02766,-0.0812 -0.02766,-0.67526 0,-0.75646 0.03548,-0.10412 0.151656,-0.18621 0.263526,-0.18621 0.111869,0 0.228048,0.0821 0.263525,0.18621 0.02766,0.0812 0.02766,0.67527 0,0.75646 -0.04886,0.1434 -0.215,0.21951 -0.36416,0.16683 z m 1.128889,-0.28222 c -0.09959,-0.0352 -0.181588,-0.15387 -0.181588,-0.26284 0,-0.0682 0.03368,-0.14716 0.08437,-0.19785 0.0879,-0.0879 0.04422,-0.0844 1.044519,-0.0844 1.000304,0 0.956622,-0.004 1.04452,0.0844 0.110423,0.11042 0.110423,0.28528 0,0.3957 -0.08803,0.088 -0.04339,0.0845 -1.049353,0.0835 -0.778138,-7.8e-4 -0.899025,-0.003 -0.942468,-0.0185 z m 5.459123,-2.32024 c -0.0039,-0.045 -0.01465,-0.11232 -0.02393,-0.14958 -0.01082,-0.0434 -0.272798,-0.58033 -0.728673,-1.49345 -0.707285,-1.4167 -0.712232,-1.42616 -0.782166,-1.49578 -0.07653,-0.0762 -0.156714,-0.12176 -0.26162,-0.14872 -0.05992,-0.0154 -0.604123,-0.0173 -4.973206,-0.0173 -4.367368,0 -4.91331,0.002 -4.973207,0.0173 -0.105665,0.0271 -0.182999,0.0705 -0.259306,0.14528 -0.07045,0.0691 -0.07097,0.0701 -0.78338,1.49704 -0.45661,0.91459 -0.718958,1.45227 -0.729774,1.49565 -0.0093,0.0373 -0.02006,0.10457 -0.02393,0.14958 l -0.007,0.0818 h 6.776647 6.776646 z M 38.867618,152.0688 c -0.09959,-0.0352 -0.181588,-0.15386 -0.181588,-0.26284 0,-0.11186 0.0821,-0.22804 0.186218,-0.26352 0.05064,-0.0172 0.341209,-0.0187 3.764894,-0.0187 4.162202,0 3.773899,-0.008 3.866741,0.0844 0.110423,0.11042 0.110423,0.28528 0,0.39571 -0.09287,0.0929 0.296351,0.0845 -3.871575,0.0835 -3.334478,-8e-4 -3.719958,-0.003 -3.76469,-0.0185 z m 8.466667,0 c -0.09958,-0.0352 -0.181588,-0.15386 -0.181588,-0.26284 0,-0.0682 0.03368,-0.14716 0.08437,-0.19785 0.08526,-0.0853 0.07721,-0.0844 0.762297,-0.0844 0.685092,0 0.677035,-8.9e-4 0.762297,0.0844 0.110423,0.11042 0.110423,0.28528 0,0.39571 -0.08547,0.0855 -0.07642,0.0845 -0.76713,0.0835 -0.522471,-7.7e-4 -0.617591,-0.003 -0.660246,-0.0185 z"
           id="path5986"
           inkscape:connector-curvature="0" />
        <path
           style="fill:#000000;stroke-width:0.03926405"
           d="m 76.279157,165.92178 c -0.08635,-0.006 -0.439749,-0.0311 -0.785274,-0.0539 -1.845914,-0.12185 -3.531382,-0.51746 -4.803769,-1.12753 -0.843121,-0.40425 -1.575886,-1.04084 -1.819475,-1.58066 -0.175958,-0.38995 -0.169449,-0.1794 -0.169449,-5.47734 v -5.0258 l 0.113825,-0.27485 c 0.147142,-0.3553 0.270601,-0.53019 0.599489,-0.8492 1.308743,-1.26948 4.154847,-2.04376 7.512516,-2.04376 4.26589,0 7.65093,1.26458 8.16942,3.05192 0.0477,0.16445 0.0564,0.96297 0.0564,5.18096 0,5.60448 0.0216,5.191 -0.29577,5.66626 -0.67512,1.011 -2.25085,1.7958 -4.4748,2.22872 -1.13894,0.2217 -3.211233,0.37584 -4.103103,0.3052 z m 1.459383,-0.6433 c 2.37871,-0.10804 4.07903,-0.50614 5.55048,-1.29957 0.45393,-0.24476 0.9678,-0.74053 1.13405,-1.09409 0.0989,-0.21032 0.10192,-0.24039 0.1145,-1.15123 0.008,-0.5144 0.003,-0.96193 -0.01,-0.99449 -0.0176,-0.046 -0.0688,-0.0203 -0.22891,0.11509 -0.3917,0.33115 -0.86015,0.61712 -1.01093,0.61712 -0.1123,0 -0.27502,-0.17127 -0.27502,-0.28948 0,-0.17242 0.045,-0.22416 0.38582,-0.44405 0.45887,-0.29603 0.67756,-0.48781 0.87145,-0.7642 0.24555,-0.35005 0.27302,-0.50363 0.27356,-1.52887 2.8e-4,-0.48769 -0.0116,-0.89881 -0.0264,-0.91358 -0.0148,-0.0148 -0.0811,0.0247 -0.14724,0.0879 -0.38424,0.36612 -1.28648,0.87304 -2.02468,1.13757 -1.55058,0.55565 -3.3316,0.82858 -5.41343,0.8296 -3.034323,0.001 -5.679261,-0.63613 -7.138884,-1.72097 -0.168665,-0.12536 -0.330757,-0.25734 -0.360196,-0.29329 -0.02943,-0.036 -0.06917,-0.0556 -0.08839,-0.0438 -0.05972,0.037 -0.04167,1.77417 0.02094,2.00935 0.225256,0.84614 1.573308,1.66702 3.523943,2.14586 0.668517,0.16412 1.996482,0.37704 2.351447,0.37704 0.33617,0 0.52174,0.36184 0.282383,0.55063 -0.09999,0.0788 -0.135553,0.0831 -0.480981,0.0583 -0.644487,-0.0463 -1.648411,-0.2134 -2.375484,-0.3953 -1.278294,-0.31982 -2.4031,-0.83002 -3.05905,-1.38757 -0.127627,-0.10848 -0.246887,-0.18805 -0.265027,-0.17684 -0.01815,0.0112 -0.03276,0.41248 -0.03254,0.8917 6.23e-4,1.1511 0.04049,1.30446 0.455741,1.75298 0.954648,1.03114 3.418087,1.79455 6.199058,1.92106 0.388712,0.0177 0.745063,0.0348 0.79189,0.038 0.04683,0.003 0.488542,-0.0125 0.98161,-0.0348 z m -0.971979,-2.56178 c -0.121967,-0.0936 -0.153661,-0.22077 -0.153661,-0.61636 0,-0.36917 0.0064,-0.40377 0.09634,-0.49339 0.06079,-0.0608 0.141234,-0.0963 0.217737,-0.0963 0.07647,0 0.15698,0.0357 0.217738,0.0963 0.08957,0.0896 0.09634,0.12422 0.09634,0.49339 0,0.49869 -0.0783,0.66419 -0.31411,0.66419 -0.05402,0 -0.126198,-0.0215 -0.160459,-0.0478 z m 1.537529,-0.10386 c -0.0965,-0.0966 -0.13745,-0.36987 -0.10794,-0.7219 0.0281,-0.33572 0.10558,-0.43736 0.32861,-0.43104 0.24478,0.006 0.28693,0.0983 0.28693,0.62155 0,0.43326 -0.002,0.44636 -0.10343,0.52571 -0.12969,0.10203 -0.30534,0.1045 -0.40414,0.005 z m 1.65806,-0.18013 c -0.0648,-0.0273 -0.12932,-0.0795 -0.14335,-0.11602 -0.0141,-0.0365 -0.0256,-0.25631 -0.0256,-0.48833 0,-0.39018 0.006,-0.42825 0.0909,-0.50722 0.0962,-0.0904 0.25962,-0.11069 0.37875,-0.0469 0.10622,0.0568 0.15861,0.25034 0.15855,0.58583 -1.2e-4,0.48687 -0.16737,0.69542 -0.45931,0.57267 z m 1.57305,-0.33979 c -0.13249,-0.0641 -0.17135,-0.2043 -0.17135,-0.61812 0,-0.33054 0.0116,-0.40024 0.0814,-0.48895 0.10931,-0.13895 0.31537,-0.14219 0.45047,-0.008 0.0906,0.0906 0.0963,0.12174 0.0952,0.52025 -0.001,0.44048 -0.0222,0.50872 -0.18267,0.59414 -0.10192,0.0543 -0.16039,0.0542 -0.27295,-2.3e-4 z m -2.95909,-3.19303 c 0.7059,-0.0592 0.92304,-0.0882 1.66872,-0.22346 1.00079,-0.18151 2.05803,-0.51716 2.78301,-0.88354 0.62945,-0.31809 1.2044,-0.8214 1.38937,-1.21624 0.10644,-0.22712 0.10752,-0.23817 0.12034,-1.18615 0.008,-0.59019 -0.002,-0.97163 -0.0256,-0.99534 -0.0251,-0.0251 -0.0637,-0.0132 -0.1111,0.0341 -0.3736,0.37352 -1.16143,0.82478 -1.9573,1.12113 -1.60761,0.59859 -3.30877,0.8631 -5.536225,0.86081 -1.561064,-0.001 -2.61772,-0.10612 -3.86752,-0.38252 -1.506171,-0.3331 -2.903339,-0.94988 -3.538936,-1.56227 -0.0784,-0.0756 -0.153522,-0.12646 -0.166872,-0.11311 -0.01332,0.0133 -0.02406,0.42329 -0.02384,0.91098 4.83e-4,0.90914 0.02674,1.12022 0.174905,1.40693 0.121118,0.23435 0.458749,0.55902 0.860187,0.82716 1.071556,0.71573 2.824065,1.21709 4.893322,1.3999 0.797958,0.0705 2.504929,0.0713 3.337449,0.001 z m 0.15706,-3.17824 c 2.49669,-0.24091 4.4381,-0.91183 5.33188,-1.84261 0.59735,-0.62209 0.60373,-1.22375 0.0194,-1.83632 -0.92951,-0.97453 -3.08733,-1.69046 -5.67227,-1.88197 -1.655261,-0.12264 -3.576521,-0.0156 -5.036312,0.28059 -2.396871,0.48631 -4.039958,1.50704 -4.039958,2.50972 0,0.55689 0.519742,1.14989 1.446229,1.65007 0.508691,0.27462 1.642078,0.66668 2.355843,0.81492 0.854173,0.17741 1.426976,0.26071 2.218418,0.32261 0.291545,0.0228 0.609574,0.048 0.706752,0.0562 0.366093,0.0304 2.084958,-0.0166 2.669968,-0.0731 z m -5.753986,-4.04489 c -0.160577,-0.16058 -0.116005,-0.40489 0.08861,-0.48588 0.306827,-0.12144 1.337108,-0.29333 2.288434,-0.38178 0.968943,-0.0901 2.839502,-0.0701 2.995252,0.032 0.18156,0.11903 0.19236,0.41231 0.0186,0.5053 -0.0626,0.0335 -0.40335,0.0445 -1.206902,0.039 -1.479772,-0.0107 -2.309961,0.0598 -3.475899,0.29332 -0.58166,0.1165 -0.589726,0.11648 -0.708126,-0.002 z m 7.057676,-0.0212 c -0.59064,-0.12351 -0.67547,-0.17326 -0.67547,-0.39612 0,-0.22151 0.1461,-0.32467 0.41095,-0.29018 0.27356,0.0357 0.88157,0.16823 1.01387,0.22114 0.20471,0.0818 0.24916,0.32579 0.0886,0.48633 -0.11914,0.11914 -0.17358,0.11777 -0.83798,-0.0212 z"
           id="path5988"
           inkscape:connector-curvature="0" />
      </g>
    </g>
  </g>
</svg>
