<?xml version="1.0" encoding="UTF-8" standalone="no"?>
<!-- Created with Inkscape (http://www.inkscape.org/) -->

<svg
   xmlns:dc="http://purl.org/dc/elements/1.1/"
   xmlns:cc="http://creativecommons.org/ns#"
   xmlns:rdf="http://www.w3.org/1999/02/22-rdf-syntax-ns#"
   xmlns:svg="http://www.w3.org/2000/svg"
   xmlns="http://www.w3.org/2000/svg"
   xmlns:sodipodi="http://sodipodi.sourceforge.net/DTD/sodipodi-0.dtd"
   xmlns:inkscape="http://www.inkscape.org/namespaces/inkscape"
   width="48.719303mm"
   height="16.450377mm"
   viewBox="0 0 48.719303 16.450377"
   version="1.1"
   id="svg6324"
   sodipodi:docname="mbuto.svg"
   inkscape:version="0.92.5 (2060ec1f9f, 2020-04-08)">
  <defs
     id="defs6318">
    <clipPath
       clipPathUnits="userSpaceOnUse"
       id="clipPath5849">
      <path
         style="fill:none;stroke:#000000;stroke-width:0.1;stroke-linecap:butt;stroke-linejoin:miter;stroke-miterlimit:4;stroke-dasharray:none;stroke-opacity:1"
         d="m 101.76287,185.04747 -1.30294,-0.0167 -2.372017,4.10927 0.05012,2.52236 -1.503392,1.85419 -2.505649,0.98555 -0.23386,-0.91874 7.065928,-12.72871 1.1526,-1.41987 0.66819,0.3675 -0.0668,3.20723 z"
         id="path5851"
         inkscape:connector-curvature="0" />
    </clipPath>
    <clipPath
       clipPathUnits="userSpaceOnUse"
       id="clipPath5819">
      <path
         style="fill:none;stroke:#000000;stroke-width:0.26458332px;stroke-linecap:butt;stroke-linejoin:miter;stroke-opacity:1"
         d="m 85.125346,161.09344 -3.34087,5.81311 0.334084,2.47225 6.614922,-0.16704 -0.03341,-6.41447 -1.80407,-1.57021 z"
         id="path5821"
         inkscape:connector-curvature="0" />
    </clipPath>
    <clipPath
       clipPathUnits="userSpaceOnUse"
       id="clipPath5831">
      <path
         style="fill:none;stroke:#000000;stroke-width:0.26458332px;stroke-linecap:butt;stroke-linejoin:miter;stroke-opacity:1"
         d="m 85.392612,160.69254 -3.307458,5.91334 -5.278573,-1.26953 2.037927,-8.58604 5.311984,1.50339 z"
         id="path5833"
         inkscape:connector-curvature="0" />
    </clipPath>
    <clipPath
       clipPathUnits="userSpaceOnUse"
       id="clipPath5686">
      <path
         inkscape:connector-curvature="0"
         id="path5688"
         d="m 81.737353,161.6609 -3.118305,5.45704 -3.614396,-1.22843 0.165365,-3.09468 2.244233,-1.29929 0.307104,-2.64583 3.449034,0.37797 -0.07087,2.66946 z"
         style="fill:none;stroke:#000000;stroke-width:0.26458332px;stroke-linecap:butt;stroke-linejoin:miter;stroke-opacity:1"
         sodipodi:nodetypes="ccccccccc" />
    </clipPath>
    <clipPath
       clipPathUnits="userSpaceOnUse"
       id="clipPath5831-6">
      <path
         style="fill:none;stroke:#000000;stroke-width:0.26458332px;stroke-linecap:butt;stroke-linejoin:miter;stroke-opacity:1"
         d="m 85.392612,160.69254 -3.307458,5.91334 -5.278573,-1.26953 2.037927,-8.58604 5.311984,1.50339 z"
         id="path5833-2"
         inkscape:connector-curvature="0" />
    </clipPath>
  </defs>
  <sodipodi:namedview
     id="base"
     pagecolor="#ffffff"
     bordercolor="#666666"
     borderopacity="1.0"
     inkscape:pageopacity="0.0"
     inkscape:pageshadow="2"
     inkscape:zoom="3.959798"
     inkscape:cx="101.45203"
     inkscape:cy="20.15353"
     inkscape:document-units="mm"
     inkscape:current-layer="layer1"
     showgrid="false"
     inkscape:window-width="1115"
     inkscape:window-height="1040"
     inkscape:window-x="801"
     inkscape:window-y="38"
     inkscape:window-maximized="0"
     inkscape:snap-global="false"
     inkscape:snap-bbox="false"
     inkscape:snap-to-guides="true"
     inkscape:snap-page="true"
     inkscape:pagecheckerboard="true"
     fit-margin-top="0"
     fit-margin-left="0"
     fit-margin-right="0"
     fit-margin-bottom="0" />
  <metadata
     id="metadata6321">
    <rdf:RDF>
      <cc:Work
         rdf:about="">
        <dc:format>image/svg+xml</dc:format>
        <dc:type
           rdf:resource="http://purl.org/dc/dcmitype/StillImage" />
        <dc:title></dc:title>
      </cc:Work>
    </rdf:RDF>
  </metadata>
  <g
     inkscape:label="Layer 1"
     inkscape:groupmode="layer"
     id="layer1"
     transform="translate(-0.02869341,0.00991)">
    <g
       id="g7381">
      <path
         sodipodi:nodetypes="ccccccc"
         inkscape:connector-curvature="0"
         id="path6960"
         d="m 18.662236,6.49401 h 1.937128 l 0.05906,0.1535528 c -0.390019,0.4570246 -1.204881,1.8651462 -1.44754,2.1949601 l -0.4069,-0.068844 -0.141741,-0.094494 z"
         style="fill:#ffffff;stroke:none;stroke-width:0.26458332px;stroke-linecap:butt;stroke-linejoin:miter;stroke-opacity:1" />
      <path
         inkscape:connector-curvature="0"
         id="path6958"
         d="m 15.79198,5.7026225 1.81901,-0.035435 0.188988,0.1653645 v 2.0198104 l -0.236235,0.1181174 -1.677269,0.023625 -0.212612,-0.2480469 0.04725,-1.9016927 z"
         style="fill:#ffffff;stroke:none;stroke-width:0.26458332px;stroke-linecap:butt;stroke-linejoin:miter;stroke-opacity:1" />
      <path
         inkscape:connector-curvature="0"
         id="path6956"
         d="m 18.426001,1.7574959 1.228423,-0.035435 1.228422,0.07087 0.04725,0.9567521 -0.04725,0.9803759 -1.192987,0.07087 -1.252046,-0.035435 -0.09449,-0.9449404 0.02362,-0.8386347 z"
         style="fill:#ffffff;stroke:none;stroke-width:0.26458332px;stroke-linecap:butt;stroke-linejoin:miter;stroke-opacity:1" />
    </g>
    <g
       id="g7397">
      <g
         id="g7203">
        <path
           style="fill:#ffffff;stroke:none;stroke-width:0.26458332px;stroke-linecap:butt;stroke-linejoin:miter;stroke-opacity:1"
           d="m 2.3258394,1.30177 10.3566926,-0.0167 1.887592,3.3909824 -0.06682,3.3241657 -0.451018,0.6013548 0.551244,0.5178348 -0.06682,2.2884963 -0.384201,0.501129 c 0,0 0.41761,0.851922 0.41761,0.751695 0,-0.100226 0,2.3052 0,2.3052 l -0.868621,0.334087 -12.6953026,0.08352 -0.56794701,-0.751696 -0.0167,-2.088043 0.451017,-0.584653 -0.3842,-0.651469 0.03341,-2.3553131 0.334087,-0.4510172 -0.501131,-0.7182866 0.08352,-3.157121 L 1.9583474,1.535632 Z"
           id="path6850"
           inkscape:connector-curvature="0" />
      </g>
      <path
         inkscape:connector-curvature="0"
         id="path5696"
         d="M 0.960258,15.55444 C 0.695958,15.50664 0.438029,15.35415 0.274668,15.14915 0.184708,15.03625 0.088727,14.8441 0.054399,14.70816 l -0.02566,-0.1016 V 13.5962 c 0,-0.9216 0.0017,-1.01703 0.01956,-1.08641 0.05191,-0.20183 0.146331,-0.37722 0.280347,-0.52072 l 0.0805,-0.0862 -0.0805,-0.0862 C 0.19463,11.67317 0.100205,11.49778 0.048299,11.29595 c -0.01784,-0.0694 -0.01956,-0.16481 -0.01956,-1.08641 0,-0.92161 0.0017,-1.01704 0.01956,-1.08642 C 0.100209,8.92129 0.19463,8.74591 0.328646,8.6024 L 0.409146,8.5162 0.328646,8.43 C 0.19463,8.2865 0.100205,8.11111 0.048299,7.90928 0.030199,7.83888 0.028739,7.71486 0.028739,6.24714 c 0,-1.75128 -0.0043,-1.63817 0.07062,-1.86831 0.03653,-0.11226 1.404415,-2.85444 1.486646,-2.98027 0.17215,-0.26342 0.462327,-0.44623 0.77799,-0.49014 0.124074,-0.0173 9.869673,-0.0173 9.993747,0 0.315663,0.0439 0.60584,0.22672 0.777989,0.49014 0.08223,0.12583 1.450112,2.86801 1.486647,2.98027 0.0749,0.23014 0.07062,0.11703 0.07062,1.86831 0,1.46772 -0.0015,1.59176 -0.01956,1.66214 C 14.621528,8.11111 14.527107,8.2865 14.393091,8.43 l -0.0805,0.0862 0.0805,0.0862 c 0.134016,0.14351 0.228442,0.31889 0.280347,0.52072 0.01784,0.0694 0.01956,0.16481 0.01956,1.08642 0,0.9216 -0.0017,1.01703 -0.01956,1.08641 -0.05192,0.2019 -0.14633,0.37722 -0.280473,0.52086 l -0.08063,0.0863 0.07625,0.0808 c 0.132575,0.14053 0.222843,0.30335 0.279394,0.50394 0.02403,0.0852 0.02449,0.10238 0.02813,1.04621 0.0025,0.65589 -2.48e-4,0.98943 -0.0088,1.05398 -0.06436,0.48757 -0.444397,0.8815 -0.932556,0.96663 -0.08635,0.0151 -0.82941,0.0169 -6.403869,0.016 -5.250405,-8.5e-4 -6.320333,-0.004 -6.390673,-0.0163 z m 12.724663,-0.5596 c 0.210768,-0.044 0.39286,-0.22605 0.436814,-0.43681 0.01739,-0.0834 0.01739,-1.84026 0,-1.92365 -0.04412,-0.21156 -0.225254,-0.39269 -0.436814,-0.43681 -0.08524,-0.0178 -12.562848,-0.0178 -12.648089,0 -0.21156,0.0441 -0.392696,0.22525 -0.436814,0.43681 -0.01739,0.0834 -0.01739,1.84026 0,1.92365 0.04288,0.20563 0.215546,0.38356 0.42043,0.43326 0.07945,0.0193 12.572294,0.0228 12.664473,0.004 z m -1.639155,-0.55866 c -0.197618,-0.0362 -0.333361,-0.10349 -0.469623,-0.23292 -0.176481,-0.16764 -0.258273,-0.35989 -0.258273,-0.60706 0,-0.0734 0.0068,-0.15646 0.0156,-0.1911 0.107609,-0.42269 0.504239,-0.7007 0.92396,-0.64764 0.3314,0.0419 0.594032,0.25867 0.70528,0.58213 0.03335,0.097 0.03584,0.11482 0.03584,0.25661 0,0.14152 -0.0025,0.15978 -0.03553,0.25567 -0.04932,0.14338 -0.116492,0.25035 -0.218389,0.34781 -0.11486,0.10986 -0.236923,0.17913 -0.388429,0.22043 -0.04885,0.0133 -0.264483,0.0245 -0.310444,0.0161 z m 0.26511,-0.52353 c 0.216975,-0.10608 0.265769,-0.39409 0.0956,-0.56426 -0.219784,-0.21979 -0.597774,-0.0637 -0.597774,0.24682 0,0.15176 0.08932,0.2792 0.234387,0.33442 0.06584,0.0251 0.19908,0.0166 0.26779,-0.017 z M 1.89802,14.14126 c -0.06664,-0.0235 -0.139488,-0.0981 -0.162892,-0.16683 -0.02766,-0.0812 -0.02766,-0.67526 0,-0.75645 0.03548,-0.10412 0.151657,-0.18622 0.263526,-0.18622 0.11187,0 0.228048,0.0821 0.263526,0.18622 0.02766,0.0812 0.02766,0.67526 0,0.75645 -0.04886,0.14341 -0.215001,0.21952 -0.36416,0.16683 z m 1.411111,0 c -0.06664,-0.0235 -0.139487,-0.0981 -0.162891,-0.16683 -0.02766,-0.0812 -0.02766,-0.67526 0,-0.75645 0.03548,-0.10412 0.151656,-0.18622 0.263525,-0.18622 0.11187,0 0.228048,0.0821 0.263526,0.18622 0.02766,0.0812 0.02766,0.67526 0,0.75645 -0.04886,0.14341 -0.215001,0.21952 -0.36416,0.16683 z m 1.411111,0 c -0.06664,-0.0235 -0.139487,-0.0981 -0.162891,-0.16683 -0.02766,-0.0812 -0.02766,-0.67526 0,-0.75645 0.03548,-0.10412 0.151656,-0.18622 0.263525,-0.18622 0.11187,0 0.228048,0.0821 0.263526,0.18622 0.02766,0.0812 0.02766,0.67526 0,0.75645 -0.04886,0.14341 -0.215,0.21952 -0.36416,0.16683 z m 1.411111,0 c -0.06664,-0.0235 -0.139487,-0.0981 -0.162891,-0.16683 -0.02766,-0.0812 -0.02766,-0.67526 0,-0.75645 0.03548,-0.10412 0.151656,-0.18622 0.263526,-0.18622 0.111869,0 0.228048,0.0821 0.263525,0.18622 0.02766,0.0812 0.02766,0.67526 0,0.75645 -0.04886,0.14341 -0.215,0.21952 -0.36416,0.16683 z m 1.411111,0 c -0.06664,-0.0235 -0.139487,-0.0981 -0.162891,-0.16683 -0.02766,-0.0812 -0.02766,-0.67526 0,-0.75645 0.03548,-0.10412 0.151656,-0.18622 0.263526,-0.18622 0.111869,0 0.228048,0.0821 0.263525,0.18622 0.02766,0.0812 0.02766,0.67526 0,0.75645 -0.04886,0.14341 -0.215,0.21952 -0.36416,0.16683 z m 1.128889,-0.28222 c -0.09959,-0.0352 -0.181588,-0.15387 -0.181588,-0.26284 0,-0.0682 0.03368,-0.14716 0.08437,-0.19785 0.0879,-0.0879 0.04422,-0.0844 1.044519,-0.0844 1.000304,0 0.956622,-0.004 1.04452,0.0844 0.110423,0.11042 0.110423,0.28528 0,0.39571 -0.08803,0.088 -0.04339,0.0845 -1.049353,0.0835 -0.778138,-7.8e-4 -0.899025,-0.003 -0.942468,-0.0185 z m 5.013568,-2.25087 c 0.210768,-0.0439 0.39286,-0.22604 0.436814,-0.43681 0.01739,-0.0834 0.01739,-1.84026 0,-1.92365 C 14.077615,9.03615 13.896481,8.85502 13.684921,8.8109 13.599681,8.7931 1.122073,8.7931 1.036832,8.8109 0.825272,8.855 0.644136,9.03615 0.600018,9.24771 c -0.01739,0.0834 -0.01739,1.84026 0,1.92365 0.04288,0.20563 0.215546,0.38356 0.42043,0.43326 0.07945,0.0193 12.572294,0.0228 12.664473,0.004 z m -1.639155,-0.55866 c -0.197618,-0.0362 -0.333361,-0.10348 -0.469623,-0.23292 -0.176481,-0.16764 -0.258273,-0.35988 -0.258273,-0.60705 0,-0.0734 0.0068,-0.15647 0.0156,-0.19111 0.107609,-0.42268 0.504239,-0.7007 0.92396,-0.64763 0.3314,0.0419 0.594032,0.25867 0.70528,0.58213 0.03335,0.0969 0.03584,0.11482 0.03584,0.25661 0,0.14151 -0.0025,0.15977 -0.03553,0.25567 -0.04932,0.14337 -0.116492,0.25034 -0.218389,0.3478 -0.11486,0.10986 -0.236923,0.17913 -0.388429,0.22044 -0.04885,0.0133 -0.264483,0.0245 -0.310444,0.0161 z m 0.254,-0.53381 c 0.08343,-0.04 0.130763,-0.0886 0.170125,-0.17478 0.05874,-0.12854 0.02083,-0.29014 -0.09119,-0.38875 -0.08977,-0.079 -0.220049,-0.10296 -0.339387,-0.0624 -0.07566,0.0257 -0.174673,0.12474 -0.200402,0.2004 -0.09785,0.28775 0.191353,0.55477 0.460859,0.42551 z M 1.89802,10.7546 C 1.83138,10.7311 1.758532,10.6564 1.735128,10.58776 c -0.02766,-0.0812 -0.02766,-0.67526 0,-0.75645 0.03548,-0.10412 0.151657,-0.18622 0.263526,-0.18622 0.11187,0 0.228048,0.0821 0.263526,0.18622 0.02766,0.0812 0.02766,0.67526 0,0.75645 -0.04886,0.14341 -0.215001,0.21952 -0.36416,0.16684 z m 1.411111,0 C 3.242491,10.7311 3.169644,10.6564 3.14624,10.58776 3.11858,10.50656 3.11858,9.9125 3.14624,9.83131 3.18172,9.72719 3.297896,9.64509 3.409765,9.64509 c 0.11187,0 0.228048,0.0821 0.263526,0.18622 0.02766,0.0812 0.02766,0.67526 0,0.75645 -0.04886,0.14341 -0.215001,0.21952 -0.36416,0.16684 z m 1.411111,0 c -0.06664,-0.0235 -0.139487,-0.0982 -0.162891,-0.16684 -0.02766,-0.0812 -0.02766,-0.67526 0,-0.75645 0.03548,-0.10412 0.151656,-0.18622 0.263525,-0.18622 0.11187,0 0.228048,0.0821 0.263526,0.18622 0.02766,0.0812 0.02766,0.67526 0,0.75645 -0.04886,0.14341 -0.215,0.21952 -0.36416,0.16684 z m 1.411111,0 c -0.06664,-0.0235 -0.139487,-0.0982 -0.162891,-0.16684 -0.02766,-0.0812 -0.02766,-0.67526 0,-0.75645 0.03548,-0.10412 0.151656,-0.18622 0.263526,-0.18622 0.111869,0 0.228048,0.0821 0.263525,0.18622 0.02766,0.0812 0.02766,0.67526 0,0.75645 -0.04886,0.14341 -0.215,0.21952 -0.36416,0.16684 z m 1.411111,0 c -0.06664,-0.0235 -0.139487,-0.0982 -0.162891,-0.16684 -0.02766,-0.0812 -0.02766,-0.67526 0,-0.75645 0.03548,-0.10412 0.151656,-0.18622 0.263526,-0.18622 0.111869,0 0.228048,0.0821 0.263525,0.18622 0.02766,0.0812 0.02766,0.67526 0,0.75645 -0.04886,0.14341 -0.215,0.21952 -0.36416,0.16684 z m 1.128889,-0.28222 c -0.09959,-0.0352 -0.181588,-0.15387 -0.181588,-0.26284 0,-0.0682 0.03368,-0.14716 0.08437,-0.19786 0.0879,-0.0879 0.04422,-0.0844 1.044519,-0.0844 1.000304,0 0.956622,-0.004 1.04452,0.0844 0.110423,0.11043 0.110423,0.28529 0,0.39571 -0.08803,0.088 -0.04339,0.0845 -1.049353,0.0835 -0.778138,-7.8e-4 -0.899025,-0.003 -0.942468,-0.0185 z m 5.013568,-2.25087 c 0.210768,-0.044 0.39286,-0.22605 0.436814,-0.43682 0.0086,-0.0414 0.01247,-0.41563 0.01247,-1.21638 V 5.41176 H 7.360872 0.587538 v 1.15655 c 0,0.80075 0.0038,1.17496 0.01247,1.21638 0.04288,0.20563 0.215546,0.38357 0.42043,0.43326 0.07945,0.0193 12.572294,0.0228 12.664473,0.004 z M 12.045766,7.66285 C 11.848148,7.62665 11.712405,7.55936 11.576143,7.42993 11.399662,7.26229 11.31787,7.07004 11.31787,6.82287 c 0,-0.0734 0.0068,-0.15646 0.0156,-0.1911 0.107609,-0.42269 0.504239,-0.7007 0.92396,-0.64764 0.3314,0.0419 0.594032,0.25867 0.70528,0.58213 0.03335,0.097 0.03584,0.11482 0.03584,0.25661 0,0.14151 -0.0025,0.15978 -0.03553,0.25567 -0.04932,0.14338 -0.116492,0.25035 -0.218389,0.34781 -0.11486,0.10985 -0.236923,0.17912 -0.388429,0.22043 -0.04885,0.0133 -0.264483,0.0245 -0.310444,0.0161 z m 0.248355,-0.53033 c 0.07726,-0.0358 0.128749,-0.0842 0.167248,-0.15725 0.0253,-0.048 0.02981,-0.0708 0.03004,-0.1524 3.27e-4,-0.11659 -0.02701,-0.17996 -0.109723,-0.25433 -0.134862,-0.12125 -0.330215,-0.11429 -0.460932,0.0164 -0.07222,0.0722 -0.100733,0.13926 -0.100819,0.23709 -2.14e-4,0.24379 0.256104,0.41161 0.474189,0.31046 z M 1.89802,7.36793 C 1.83138,7.34443 1.758532,7.26973 1.735128,7.2011 c -0.02766,-0.0812 -0.02766,-0.67526 0,-0.75646 0.03548,-0.10412 0.151657,-0.18621 0.263526,-0.18621 0.11187,0 0.228048,0.0821 0.263526,0.18621 0.02766,0.0812 0.02766,0.67527 0,0.75646 C 2.21332,7.3445 2.047179,7.42061 1.89802,7.36793 Z m 1.411111,0 C 3.242491,7.34443 3.169644,7.26973 3.14624,7.2011 3.11858,7.1199 3.11858,6.52584 3.14624,6.44464 3.18172,6.34052 3.297896,6.25843 3.409765,6.25843 c 0.11187,0 0.228048,0.0821 0.263526,0.18621 0.02766,0.0812 0.02766,0.67527 0,0.75646 -0.04886,0.1434 -0.215001,0.21951 -0.36416,0.16683 z m 1.411111,0 C 4.653602,7.34443 4.580755,7.26973 4.557351,7.2011 c -0.02766,-0.0812 -0.02766,-0.67526 0,-0.75646 0.03548,-0.10412 0.151656,-0.18621 0.263525,-0.18621 0.11187,0 0.228048,0.0821 0.263526,0.18621 0.02766,0.0812 0.02766,0.67527 0,0.75646 -0.04886,0.1434 -0.215,0.21951 -0.36416,0.16683 z m 1.411111,0 C 6.064713,7.34443 5.991866,7.26973 5.968462,7.2011 c -0.02766,-0.0812 -0.02766,-0.67526 0,-0.75646 0.03548,-0.10412 0.151656,-0.18621 0.263526,-0.18621 0.111869,0 0.228048,0.0821 0.263525,0.18621 0.02766,0.0812 0.02766,0.67527 0,0.75646 -0.04886,0.1434 -0.215,0.21951 -0.36416,0.16683 z m 1.411111,0 C 7.475824,7.34443 7.402977,7.26973 7.379573,7.2011 c -0.02766,-0.0812 -0.02766,-0.67526 0,-0.75646 0.03548,-0.10412 0.151656,-0.18621 0.263526,-0.18621 0.111869,0 0.228048,0.0821 0.263525,0.18621 0.02766,0.0812 0.02766,0.67527 0,0.75646 -0.04886,0.1434 -0.215,0.21951 -0.36416,0.16683 z M 8.671353,7.08571 C 8.571763,7.05051 8.489765,6.93184 8.489765,6.82287 c 0,-0.0682 0.03368,-0.14716 0.08437,-0.19785 0.0879,-0.0879 0.04422,-0.0844 1.044519,-0.0844 1.000304,0 0.956622,-0.004 1.04452,0.0844 0.110423,0.11042 0.110423,0.28528 0,0.3957 -0.08803,0.088 -0.04339,0.0845 -1.049353,0.0835 -0.778138,-7.8e-4 -0.899025,-0.003 -0.942468,-0.0185 z m 5.459123,-2.32024 c -0.0039,-0.045 -0.01465,-0.11232 -0.02393,-0.14958 -0.01082,-0.0434 -0.272798,-0.58033 -0.728673,-1.49345 -0.707285,-1.4167 -0.712232,-1.42616 -0.782166,-1.49578 -0.07653,-0.0762 -0.156714,-0.12176 -0.26162,-0.14872 -0.05992,-0.0154 -0.604123,-0.0173 -4.973206,-0.0173 -4.367368,0 -4.91331,0.002 -4.973207,0.0173 -0.105665,0.0271 -0.182999,0.0705 -0.259306,0.14528 -0.07045,0.0691 -0.07097,0.0701 -0.78338,1.49704 -0.45661,0.91459 -0.718958,1.45227 -0.729774,1.49565 -0.0093,0.0373 -0.02006,0.10457 -0.02393,0.14958 l -0.007,0.0818 h 6.776647 6.776646 z M 2.462464,2.57015 C 2.362874,2.53495 2.280876,2.41629 2.280876,2.30731 c 0,-0.11186 0.0821,-0.22804 0.186218,-0.26352 0.05064,-0.0172 0.341209,-0.0187 3.764894,-0.0187 4.162202,0 3.773899,-0.008 3.866741,0.0844 0.110423,0.11042 0.110423,0.28528 0,0.39571 -0.09287,0.0929 0.296351,0.0845 -3.871575,0.0835 -3.334478,-8e-4 -3.719958,-0.003 -3.76469,-0.0185 z m 8.466667,0 c -0.09958,-0.0352 -0.181588,-0.15386 -0.181588,-0.26284 0,-0.0682 0.03368,-0.14716 0.08437,-0.19785 0.08526,-0.0853 0.07721,-0.0844 0.762297,-0.0844 0.685092,0 0.677035,-8.9e-4 0.762297,0.0844 0.110423,0.11042 0.110423,0.28528 0,0.39571 -0.08547,0.0855 -0.07642,0.0845 -0.76713,0.0835 -0.522471,-7.7e-4 -0.617591,-0.003 -0.660246,-0.0185 z"
         style="fill:#000000;stroke-width:0.01128889" />
    </g>
    <path
       style="fill:none;stroke:#000000;stroke-width:0.40000001;stroke-linecap:butt;stroke-linejoin:miter;stroke-miterlimit:4;stroke-dasharray:0.4, 0.4;stroke-dashoffset:0;stroke-opacity:1"
       d="m 31.780878,11.58612 -3.050693,-0.0472"
       id="path5700"
       inkscape:connector-curvature="0"
       sodipodi:nodetypes="cc" />
    <g
       id="g7406">
      <path
         inkscape:connector-curvature="0"
         id="path7383"
         d="m 22.830124,2.7094947 -5.011303,8.6027373 1.720547,1.002261 4.911078,-1.737252 4.409948,2.488948 0.133634,-0.300678 -0.05011,-1.904296 -3.424391,-2.0212256 -1.069078,-5.2451643 z"
         style="fill:#ffffff;stroke:none;stroke-width:0.26458332px;stroke-linecap:butt;stroke-linejoin:miter;stroke-opacity:1" />
      <path
         inkscape:connector-curvature="0"
         id="path5702"
         d="m 29.029765,13.34399 c -0.0814,0.0218 -0.68437,-0.30251 -2.34892,-1.26354 l -2.239359,-1.2929 -1.638081,0.58345 c -0.900944,0.3209 -1.836787,0.65694 -2.079651,0.74675 -0.242863,0.0898 -0.627497,0.22147 -0.854743,0.29256 l -0.413172,0.12924 -0.906597,-0.52342 c -0.627957,-0.36255 -0.91562,-0.5571 -0.935953,-0.63298 -0.0425,-0.1586 4.974337,-8.848 5.132931,-8.8905 0.122114,-0.0327 1.881047,0.95246 1.944731,1.08924 0.03159,0.0679 0.399589,1.98622 0.562618,2.93291 0.03198,0.1857 0.134981,0.75534 0.228889,1.26585 l 0.170743,0.9282 1.710684,0.98885 c 0.94089,0.54384 1.72748,1.02405 1.748,1.06709 0.0419,0.0879 0.0909,2.43991 0.0522,2.5069 -0.0136,0.0236 -0.0741,0.0562 -0.13435,0.0723 z m -0.25853,-1.24465 c -0.006,-0.34741 -0.005,-0.74134 0.002,-0.87539 l 0.0123,-0.24373 -1.61918,-0.93483 -1.619173,-0.93484 -0.263249,0.45596 c -0.193231,0.33469 -0.297405,0.46179 -0.39167,0.47789 -0.102457,0.0175 -0.137566,-0.003 -0.173643,-0.10025 -0.03407,-0.0921 0.02974,-0.25262 0.25875,-0.6511 l 0.30397,-0.52892 -0.419061,-2.2459 -0.419062,-2.24589 -1.488869,2.544 c -1.270235,2.17042 -1.507597,2.54719 -1.616408,2.56577 -0.101319,0.0173 -0.136835,-0.003 -0.172759,-0.1004 -0.03902,-0.10543 0.169607,-0.49427 1.521312,-2.83549 L 24.253025,3.7329 23.558455,3.33189 22.863884,2.93088 20.457823,7.0983 l -2.406062,4.16742 0.69457,0.40102 0.69457,0.40101 0.313375,-0.54279 c 0.237788,-0.41186 0.344351,-0.54807 0.441797,-0.56471 0.232344,-0.0397 0.236851,0.17561 0.01271,0.60708 l -0.203517,0.39176 1.021722,-0.36614 c 2.661217,-0.95366 3.349237,-1.19472 3.428708,-1.20132 0.04722,-0.004 1.03027,0.5376 2.184549,1.20337 1.15428,0.66578 2.10837,1.19374 2.1202,1.17325 0.0118,-0.0205 0.0168,-0.3215 0.011,-0.66891 z m -0.7296,-0.25194 c -0.17403,0.0466 -1.57064,-0.77993 -1.59906,-0.94637 -0.0175,-0.10246 0.003,-0.13757 0.10025,-0.17365 0.0969,-0.0358 0.27433,0.0426 0.85597,0.37843 0.68286,0.39426 0.85089,0.54163 0.77245,0.6775 -0.011,0.0191 -0.0694,0.0479 -0.12961,0.0641 z m -2.08371,-1.20303 c -0.155059,0.0415 -0.53095,-0.1911 -0.557207,-0.34486 -0.01749,-0.10246 0.0028,-0.13757 0.100253,-0.17364 0.217871,-0.0806 0.686064,0.28207 0.586564,0.45441 -0.011,0.0191 -0.0694,0.0479 -0.12961,0.0641 z m -5.321109,-0.0469 c -0.224906,0.0384 -0.242908,-0.18079 -0.04325,-0.5266 0.115333,-0.19977 0.219695,-0.3117 0.304035,-0.3261 0.224906,-0.0384 0.242908,0.18078 0.04325,0.5266 -0.115332,0.19976 -0.219695,0.3117 -0.304035,0.3261 z m -1.272038,0.63929 c -0.15506,0.0416 -0.530951,-0.19109 -0.557207,-0.34485 -0.03356,-0.19651 0.179711,-0.24353 0.435294,-0.096 0.291181,0.16811 0.34972,0.37978 0.121913,0.44082 z m 0.501263,-0.86821 c -0.15506,0.0416 -0.530951,-0.19109 -0.557207,-0.34485 -0.03356,-0.19652 0.17971,-0.24353 0.435294,-0.096 0.291181,0.16811 0.34972,0.37978 0.121913,0.44082 z m 0.501263,-0.86821 c -0.15506,0.0416 -0.530951,-0.19109 -0.557207,-0.34486 -0.03356,-0.19651 0.17971,-0.24353 0.435294,-0.096 0.291181,0.16811 0.34972,0.37978 0.121913,0.44082 z m 0.501263,-0.86821 c -0.15506,0.0415 -0.530951,-0.19109 -0.557207,-0.34486 -0.03356,-0.19651 0.17971,-0.24353 0.435294,-0.096 0.291181,0.16812 0.349719,0.37979 0.121913,0.44083 z m 0.501262,-0.86822 c -0.155059,0.0416 -0.53095,-0.19109 -0.557207,-0.34485 -0.03356,-0.19651 0.179711,-0.24353 0.435295,-0.096 0.291181,0.16811 0.349719,0.37978 0.121912,0.44082 z M 21.871092,6.8957 c -0.155059,0.0416 -0.53095,-0.19109 -0.557207,-0.34486 -0.03355,-0.19651 0.179711,-0.24352 0.435294,-0.096 0.291181,0.16811 0.34972,0.37978 0.121913,0.44082 z m 0.501263,-0.86821 c -0.155059,0.0416 -0.53095,-0.19109 -0.557207,-0.34486 -0.03356,-0.19651 0.179711,-0.24353 0.435294,-0.096 0.291181,0.16812 0.34972,0.37979 0.121913,0.44083 z m 0.501263,-0.86821 c -0.15506,0.0415 -0.530951,-0.1911 -0.557207,-0.34486 -0.03356,-0.19651 0.17971,-0.24353 0.435294,-0.096 0.291181,0.16812 0.34972,0.37978 0.121913,0.44083 z m 0.501263,-0.86822 c -0.15506,0.0416 -0.530951,-0.19109 -0.557207,-0.34485 -0.03356,-0.19651 0.17971,-0.24353 0.435294,-0.096 0.291181,0.16811 0.34972,0.37978 0.121913,0.44082 z"
         style="fill:#000000;stroke-width:0.06683505" />
    </g>
    <path
       sodipodi:nodetypes="cc"
       inkscape:connector-curvature="0"
       id="path5704"
       d="M 31.599994,12.34068 H 28.930635"
       style="fill:none;stroke:#000000;stroke-width:0.40000001;stroke-linecap:butt;stroke-linejoin:miter;stroke-miterlimit:4;stroke-dasharray:0.4, 0.4;stroke-dashoffset:0;stroke-opacity:1" />
    <path
       clip-path="url(#clipPath5686)"
       inkscape:connector-curvature="0"
       id="path5706"
       d="m 78.478762,166.67203 c -0.254054,-0.0936 -0.265196,-0.15129 -0.25241,-1.30699 0.01394,-1.26 -0.02261,-1.18504 0.593334,-1.2169 l 0.425626,-0.022 0.01209,-0.668 0.01209,-0.66799 h -1.337128 -1.337128 v 0.28472 0.28472 l 0.361373,6.4e-4 c 0.427346,7.6e-4 0.561671,0.0567 0.632669,0.26331 0.07111,0.20696 0.07111,1.80547 0,2.01328 -0.08502,0.24849 -0.208915,0.28337 -1.059747,0.29831 -0.846406,0.0149 -1.043209,-0.0249 -1.167137,-0.23602 -0.06423,-0.1094 -0.07529,-0.26567 -0.07804,-1.10209 -0.002,-0.62268 0.01262,-0.97462 0.0406,-0.97462 0.02409,0 0.0438,-0.0271 0.0438,-0.0603 0,-0.1283 0.146109,-0.18064 0.565206,-0.20247 l 0.420358,-0.0219 0.02558,-0.29779 c 0.04036,-0.46982 -0.04571,-0.44328 1.519965,-0.46876 l 1.345447,-0.0219 0.01259,-0.40517 0.01259,-0.40518 -0.450623,-0.003 c -0.507139,-0.004 -0.731472,-0.0643 -0.812664,-0.21935 -0.04069,-0.0777 -0.05233,-0.34704 -0.0438,-1.01328 0.01028,-0.80289 0.02062,-0.91644 0.08977,-0.98556 0.07047,-0.0705 0.193079,-0.0792 1.248381,-0.0895 1.298333,-0.0126 1.344721,-0.004 1.436999,0.25231 0.07498,0.20865 0.07515,1.54276 2.19e-4,1.75211 -0.08034,0.22448 -0.22984,0.28173 -0.781672,0.29934 l -0.470877,0.015 v 0.41225 0.41226 l 1.281234,6.4e-4 c 0.929393,4.7e-4 1.310298,0.0155 1.387071,0.0547 0.125062,0.0639 0.214707,0.28745 0.219351,0.54689 l 0.0033,0.18617 0.361374,6.4e-4 c 0.653418,0.001 0.683229,0.0566 0.683229,1.26964 0,0.95432 -0.03231,1.12102 -0.237697,1.22648 -0.182587,0.0937 -1.544357,0.11723 -1.79247,0.0309 -0.278457,-0.0969 -0.287274,-0.13901 -0.274311,-1.31065 0.01394,-1.26001 -0.02261,-1.18505 0.593334,-1.2169 l 0.425625,-0.022 0.014,-0.17104 c 0.0077,-0.0941 0.0024,-0.21727 -0.01179,-0.27377 l -0.02578,-0.10273 H 80.799442 79.48619 v 0.67894 0.67895 l 0.361374,6.4e-4 c 0.427346,7.6e-4 0.561671,0.0567 0.632669,0.26332 0.0711,0.20695 0.0711,1.80546 0,2.01327 -0.08595,0.25119 -0.206411,0.28396 -1.081648,0.29424 -0.537416,0.006 -0.812377,-0.008 -0.91986,-0.0475 z m 1.770886,-0.22748 c 0.05828,-0.0583 0.06883,-0.21224 0.06883,-1.00388 0,-0.51428 -0.01196,-0.96623 -0.02659,-1.00434 -0.02307,-0.0601 -0.147651,-0.0693 -0.941762,-0.0693 h -0.915173 v 1.04762 c 0,0.79711 0.01309,1.0529 0.05475,1.06971 0.03012,0.0121 0.422932,0.0237 0.872929,0.0255 0.688559,0.003 0.829079,-0.007 0.887007,-0.0654 z m -1.440685,-0.29685 c -0.165765,-0.12121 -0.03355,-0.15995 0.545856,-0.15995 0.579401,0 0.71162,0.0387 0.545856,0.15995 -0.05575,0.0408 -0.22484,0.0591 -0.545856,0.0591 -0.321016,0 -0.490108,-0.0183 -0.545856,-0.0591 z m -1.450303,-0.4916 c 0.05828,-0.0583 0.06883,-0.21224 0.06883,-1.00388 0,-0.51428 -0.01197,-0.96623 -0.02659,-1.00434 -0.02307,-0.0601 -0.14765,-0.0693 -0.941761,-0.0693 h -0.915174 v 1.04762 c 0,0.79711 0.01309,1.0529 0.05475,1.06971 0.03011,0.0122 0.422932,0.0237 0.872928,0.0256 0.688559,0.003 0.829079,-0.007 0.887008,-0.0654 z m -1.440686,-0.29685 c -0.165764,-0.12121 -0.03354,-0.15995 0.545856,-0.15995 0.579401,0 0.711621,0.0387 0.545856,0.15995 -0.05575,0.0408 -0.22484,0.0591 -0.545856,0.0591 -0.321016,0 -0.490107,-0.0183 -0.545856,-0.0591 z m 7.222663,0.29685 c 0.05828,-0.0583 0.06883,-0.21224 0.06883,-1.00388 0,-0.51428 -0.01196,-0.96623 -0.02659,-1.00434 -0.02307,-0.0601 -0.14765,-0.0693 -0.941761,-0.0693 h -0.915174 v 1.04762 c 0,0.79711 0.01309,1.0529 0.05475,1.06971 0.03011,0.0122 0.422932,0.0237 0.872928,0.0256 0.688559,0.003 0.82908,-0.007 0.887008,-0.0654 z m -1.440686,-0.29685 c -0.165764,-0.12121 -0.03355,-0.15995 0.545856,-0.15995 0.579402,0 0.711621,0.0387 0.545856,0.15995 -0.05575,0.0408 -0.22484,0.0591 -0.545856,0.0591 -0.321015,0 -0.490107,-0.0183 -0.545856,-0.0591 z m -1.187485,-3.90823 c 0.05757,-0.0576 0.06883,-0.20029 0.06883,-0.87247 0,-0.442 -0.01196,-0.83482 -0.02659,-0.87293 -0.02333,-0.0608 -0.170813,-0.0693 -1.204579,-0.0693 h -1.17799 v 0.91621 c 0,0.69199 0.0134,0.92162 0.05475,0.93831 0.03011,0.0122 0.5412,0.0237 1.135746,0.0256 0.927427,0.003 1.09077,-0.006 1.149825,-0.0654 z m -1.884855,-0.34312 c -0.03886,-0.10126 4.45e-4,-0.34653 0.05859,-0.36561 0.09111,-0.0299 0.165301,0.19002 0.107156,0.31764 -0.05522,0.12118 -0.129408,0.14265 -0.165741,0.048 z m 0.657043,0 c -0.03886,-0.10126 4.46e-4,-0.34653 0.05859,-0.36561 0.09111,-0.0299 0.165301,0.19002 0.107155,0.31764 -0.05521,0.12118 -0.129407,0.14265 -0.16574,0.048 z m 0.657042,0 c -0.03886,-0.10126 4.47e-4,-0.34653 0.05859,-0.36561 0.09111,-0.0299 0.165301,0.19002 0.107155,0.31764 -0.05521,0.12118 -0.129407,0.14265 -0.165741,0.048 z"
       style="fill:#000000;stroke-width:0.04380286"
       transform="translate(-59.684007,-157.76563)" />
    <g
       id="g7402">
      <g
         id="g7206">
        <path
           style="fill:#ffffff;stroke:none;stroke-width:0.26458332px;stroke-linecap:butt;stroke-linejoin:miter;stroke-opacity:1"
           d="M 32.744936,3.3110199 32.839426,13.54 l 0.708705,0.968565 2.315105,1.110305 3.189172,0.519717 3.614396,-0.09449 2.787576,-0.472469 1.700896,-0.826824 0.921313,-0.732328 0.496096,-0.755953 L 48.525445,3.1220319 47.651376,1.964479 45.2654,0.87779799 42.666808,0.38170397 l -3.023804,0.07087 -2.433224,0.118118 -2.763945,0.87407003 -1.299292,1.110305 z"
           id="path6856"
           inkscape:connector-curvature="0" />
      </g>
      <path
         inkscape:connector-curvature="0"
         id="path5751"
         d="m 39.874003,16.42313 c -0.08635,-0.006 -0.439749,-0.0311 -0.785274,-0.0539 C 37.242815,16.24738 35.557347,15.85177 34.28496,15.2417 33.441839,14.83745 32.709074,14.20086 32.465485,13.66104 32.289527,13.27109 32.296036,13.48164 32.296036,8.1837 V 3.1579 l 0.113825,-0.27485 c 0.147142,-0.3553 0.270601,-0.53019 0.599489,-0.8492 1.308743,-1.26948 4.154847,-2.04376 7.512516,-2.04376 4.26589,0 7.65093,1.26458 8.16942,3.05192 0.0477,0.16445 0.0564,0.96297 0.0564,5.18096 0,5.60448 0.0216,5.191 -0.29577,5.66626 -0.67512,1.011 -2.25085,1.7958 -4.4748,2.22872 -1.13894,0.2217 -3.211233,0.37584 -4.103103,0.3052 z m 1.459383,-0.6433 c 2.37871,-0.10804 4.07903,-0.50614 5.55048,-1.29957 0.45393,-0.24476 0.9678,-0.74053 1.13405,-1.09409 0.0989,-0.21032 0.10192,-0.24039 0.1145,-1.15123 0.008,-0.5144 0.003,-0.96193 -0.01,-0.99449 -0.0176,-0.046 -0.0688,-0.0203 -0.22891,0.11509 -0.3917,0.33115 -0.86015,0.61712 -1.01093,0.61712 -0.1123,0 -0.27502,-0.17127 -0.27502,-0.28948 0,-0.17242 0.045,-0.22416 0.38582,-0.44405 0.45887,-0.29603 0.67756,-0.48781 0.87145,-0.7642 0.24555,-0.35005 0.27302,-0.50363 0.27356,-1.52887 2.8e-4,-0.48769 -0.0116,-0.89881 -0.0264,-0.91358 -0.0148,-0.0148 -0.0811,0.0247 -0.14724,0.0879 -0.38424,0.36612 -1.28648,0.87304 -2.02468,1.13757 -1.55058,0.55565 -3.3316,0.82858 -5.41343,0.8296 -3.034323,10e-4 -5.679261,-0.63613 -7.138884,-1.72097 -0.168665,-0.12536 -0.330757,-0.25734 -0.360196,-0.29329 -0.02943,-0.036 -0.06917,-0.0556 -0.08839,-0.0438 -0.05972,0.037 -0.04167,1.77417 0.02094,2.00935 0.225256,0.84614 1.573308,1.66702 3.523943,2.14586 0.668517,0.16412 1.996482,0.37704 2.351447,0.37704 0.33617,0 0.52174,0.36184 0.282383,0.55063 -0.09999,0.0788 -0.135553,0.0831 -0.480981,0.0583 -0.644487,-0.0463 -1.648411,-0.2134 -2.375484,-0.3953 -1.278294,-0.31982 -2.4031,-0.83002 -3.05905,-1.38757 -0.127627,-0.10848 -0.246887,-0.18805 -0.265027,-0.17684 -0.01815,0.0112 -0.03276,0.41248 -0.03254,0.8917 6.23e-4,1.1511 0.04049,1.30446 0.455741,1.75298 0.954648,1.03114 3.418087,1.79455 6.199058,1.92106 0.388712,0.0177 0.745063,0.0348 0.79189,0.038 0.04683,0.003 0.488542,-0.0125 0.98161,-0.0348 z m -0.971979,-2.56178 c -0.121967,-0.0936 -0.153661,-0.22077 -0.153661,-0.61636 0,-0.36917 0.0064,-0.40377 0.09634,-0.49339 0.06079,-0.0608 0.141234,-0.0963 0.217737,-0.0963 0.07647,0 0.15698,0.0357 0.217738,0.0963 0.08957,0.0896 0.09634,0.12422 0.09634,0.49339 0,0.49869 -0.0783,0.66419 -0.31411,0.66419 -0.05402,0 -0.126198,-0.0215 -0.160459,-0.0478 z m 1.537529,-0.10386 c -0.0965,-0.0966 -0.13745,-0.36987 -0.10794,-0.7219 0.0281,-0.33572 0.10558,-0.43736 0.32861,-0.43104 0.24478,0.006 0.28693,0.0983 0.28693,0.62155 0,0.43326 -0.002,0.44636 -0.10343,0.52571 -0.12969,0.10203 -0.30534,0.1045 -0.40414,0.005 z m 1.65806,-0.18013 c -0.0648,-0.0273 -0.12932,-0.0795 -0.14335,-0.11602 -0.0141,-0.0365 -0.0256,-0.25631 -0.0256,-0.48833 0,-0.39018 0.006,-0.42825 0.0909,-0.50722 0.0962,-0.0904 0.25962,-0.11069 0.37875,-0.0469 0.10622,0.0568 0.15861,0.25034 0.15855,0.58583 -1.2e-4,0.48687 -0.16737,0.69542 -0.45931,0.57267 z m 1.57305,-0.33979 c -0.13249,-0.0641 -0.17135,-0.2043 -0.17135,-0.61812 0,-0.33054 0.0116,-0.40024 0.0814,-0.48895 0.10931,-0.13895 0.31537,-0.14219 0.45047,-0.008 0.0906,0.0906 0.0963,0.12174 0.0952,0.52025 -10e-4,0.44048 -0.0222,0.50872 -0.18267,0.59414 -0.10192,0.0543 -0.16039,0.0542 -0.27295,-2.3e-4 z m -2.95909,-3.19303 c 0.7059,-0.0592 0.92304,-0.0882 1.66872,-0.22346 1.00079,-0.18151 2.05803,-0.51716 2.78301,-0.88354 0.62945,-0.31809 1.2044,-0.8214 1.38937,-1.21624 0.10644,-0.22712 0.10752,-0.23817 0.12034,-1.18615 0.008,-0.59019 -0.002,-0.97163 -0.0256,-0.99534 -0.0251,-0.0251 -0.0637,-0.0132 -0.1111,0.0341 -0.3736,0.37352 -1.16143,0.82478 -1.9573,1.12113 -1.60761,0.59859 -3.30877,0.8631 -5.536225,0.86081 -1.561064,-0.001 -2.61772,-0.10612 -3.86752,-0.38252 -1.506171,-0.3331 -2.903339,-0.94988 -3.538936,-1.56227 -0.0784,-0.0756 -0.153522,-0.12646 -0.166872,-0.11311 -0.01332,0.0133 -0.02406,0.42329 -0.02384,0.91098 4.83e-4,0.90914 0.02674,1.12022 0.174905,1.40693 0.121118,0.23435 0.458749,0.55902 0.860187,0.82716 1.071556,0.71573 2.824065,1.21709 4.893322,1.3999 0.797958,0.0705 2.504929,0.0713 3.337449,10e-4 z M 42.328016,6.223 c 2.49669,-0.24091 4.4381,-0.91183 5.33188,-1.84261 0.59735,-0.62209 0.60373,-1.22375 0.0194,-1.83632 C 46.749786,1.56954 44.591966,0.85361 42.007026,0.6621 40.351765,0.53946 38.430505,0.6465 36.970714,0.94269 34.573843,1.429 32.930756,2.44973 32.930756,3.45241 c 0,0.55689 0.519742,1.14989 1.446229,1.65007 0.508691,0.27462 1.642078,0.66668 2.355843,0.81492 0.854173,0.17741 1.426976,0.26071 2.218418,0.32261 0.291545,0.0228 0.609574,0.048 0.706752,0.0562 0.366093,0.0304 2.084958,-0.0166 2.669968,-0.0731 z M 36.57403,2.17811 C 36.413453,2.01753 36.458025,1.77322 36.66264,1.69223 36.969467,1.57079 37.999748,1.3989 38.951074,1.31045 c 0.968943,-0.0901 2.839502,-0.0701 2.995252,0.032 0.18156,0.11903 0.19236,0.41231 0.0186,0.5053 -0.0626,0.0335 -0.40335,0.0445 -1.206902,0.039 -1.479772,-0.0107 -2.309961,0.0598 -3.475899,0.29332 -0.58166,0.1165 -0.589726,0.11648 -0.708126,-0.002 z m 7.057676,-0.0212 c -0.59064,-0.12351 -0.67547,-0.17326 -0.67547,-0.39612 0,-0.22151 0.1461,-0.32467 0.41095,-0.29018 0.27356,0.0357 0.88157,0.16823 1.01387,0.22114 0.20471,0.0818 0.24916,0.32579 0.0886,0.48633 -0.11914,0.11914 -0.17358,0.11777 -0.83798,-0.0212 z"
         style="fill:#000000;stroke-width:0.03926405" />
    </g>
  </g>
</svg>
