<?xml version="1.0" encoding="UTF-8" standalone="no"?>
<!-- Created with Inkscape (http://www.inkscape.org/) -->

<svg
   width="210mm"
   height="297mm"
   viewBox="0 0 210 297"
   version="1.1"
   id="svg1826"
   inkscape:version="1.1.2 (0a00cf5339, 2022-02-04)"
   sodipodi:docname="psycopg-2026-logo.svg"
   xmlns:inkscape="http://www.inkscape.org/namespaces/inkscape"
   xmlns:sodipodi="http://sodipodi.sourceforge.net/DTD/sodipodi-0.dtd"
   xmlns:xlink="http://www.w3.org/1999/xlink"
   xmlns="http://www.w3.org/2000/svg"
   xmlns:svg="http://www.w3.org/2000/svg">
  <sodipodi:namedview
     id="namedview1828"
     pagecolor="#ffffff"
     bordercolor="#666666"
     borderopacity="1.0"
     inkscape:pageshadow="2"
     inkscape:pageopacity="0.0"
     inkscape:pagecheckerboard="0"
     inkscape:document-units="mm"
     showgrid="false"
     inkscape:zoom="0.632065"
     inkscape:cx="301.39305"
     inkscape:cy="678.72766"
     inkscape:window-width="1577"
     inkscape:window-height="1160"
     inkscape:window-x="339"
     inkscape:window-y="38"
     inkscape:window-maximized="1"
     inkscape:current-layer="layer1" />
  <defs
     id="defs1823">
    <linearGradient
       inkscape:collect="always"
       id="linearGradient67500">
      <stop
         style="stop-color:#fdad0f;stop-opacity:1;"
         offset="0"
         id="stop67496" />
      <stop
         style="stop-color:#ffca0b;stop-opacity:1"
         offset="1"
         id="stop67498" />
    </linearGradient>
    <linearGradient
       inkscape:collect="always"
       id="Blue_gradient">
      <stop
         style="stop-color:#2185da;stop-opacity:1;"
         offset="0"
         id="stop41353" />
      <stop
         style="stop-color:#2a4c8a;stop-opacity:1"
         offset="1"
         id="stop41355" />
    </linearGradient>
    <linearGradient
       inkscape:collect="always"
       xlink:href="#Blue_gradient"
       id="linearGradient56167"
       gradientUnits="userSpaceOnUse"
       x1="219.37074"
       y1="130.02417"
       x2="217.40024"
       y2="269.48627" />
    <linearGradient
       inkscape:collect="always"
       xlink:href="#linearGradient67500"
       id="linearGradient67502"
       x1="131.20155"
       y1="196.0782"
       x2="128.31464"
       y2="38.173634"
       gradientUnits="userSpaceOnUse" />
  </defs>
  <g
     inkscape:label="Yellow"
     inkscape:groupmode="layer"
     id="layer1"
     style="display:inline">
    <path
       style="fill:url(#linearGradient67502);stroke-width:1;fill-opacity:1"
       d="m 98.060471,196.05525 c -3.421063,-1.55951 -4.636026,-3.57067 -4.312497,-7.13861 0.222039,-2.44866 1.099616,-3.83503 3.210769,-5.07224 1.345148,-0.78831 2.32368,-0.95043 9.590137,-1.58889 4.45068,-0.39106 10.4734,-0.94936 13.38381,-1.24069 9.1761,-0.9185 12.37975,-1.2147 25.22362,-2.33212 10.45831,-0.90987 12.62949,-1.1912 13.16562,-1.70593 0.60692,-0.58269 0.64548,-1.89835 0.70555,-24.07567 0.0523,-19.29515 0.1495,-23.56284 0.54772,-24.04264 0.59644,-0.71861 2.56006,-0.76217 3.85488,-0.0855 1.80677,0.9442 8.3724,8.06499 8.97394,9.73273 0.34048,0.944 0.44167,6.17712 0.42974,22.225 l -0.0156,20.99028 -0.80775,1.7053 c -0.44426,0.93791 -1.71387,2.60479 -2.82136,3.70416 -2.44918,2.43126 -4.9814,3.43113 -9.92382,3.91854 -1.84206,0.18166 -4.9367,0.49194 -6.87698,0.68952 -1.94028,0.19758 -5.59153,0.52951 -8.11389,0.73761 -4.80289,0.39626 -11.89725,1.09173 -19.93195,1.95397 -2.61937,0.2811 -6.90562,0.6772 -9.525,0.88023 -2.61937,0.20303 -6.985,0.60162 -9.70139,0.88574 -5.978066,0.62528 -5.347479,0.63786 -7.055552,-0.14077 z M 215.53548,167.07237 c -7.35108,-3.26109 -10.04568,-4.88202 -12.96458,-7.79878 -1.30969,-1.30873 -2.38125,-2.54815 -2.38125,-2.75427 0,-0.20612 -0.22743,-0.37476 -0.5054,-0.37476 -0.27796,0 -0.61107,-0.33295 -0.74023,-0.73989 -0.12915,-0.40695 -1.85434,-2.66913 -3.83374,-5.02709 -1.9794,-2.35795 -4.93593,-5.95406 -6.57007,-7.99135 -1.63414,-2.03729 -3.06069,-3.78354 -3.17012,-3.88056 -0.10942,-0.097 -1.2251,-1.44395 -2.47928,-2.99319 -1.25418,-1.54925 -3.47096,-4.1827 -4.92616,-5.85212 -1.45521,-1.66943 -2.96334,-3.42132 -3.35139,-3.8931 -0.38806,-0.47179 -2.21436,-2.68021 -4.05845,-4.90761 -3.56687,-4.30829 -5.65424,-6.93849 -7.936,-9.99984 -0.77611,-1.04128 -2.29252,-2.986 -3.3698,-4.3216 -1.07727,-1.33561 -3.03383,-3.82948 -4.3479,-5.54196 -1.31407,-1.712465 -2.612,-3.37934 -2.88429,-3.704163 -0.27229,-0.324821 -2.03897,-2.574961 -3.92597,-5.000308 -1.88699,-2.425347 -3.7311,-4.727223 -4.09802,-5.115278 -0.36691,-0.388056 -1.16293,-1.419931 -1.76893,-2.293056 -0.95502,-1.376013 -1.75182,-2.363752 -3.2412,-4.017913 -0.19403,-0.215494 -0.78856,-1.026809 -1.32119,-1.80292 -0.53262,-0.776111 -1.59493,-2.082677 -2.36069,-2.903478 -1.1107,-1.190551 -3.77752,-4.430109 -5.74126,-6.9743 -0.42476,-0.550306 -5.73416,-7.089758 -9.60538,-11.830703 -1.92847,-2.361717 -3.70688,-4.370998 -3.95203,-4.465074 -0.40817,-0.15663 -1.67581,1.064006 -3.47779,3.348846 -0.38806,0.49204 -2.50506,3.050766 -4.70447,5.686051 -2.1994,2.635289 -6.21975,7.490185 -8.934113,10.788657 -4.546177,5.524483 -6.248831,7.574778 -7.94741,9.570082 -2.104806,2.4725 -7.191763,8.570077 -9.662859,11.582567 -6.724266,8.1975 -10.082118,11.66243 -12.217358,12.60695 -1.739713,0.76956 -11.827874,2.71518 -17.294247,3.3354 -1.539861,0.17471 -1.885097,0.10911 -2.078521,-0.39495 -0.523695,-1.36472 0.743627,-3.04978 11.293155,-15.015577 0.60423,-0.685349 1.970366,-2.272849 3.035861,-3.527778 1.065494,-1.25493 2.230906,-2.599193 2.589801,-2.987249 0.358895,-0.388055 1.63025,-1.881893 2.825235,-3.319635 1.194986,-1.437746 3.209474,-3.818996 4.476638,-5.291667 1.267164,-1.472674 2.695914,-3.172079 3.175,-3.776454 0.479086,-0.604379 2.231171,-2.668129 3.893524,-4.586112 1.662352,-1.917985 3.282897,-3.804743 3.601212,-4.192799 1.438536,-1.753718 5.684499,-6.805814 9.036252,-10.75187 2.016012,-2.373475 4.785243,-5.68777 6.153845,-7.365102 1.368605,-1.677333 2.656015,-3.230932 2.860915,-3.452444 0.2049,-0.221511 0.92816,-1.069497 1.60726,-1.884412 1.37365,-1.648373 4.28979,-3.733405 6.69135,-4.784288 1.21989,-0.533804 2.37591,-0.689663 5.11528,-0.689663 3.22839,0 3.7245,0.09294 5.64915,1.058334 2.67307,1.340789 5.99703,4.602891 10.42457,10.230556 0.6106,0.776111 1.33454,1.649236 1.60875,1.940277 0.27421,0.291042 1.52583,1.799167 2.78137,3.351389 2.38087,2.943444 2.51752,3.110156 4.24204,5.175219 0.58208,0.697029 1.55626,1.881501 2.16485,2.632163 0.60858,0.750662 2.3584,2.872966 3.88849,4.71623 1.53008,1.843264 4.18896,5.097639 5.90863,7.231945 1.71965,2.134305 3.3462,4.11868 3.61455,4.409722 0.26834,0.291042 1.29361,1.561042 2.27837,2.822222 0.98476,1.261181 2.39118,3.007431 3.12539,3.880556 1.95012,2.319094 6.68,8.047281 8.22853,9.965257 0.73665,0.912399 1.53111,1.861283 1.76547,2.108633 0.23436,0.247347 1.13759,1.322847 2.00718,2.389999 0.86958,1.067158 1.67324,2.019658 1.78589,2.116668 0.11266,0.097 0.90824,1.12889 1.76795,2.29306 3.15252,4.26895 17.00564,21.22343 18.30367,22.40139 0.1069,0.097 0.97615,1.12889 1.93166,2.29305 0.95551,1.16417 1.91018,2.27542 2.12148,2.46945 0.21131,0.19402 1.24325,1.46402 2.2932,2.82222 1.04995,1.35819 2.08311,2.62819 2.2959,2.82222 0.92332,0.8419 4.42851,5.18579 4.42851,5.48813 0,0.18299 0.23813,0.3327 0.52917,0.3327 0.29104,0 0.52917,0.16354 0.52917,0.3634 0,0.35127 2.01796,2.86066 5.77692,7.18377 0.99429,1.14351 1.95592,2.33413 2.13696,2.64583 0.18104,0.3117 0.78155,1.02071 1.33448,1.57557 3.53424,3.54661 5.38413,8.11399 4.51447,11.14629 -0.92539,3.22665 -3.022,3.60112 -7.942,1.41851 z"
       id="path2277"
       sodipodi:nodetypes="sssssssssssscssssssssssssssssssssssssssssssssssssssssssssssssssssssssssssssssssssssssssssssssssssss" />
    <path
       style="fill:#000000;stroke-width:1"
       id="path2203"
       d="" />
    <path
       style="fill:#000000;stroke-width:1"
       id="path2021"
       d="" />
  </g>
  <g
     inkscape:groupmode="layer"
     id="layer2"
     inkscape:label="Blue"
     style="display:inline">
    <path
       style="fill:url(#linearGradient56167);stroke-width:1;fill-opacity:1;opacity:1"
       d="m 111.45828,270.63176 c -2.75199,-0.87009 -5.66585,-2.61905 -8.28253,-4.97132 -2.58734,-2.3259 -5.969601,-5.61386 -23.037784,-22.39544 -4.618627,-4.54106 -8.539689,-8.34436 -8.713467,-8.45176 -0.173782,-0.10741 -4.499272,-4.31836 -9.6122,-9.35767 C 56.69937,220.41625 45.067143,208.99067 35.962907,200.0654 9.0044037,173.6368 9.2308337,173.86903 8.1522807,171.54253 c -2.922996,-6.30507 -2.527729,-12.22215 1.14643,-17.16186 0.9646753,-1.29695 8.2831683,-9.93755 11.5381503,-13.62255 1.048047,-1.18651 2.257909,-2.61526 2.68858,-3.175 0.661977,-0.86037 3.261593,-3.9213 6.407146,-7.54412 0.421168,-0.48507 1.023941,-1.27882 1.339498,-1.76388 0.315556,-0.48507 1.352874,-1.71539 2.305148,-2.73403 2.016616,-2.15716 3.024227,-2.35905 4.401905,-0.88195 1.417843,1.52016 1.756679,2.45028 1.944078,5.33656 0.157847,2.43115 -0.104543,4.71223 -1.486137,12.91969 -0.09798,0.58209 -0.930931,1.95719 -1.850993,3.05579 -0.920062,1.0986 -3.022216,3.62018 -4.671452,5.60352 -1.649236,1.98333 -3.157361,3.78402 -3.351389,4.00153 -5.794234,6.49532 -6.173611,7.00215 -6.173611,8.24769 0,0.40267 2.429097,3.04393 6.085417,6.61694 3.346979,3.27071 12.289949,12.068 19.873264,19.54953 13.949928,13.76269 22.04251,21.69003 32.609753,31.94389 3.197434,3.10261 11.766639,11.49796 19.042682,18.65634 7.27604,7.15837 13.73489,13.40186 14.353,13.87442 1.7048,1.30337 -0.12554,2.82905 19.14452,-15.95791 3.98657,-3.88663 10.26457,-9.99567 13.9511,-13.57565 3.68652,-3.57998 8.8459,-8.60492 11.46527,-11.16653 2.61938,-2.5616 5.81953,-5.66006 7.11146,-6.88546 3.91648,-3.71479 20.00435,-19.29194 23.61517,-22.86548 10.94679,-10.8338 11.9471,-11.66646 14.52606,-12.09146 1.57408,-0.25939 3.98903,0.34177 8.34772,2.07805 2.24332,0.89362 4.50392,1.78049 5.02355,1.97083 1.22985,0.45047 1.46642,1.14635 0.81681,2.40258 -0.44774,0.86582 -4.47755,4.95821 -10.27598,10.43556 -3.99571,3.77445 -16.59892,15.92751 -23.01393,22.19194 -3.97383,3.88055 -7.81322,7.61118 -8.53198,8.29028 -0.71876,0.67909 -4.23242,4.09222 -7.80814,7.58472 -3.57571,3.4925 -8.71436,8.47134 -11.41921,11.06408 -5.3958,5.17216 -13.13501,12.67881 -21.85125,21.19462 -9.2314,9.01912 -11.02503,10.36611 -15.26704,11.46533 -2.50197,0.64832 -6.72997,0.66345 -8.7296,0.0312 z M 62.04776,184.26609 c -1.562365,-0.91087 -2.560648,-1.93199 -3.366343,-3.44335 l -0.837615,-1.57123 -0.100234,-28.13981 c -0.06506,-18.26568 0.02554,-28.60685 0.258159,-29.47079 0.203606,-0.75614 1.084876,-2.11117 2.040513,-3.13746 l 1.682118,-1.8065 4.056945,-0.56079 c 2.231319,-0.30844 7.15257,-1.04238 10.936112,-1.63098 3.783541,-0.58861 9.101667,-1.3783 11.818056,-1.75487 5.914422,-0.81992 15.338399,-2.23193 21.166669,-3.17143 2.32833,-0.37532 5.42396,-0.84385 6.87916,-1.04116 1.45521,-0.19732 5.64618,-0.83775 9.31326,-1.42318 3.66708,-0.58544 7.52309,-1.06443 8.56891,-1.06443 5.34391,0 8.67294,5.25637 6.27089,9.90142 -1.12336,2.17236 -4.76831,4.2097 -7.53145,4.2097 -0.48907,0 -2.72244,0.31343 -4.96305,0.69651 -2.24061,0.38309 -6.77258,1.09302 -10.07105,1.57762 -5.39452,0.79255 -14.55233,2.20482 -23.283339,3.59064 -1.74625,0.27718 -5.23875,0.81281 -7.761112,1.19029 -2.522361,0.37749 -6.252986,0.93592 -8.290278,1.24096 -4.892012,0.73247 -6.229004,1.11209 -6.51613,1.85017 -0.131272,0.33744 -0.221072,12.36445 -0.199552,26.72669 0.04652,31.04652 0.698732,27.69217 -5.380701,27.67295 -2.441667,-0.008 -4.23622,-0.17645 -4.689938,-0.44097 z"
       id="path21054"
       sodipodi:nodetypes="sssssssssssssssssscsssssssssssssssssssssssssscssscsssssssssssssssscs" />
  </g>
</svg>
